<svg viewBox="0 0 17 14" fill="none" xmlns="http://www.w3.org/2000/svg">
<path id="Vector" d="M16.9708 13.3636C16.9708 13.5324 16.902 13.6943 16.7796 13.8136C16.6572 13.933 16.4912 14 16.3181 14H0.652723C0.47961 14 0.313587 13.933 0.191178 13.8136C0.0687688 13.6943 0 13.5324 0 13.3636V0.636364C0 0.467589 0.0687688 0.305728 0.191178 0.186387C0.313587 0.0670454 0.47961 0 0.652723 0C0.825835 0 0.991858 0.0670454 1.11427 0.186387C1.23668 0.305728 1.30545 0.467589 1.30545 0.636364V8.14307L5.44452 4.61364C5.55715 4.51751 5.70025 4.46205 5.84983 4.45655C5.99942 4.45105 6.14639 4.49583 6.26614 4.58341L11.0645 8.09216L15.8881 3.97727C15.9513 3.91624 16.0267 3.86845 16.1096 3.83686C16.1925 3.80526 16.2811 3.79053 16.37 3.79355C16.459 3.79658 16.5463 3.8173 16.6268 3.85445C16.7072 3.8916 16.779 3.94439 16.8377 4.00958C16.8964 4.07477 16.9409 4.15097 16.9683 4.23351C16.9957 4.31606 17.0055 4.40319 16.9971 4.48957C16.9887 4.57594 16.9623 4.65973 16.9194 4.73578C16.8766 4.81184 16.8183 4.87855 16.748 4.93182L11.5263 9.38636C11.4136 9.48249 11.2705 9.53795 11.121 9.54345C10.9714 9.54895 10.8244 9.50417 10.7046 9.41659L5.90632 5.90943L1.30545 9.8342V12.7273H16.3181C16.4912 12.7273 16.6572 12.7943 16.7796 12.9137C16.902 13.033 16.9708 13.1949 16.9708 13.3636Z" fill="url(#paint0_linear_0_5)"/>
<defs>
<linearGradient id="paint0_linear_0_5" x1="0" y1="7" x2="17" y2="7" gradientUnits="userSpaceOnUse">
<stop stop-color="#06B6D4"/>
<stop offset="1" stop-color="#10B981"/>
</linearGradient>
</defs>
</svg>
