<svg viewBox="0 0 14 14" fill="none" xmlns="http://www.w3.org/2000/svg">
<g id="Vector">
<path d="M13.4167 7C13.4167 6.07174 13.0479 5.1815 12.3915 4.52513C11.7352 3.86875 10.8449 3.5 9.91667 3.5C8.4 3.5 7.14583 4.69583 6.44583 6.825C5.92083 8.42917 5.04583 9.33333 4.08333 9.33333C3.4645 9.33333 2.871 9.0875 2.43342 8.64992C1.99583 8.21233 1.75 7.61884 1.75 7C1.75 6.38116 1.99583 5.78767 2.43342 5.35008C2.871 4.9125 3.4645 4.66667 4.08333 4.66667H4.43333L3.96667 5.13333C3.90326 5.18946 3.85356 5.25936 3.82138 5.33769C3.7892 5.41601 3.7754 5.50067 3.78103 5.58515C3.78666 5.66964 3.81158 5.75172 3.85387 5.82507C3.89617 5.89843 3.95471 5.96112 4.025 6.00833C4.14205 6.09307 4.2853 6.13369 4.42941 6.12301C4.57351 6.11234 4.70921 6.05106 4.8125 5.95L6.24167 4.49167C6.29825 4.43975 6.34342 4.37665 6.37432 4.30636C6.40522 4.23607 6.42118 4.16012 6.42118 4.08333C6.42118 4.00655 6.40522 3.9306 6.37432 3.86031C6.34342 3.79002 6.29825 3.72691 6.24167 3.675L4.8125 2.21667C4.70921 2.11561 4.57351 2.05433 4.42941 2.04365C4.2853 2.03298 4.14205 2.0736 4.025 2.15833C3.95471 2.20554 3.89617 2.26823 3.85387 2.34159C3.81158 2.41495 3.78666 2.49702 3.78103 2.58151C3.7754 2.666 3.7892 2.75066 3.82138 2.82898C3.85356 2.9073 3.90326 2.97721 3.96667 3.03333L4.43333 3.5H4.08333C3.15508 3.5 2.26484 3.86875 1.60846 4.52513C0.952082 5.1815 0.583334 6.07174 0.583334 7C0.583334 7.92826 0.952082 8.8185 1.60846 9.47487C2.26484 10.1313 3.15508 10.5 4.08333 10.5C5.6 10.5 6.85417 9.30417 7.55417 7.175C8.07917 5.57083 8.95417 4.66667 9.91667 4.66667C10.5355 4.66667 11.129 4.9125 11.5666 5.35008C12.0042 5.78767 12.25 6.38116 12.25 7C12.25 7.61884 12.0042 8.21233 11.5666 8.64992C11.129 9.0875 10.5355 9.33333 9.91667 9.33333H9.56667L10.0333 8.86667C10.0967 8.81054 10.1464 8.74064 10.1786 8.66231C10.2108 8.58399 10.2246 8.49934 10.219 8.41485C10.2133 8.33036 10.1884 8.24828 10.1461 8.17493C10.1038 8.10157 10.0453 8.03888 9.975 7.99167C9.85795 7.90693 9.7147 7.86631 9.57059 7.87699C9.42649 7.88766 9.29079 7.94894 9.1875 8.05L7.75833 9.50833C7.70175 9.56024 7.65658 9.62335 7.62568 9.69364C7.59478 9.76393 7.57882 9.83988 7.57882 9.91667C7.57882 9.99345 7.59478 10.0694 7.62568 10.1397C7.65658 10.21 7.70175 10.2731 7.75833 10.325L9.1875 11.7833C9.29079 11.8844 9.42649 11.9457 9.57059 11.9563C9.7147 11.967 9.85795 11.9264 9.975 11.8417C10.0453 11.7945 10.1038 11.7318 10.1461 11.6584C10.1884 11.585 10.2133 11.503 10.219 11.4185C10.2246 11.334 10.2108 11.2493 10.1786 11.171C10.1464 11.0927 10.0967 11.0228 10.0333 10.9667L9.56667 10.5H9.91667C10.8449 10.5 11.7352 10.1313 12.3915 9.47487C13.0479 8.8185 13.4167 7.92826 13.4167 7Z" fill="url(#paint0_linear_0_4)"/>
</g>
<defs>
<linearGradient id="paint0_linear_0_4" x1="0" y1="7" x2="14" y2="7" gradientUnits="userSpaceOnUse">
<stop stop-color="#06B6D4"/>
<stop offset="1" stop-color="#10B981"/>
</linearGradient>
</defs>
</svg>
