<svg viewBox="0 0 13 14" fill="none" xmlns="http://www.w3.org/2000/svg">
<path id="Vector" d="M11.3146 5.00008C11.098 4.99889 10.8832 5.04132 10.6822 5.12504L8.84737 2.7471C8.99819 2.52157 9.09576 2.26234 9.13219 1.99039C9.16862 1.71844 9.14289 1.44141 9.05707 1.18171C8.97125 0.922 8.82776 0.686911 8.63821 0.495458C8.44865 0.304005 8.21835 0.161564 7.96594 0.0796561C7.71353 -0.00225147 7.4461 -0.021325 7.18527 0.0239783C6.92444 0.0692815 6.67755 0.177689 6.46456 0.340433C6.25157 0.503176 6.07846 0.715685 5.95925 0.960768C5.84003 1.20585 5.77805 1.47663 5.77832 1.75119C5.7783 1.81254 5.78131 1.87385 5.78735 1.93488L2.99091 3.14447C2.82245 2.92995 2.60738 2.75999 2.36335 2.64855C2.11933 2.53712 1.85332 2.48739 1.58718 2.50345C1.32105 2.51952 1.06238 2.60091 0.832439 2.74095C0.602495 2.88099 0.407836 3.07568 0.264457 3.30901C0.121078 3.54235 0.0330716 3.80768 0.00766809 4.0832C-0.0177354 4.35872 0.0201894 4.63657 0.118326 4.89391C0.216463 5.15125 0.372012 5.38074 0.57219 5.56353C0.772369 5.74632 1.01146 5.87719 1.26983 5.94538L1.38116 8.84313C1.12606 8.93357 0.895574 9.08623 0.709065 9.2883C0.522556 9.49037 0.385465 9.73594 0.309303 10.0044C0.23314 10.2729 0.220129 10.5564 0.271362 10.8312C0.322595 11.1059 0.436576 11.3639 0.603736 11.5835C0.770896 11.8031 0.986355 11.9778 1.23202 12.093C1.47769 12.2082 1.74639 12.2605 2.01557 12.2456C2.28475 12.2307 2.54655 12.1489 2.77899 12.0071C3.01142 11.8654 3.20771 11.6678 3.35137 11.431L6.25974 12.277C6.26382 12.5583 6.33323 12.8345 6.46206 13.0821C6.59089 13.3297 6.77534 13.5414 6.99977 13.6991C7.2242 13.8569 7.48198 13.9562 7.75123 13.9885C8.02048 14.0207 8.29326 13.9851 8.54642 13.8846C8.79958 13.7841 9.02564 13.6216 9.20543 13.411C9.38522 13.2004 9.51343 12.9479 9.57917 12.6749C9.64491 12.4019 9.64625 12.1165 9.58307 11.8428C9.51989 11.5692 9.39406 11.3154 9.21626 11.103L10.8537 8.43202C11.0854 8.50053 11.3287 8.51662 11.5669 8.47922C11.8052 8.44182 12.0329 8.3518 12.2348 8.21523C12.4367 8.07866 12.6081 7.89871 12.7373 7.68754C12.8665 7.47637 12.9506 7.23888 12.9839 6.99109C13.0171 6.74331 12.9988 6.491 12.9302 6.25118C12.8616 6.01136 12.7442 5.78962 12.586 5.60091C12.4278 5.4122 12.2324 5.26092 12.0131 5.15727C11.7938 5.05362 11.5556 5.00002 11.3146 5.00008ZM7.94471 10.4982H7.89115L6.91748 7.46611L9.72476 7.3274C9.79572 7.53389 9.90351 7.72465 10.0425 7.88971L8.40507 10.5607C8.25512 10.5179 8.1002 10.4969 7.94471 10.4982ZM2.3434 8.80315L2.23207 5.90539C2.45903 5.82422 2.66666 5.69364 2.84106 5.5224L5.40041 7.06187L2.90545 9.07493C2.73591 8.94902 2.54533 8.85686 2.3434 8.80315ZM7.55777 3.50059C7.74252 3.49011 7.92431 3.44789 8.09575 3.37564L9.93056 5.75357C9.81354 5.92803 9.72828 6.12327 9.67902 6.32962L6.87656 6.46832L7.55777 3.50059ZM3.497 9.86403L6.01903 7.82786L6.97826 10.8162C6.7956 10.9499 6.64017 11.1198 6.52091 11.316L3.61194 10.4688C3.60841 10.2618 3.56949 10.057 3.497 9.86403ZM7.46329 1.00145C7.60611 1.00145 7.74573 1.04542 7.86448 1.1278C7.98324 1.21019 8.07579 1.32728 8.13045 1.46428C8.1851 1.60128 8.19941 1.75202 8.17154 1.89746C8.14368 2.0429 8.0749 2.17649 7.97391 2.28134C7.87292 2.38619 7.74425 2.4576 7.60417 2.48653C7.46409 2.51546 7.31889 2.50061 7.18694 2.44386C7.05499 2.38712 6.94221 2.29102 6.86286 2.16773C6.78351 2.04443 6.74116 1.89948 6.74116 1.75119C6.74116 1.55235 6.81724 1.36165 6.95267 1.22104C7.08809 1.08044 7.27177 1.00145 7.46329 1.00145ZM6.15864 2.85706C6.28802 3.02077 6.44453 3.15915 6.62081 3.26567L5.9408 6.23028L3.32489 4.6577C3.35567 4.52427 3.37122 4.38754 3.37123 4.25034C3.37125 4.18899 3.36824 4.12768 3.3622 4.06665L6.15864 2.85706ZM0.96413 4.25034C0.96413 4.10205 1.00648 3.9571 1.08583 3.8338C1.16518 3.71051 1.27796 3.61441 1.40991 3.55766C1.54186 3.50092 1.68706 3.48607 1.82714 3.515C1.96722 3.54393 2.09589 3.61533 2.19688 3.72019C2.29787 3.82504 2.36665 3.95863 2.39451 4.10407C2.42238 4.2495 2.40808 4.40025 2.35342 4.53725C2.29876 4.67425 2.20621 4.79134 2.08745 4.87372C1.9687 4.95611 1.82908 5.00008 1.68626 5.00008C1.49474 5.00008 1.31106 4.92109 1.17564 4.78048C1.04021 4.63988 0.96413 4.44918 0.96413 4.25034ZM1.92697 11.2479C1.78415 11.2479 1.64453 11.204 1.52578 11.1216C1.40702 11.0392 1.31446 10.9221 1.25981 10.7851C1.20515 10.6481 1.19085 10.4974 1.21872 10.3519C1.24658 10.2065 1.31535 10.0729 1.41635 9.96804C1.51734 9.86319 1.64601 9.79178 1.78609 9.76285C1.92617 9.73393 2.07136 9.74877 2.20332 9.80552C2.33527 9.86227 2.44805 9.95836 2.5274 10.0817C2.60675 10.205 2.6491 10.3499 2.6491 10.4982C2.6491 10.697 2.57302 10.8877 2.43759 11.0283C2.30217 11.1689 2.11849 11.2479 1.92697 11.2479ZM7.94471 12.9973C7.80188 12.9973 7.66227 12.9534 7.54352 12.871C7.42476 12.7886 7.3322 12.6715 7.27755 12.5345C7.22289 12.3975 7.20859 12.2468 7.23645 12.1013C7.26432 11.9559 7.33309 11.8223 7.43409 11.7174C7.53508 11.6126 7.66375 11.5412 7.80383 11.5123C7.94391 11.4833 8.0891 11.4982 8.22105 11.5549C8.35301 11.6117 8.46579 11.7078 8.54514 11.8311C8.62448 11.9544 8.66684 12.0993 8.66684 12.2476C8.66684 12.4464 8.59076 12.6371 8.45533 12.7777C8.3199 12.9183 8.13623 12.9973 7.94471 12.9973ZM11.3146 7.49922C11.1718 7.49922 11.0322 7.45525 10.9134 7.37287C10.7947 7.29048 10.7021 7.17339 10.6475 7.03639C10.5928 6.89939 10.5785 6.74865 10.6064 6.60321C10.6343 6.45777 10.703 6.32418 10.804 6.21933C10.905 6.11448 11.0337 6.04307 11.1738 6.01414C11.3138 5.98521 11.459 6.00006 11.591 6.05681C11.7229 6.11355 11.8357 6.20965 11.9151 6.33294C11.9944 6.45624 12.0368 6.60119 12.0368 6.74948C12.0368 6.94832 11.9607 7.13902 11.8253 7.27963C11.6898 7.42023 11.5062 7.49922 11.3146 7.49922Z" fill="url(#paint0_linear_0_4)"/>
<defs>
<linearGradient id="paint0_linear_0_4" x1="-6.7112e-10" y1="7" x2="13" y2="7" gradientUnits="userSpaceOnUse">
<stop stop-color="#06B6D4"/>
<stop offset="1" stop-color="#10B981"/>
</linearGradient>
</defs>
</svg>
