<svg viewBox="0 0 15 13" fill="none" xmlns="http://www.w3.org/2000/svg">
<path id="Vector" d="M4.18421 4.9999H1.97368V7.24985H4.18421M4.18421 4.9999V7.24985M4.18421 4.9999H6.39474M4.18421 4.9999V2.74995H6.39474M4.18421 7.24985H6.39474M6.39474 4.9999V7.24985M6.39474 4.9999H8.60526M6.39474 4.9999V2.74995M6.39474 7.24985H8.60526V4.9999M8.60526 4.9999V2.74995M6.39474 2.74995H8.60526M6.39474 2.74995V0.5H8.60526V2.74995M1.65761 10.9997C2.76288 10.9997 3.16593 10.9442 3.83719 10.4148M5.65789 9.4998V9.5073M14.5 6.90493C13.1707 6.64619 12.5098 6.09495 11.9041 4.69998C11.5453 5.22197 11.0921 5.87595 11.2262 6.49994C11.2468 6.67844 10.9904 7.24992 10.8158 7.24992H0.5C0.5 11.1558 2.83137 12.4998 5.06547 12.4998C8.10421 12.5163 10.8335 11.4678 12.3263 8.74989C13.1707 8.67414 14.0181 7.62117 14.5 6.90493Z" stroke="url(#paint0_linear_0_30)" stroke-linecap="round" stroke-linejoin="round"/>
<defs>
<linearGradient id="paint0_linear_0_30" x1="0.5" y1="6.5" x2="14.5" y2="6.5" gradientUnits="userSpaceOnUse">
<stop stop-color="#06B6D4"/>
<stop offset="1" stop-color="#10B981"/>
</linearGradient>
</defs>
</svg>
