<svg viewBox="0 0 15 14" fill="none" xmlns="http://www.w3.org/2000/svg">
<path id="Vector" d="M3.75 2.69231V0.538462C3.75 0.395653 3.80644 0.258693 3.90691 0.157712C4.00737 0.0567306 4.14363 0 4.28571 0C4.42779 0 4.56406 0.0567306 4.66452 0.157712C4.76499 0.258693 4.82143 0.395653 4.82143 0.538462V2.69231C4.82143 2.83512 4.76499 2.97208 4.66452 3.07306C4.56406 3.17404 4.42779 3.23077 4.28571 3.23077C4.14363 3.23077 4.00737 3.17404 3.90691 3.07306C3.80644 2.97208 3.75 2.83512 3.75 2.69231ZM6.42857 3.23077C6.57065 3.23077 6.70691 3.17404 6.80738 3.07306C6.90784 2.97208 6.96429 2.83512 6.96429 2.69231V0.538462C6.96429 0.395653 6.90784 0.258693 6.80738 0.157712C6.70691 0.0567306 6.57065 0 6.42857 0C6.28649 0 6.15023 0.0567306 6.04976 0.157712C5.9493 0.258693 5.89286 0.395653 5.89286 0.538462V2.69231C5.89286 2.83512 5.9493 2.97208 6.04976 3.07306C6.15023 3.17404 6.28649 3.23077 6.42857 3.23077ZM8.57143 3.23077C8.71351 3.23077 8.84977 3.17404 8.95024 3.07306C9.0507 2.97208 9.10714 2.83512 9.10714 2.69231V0.538462C9.10714 0.395653 9.0507 0.258693 8.95024 0.157712C8.84977 0.0567306 8.71351 0 8.57143 0C8.42935 0 8.29309 0.0567306 8.19262 0.157712C8.09216 0.258693 8.03571 0.395653 8.03571 0.538462V2.69231C8.03571 2.83512 8.09216 2.97208 8.19262 3.07306C8.29309 3.17404 8.42935 3.23077 8.57143 3.23077ZM15 7V7.53846C14.9998 8.22335 14.7399 8.88241 14.2732 9.38147C13.8066 9.88053 13.1682 10.1821 12.4882 10.2247C12.1227 11.2636 11.5006 12.1922 10.6801 12.9231H12.3214C12.4635 12.9231 12.5998 12.9798 12.7002 13.0808C12.8007 13.1818 12.8571 13.3187 12.8571 13.4615C12.8571 13.6043 12.8007 13.7413 12.7002 13.8423C12.5998 13.9433 12.4635 14 12.3214 14H0.535714C0.393634 14 0.257373 13.9433 0.156907 13.8423C0.0564411 13.7413 0 13.6043 0 13.4615C0 13.3187 0.0564411 13.1818 0.156907 13.0808C0.257373 12.9798 0.393634 12.9231 0.535714 12.9231H2.17902C1.49551 12.3161 0.947876 11.5703 0.572262 10.735C0.196648 9.8996 0.00160102 8.99364 0 8.07692V4.84615C0 4.70334 0.0564411 4.56639 0.156907 4.4654C0.257373 4.36442 0.393634 4.30769 0.535714 4.30769H12.3214C13.0318 4.30769 13.7131 4.59135 14.2155 5.09625C14.7178 5.60116 15 6.28596 15 7ZM11.7857 5.38462H1.07143V8.07692C1.07349 9.08794 1.35775 10.0781 1.89188 10.9348C2.426 11.7915 3.18856 12.4804 4.09286 12.9231H8.76429C9.66858 12.4804 10.4311 11.7915 10.9653 10.9348C11.4994 10.0781 11.7836 9.08794 11.7857 8.07692V5.38462ZM13.9286 7C13.9285 6.66603 13.8254 6.34031 13.6335 6.06765C13.4416 5.795 13.1704 5.58882 12.8571 5.4775V8.07692C12.8567 8.41506 12.8299 8.75264 12.7768 9.08654C13.1092 8.98783 13.4009 8.78377 13.6085 8.50478C13.8161 8.22579 13.9283 7.88683 13.9286 7.53846V7Z" fill="url(#paint0_linear_0_6)"/>
<defs>
<linearGradient id="paint0_linear_0_6" x1="0" y1="7" x2="15" y2="7" gradientUnits="userSpaceOnUse">
<stop stop-color="#06B6D4"/>
<stop offset="1" stop-color="#10B981"/>
</linearGradient>
</defs>
</svg>
