<svg viewBox="0 0 14 14" fill="none" xmlns="http://www.w3.org/2000/svg">
  <path d="M7 1C4.24 1 2 3.24 2 6v2.5c0 .83-.34 1.58-.88 2.12L1 10.75v.75h4.5c0 .83.67 1.5 1.5 1.5s1.5-.67 1.5-1.5H13v-.75l-.12-.13A3 3 0 0112 8.5V6c0-2.76-2.24-5-5-5z" stroke="currentColor" stroke-width="1.2" stroke-linejoin="round"/>
  <circle cx="5.5" cy="5.5" r="0.75" fill="currentColor"/>
  <circle cx="8.5" cy="5.5" r="0.75" fill="currentColor"/>
  <path d="M5.5 7.5C5.5 7.5 6 8.5 7 8.5S8.5 7.5 8.5 7.5" stroke="currentColor" stroke-width="0.8" stroke-linecap="round"/>
</svg>
