<svg viewBox="0 0 14 14" fill="none" xmlns="http://www.w3.org/2000/svg">
<g id="linux" clip-path="url(#clip0_0_6)">
<path id="Vector" d="M13.125 7C13.125 10.381 10.3841 13.125 7 13.125C3.61594 13.125 0.875 10.381 0.875 7C0.875 3.61594 3.61594 0.875 7 0.875C10.3841 0.875 13.125 3.61594 13.125 7Z" fill="#0F172A"/>
<path id="Vector_2" d="M4.94651 9.58563C4.89169 9.5039 4.84374 9.39369 4.8048 9.26183C4.10187 8.46913 4.64489 7.30258 5.18201 6.51044C5.23351 6.42574 5.28959 6.34393 5.35058 6.26566C5.76039 5.75649 5.86639 5.40216 5.89794 4.92279C5.9017 4.83354 5.89431 4.71542 5.88582 4.57966C5.84246 3.88662 5.77041 2.73514 7.00696 2.63305C8.55264 2.50543 8.42673 3.92483 8.41531 4.75703C8.41483 4.79146 8.41435 4.82497 8.41404 4.8573C8.40984 5.35894 8.67164 5.70242 8.94491 6.06091C9.0447 6.19185 9.14602 6.32476 9.2365 6.46813C9.23917 6.47238 9.24184 6.47666 9.24451 6.48091C9.72204 7.16962 10.1935 8.19744 9.53728 9.17232C9.44506 9.50508 9.30541 9.8105 9.11899 10.059C8.4497 10.9398 7.85483 10.8503 7.39025 10.7805C7.25012 10.7595 7.12184 10.7402 7.00696 10.7499C6.81612 10.7615 6.66317 10.7923 6.53104 10.819C6.02035 10.9221 5.82076 10.9624 4.94651 9.58563Z" fill="#0F172A"/>
<path id="Vector_3" d="M7.88108 3.4101C7.86673 3.81802 7.43404 4.17235 6.91534 4.20511C6.39664 4.23786 5.98968 3.92819 6.00403 3.52027C6.01834 3.11234 6.45107 2.75802 6.96977 2.72526C7.48847 2.69549 7.89539 3.00218 7.88108 3.4101Z" fill="url(#paint0_linear_0_6)"/>
<path id="Vector_4" fill-rule="evenodd" clip-rule="evenodd" d="M6.9412 4.40164C6.94536 4.62346 7.04694 4.81259 7.18961 4.89803C6.72416 4.85634 6.1474 5.02648 6.1474 5.34852C6.14023 5.89326 5.83704 6.57103 5.61877 7.05889C5.57581 7.15501 5.53613 7.24373 5.50261 7.32261C5.36751 7.65717 5.28644 8.015 5.27686 8.36592C4.91903 7.87268 5.17904 7.23992 5.31921 6.96531C5.50576 6.60393 5.50218 6.55882 5.42973 6.64352C5.15196 7.11585 4.62888 8.06457 5.28391 8.6345C5.30469 8.88899 5.36668 9.13557 5.47684 9.36224C6.35373 11.1309 7.99579 10.4044 8.53742 9.48732C8.60947 9.3569 8.66775 9.23077 8.71399 9.10888C8.74112 9.12594 8.77017 9.13916 8.80106 9.14786C9.07331 9.22828 9.48023 8.92159 9.57766 8.73101C9.69517 8.47792 9.57482 8.30519 9.17363 8.09974C9.15316 8.08964 9.13294 8.0801 9.11299 8.07122C9.26686 7.42332 8.84284 6.74957 8.54 6.46376C8.48352 6.4498 8.47556 6.48182 8.56323 6.56928C8.75394 6.75207 9.16878 7.40372 8.94434 8.01023C8.90737 8.0003 8.8718 7.9933 8.83789 7.98945C8.76894 7.57566 8.58511 7.25375 8.45661 7.02879C8.42752 6.97782 8.40127 6.93184 8.37979 6.89089C8.33656 6.80824 8.28485 6.72267 8.22999 6.63193C8.01863 6.28224 7.76081 5.85563 7.76081 5.22344C7.72848 5.08436 7.59723 4.99161 7.42254 4.94038C7.62532 4.89948 7.77753 4.66257 7.77228 4.37784C7.76654 4.07113 7.57453 3.82697 7.34528 3.83293C7.11603 3.83889 6.93263 4.09496 6.9412 4.40164ZM7.13033 4.47011C7.12749 4.63986 7.20772 4.7768 7.31377 4.7768C7.41694 4.7768 7.50575 4.63986 7.50864 4.47309C7.51148 4.30339 7.43124 4.16642 7.32524 4.16642C7.21919 4.16642 7.13322 4.30339 7.13033 4.47011Z" fill="url(#paint1_linear_0_6)"/>
<path id="Vector_5" fill-rule="evenodd" clip-rule="evenodd" d="M6.36807 4.87804C6.53428 4.86911 6.65464 4.64581 6.64033 4.38082C6.62598 4.1158 6.47986 3.91035 6.31361 3.91928C6.1474 3.92821 6.02704 4.15153 6.04139 4.41652C6.0557 4.68151 6.20187 4.88696 6.36807 4.87804ZM6.46835 4.47309C6.4827 4.61304 6.43112 4.73213 6.35661 4.74408C6.28211 4.753 6.21044 4.64879 6.19614 4.50883C6.18179 4.36889 6.23337 4.24979 6.30787 4.23788C6.38238 4.22894 6.45404 4.33316 6.46835 4.47309Z" fill="url(#paint2_linear_0_6)"/>
<path id="Vector_6" d="M7.17329 4.37484C7.16467 4.47011 7.20768 4.54755 7.26784 4.5535C7.32804 4.55945 7.38535 4.48499 7.39393 4.39272C7.40254 4.29742 7.35954 4.22 7.29938 4.21405C7.23918 4.20809 7.18187 4.28253 7.17329 4.37484Z" fill="url(#paint3_linear_0_6)"/>
<path id="Vector_7" d="M6.40544 4.39871C6.41401 4.47615 6.38251 4.54462 6.33666 4.55057C6.29081 4.55652 6.24781 4.49698 6.23919 4.41661C6.23061 4.33917 6.26211 4.27069 6.30801 4.26474C6.35386 4.25878 6.39682 4.32131 6.40544 4.39871Z" fill="url(#paint4_linear_0_6)"/>
<path id="Vector_8" d="M8.16769 7.50422C8.16769 8.02826 7.68338 8.70717 6.85234 8.70122C5.99546 8.70717 5.63154 8.02826 5.63154 7.50422C5.63154 6.98018 6.19894 6.55436 6.89819 6.55436C7.60029 6.55738 8.16769 6.98018 8.16769 7.50422Z" fill="url(#paint5_linear_0_6)"/>
<path id="Vector_9" d="M7.71514 5.85777C7.70656 6.39971 7.36553 6.52772 6.93564 6.52772C6.5058 6.52772 6.19342 6.44731 6.15619 5.85777C6.15619 5.48857 6.5058 5.27415 6.93564 5.27415C7.36553 5.27117 7.71514 5.48559 7.71514 5.85777Z" fill="url(#paint6_linear_0_6)"/>
<path id="Vector_10" d="M5.11595 6.69143C5.39682 6.24781 5.98999 5.56592 5.22773 6.78672C4.60871 7.79314 4.99848 8.43929 5.19907 8.61792C5.77793 9.1539 5.75501 9.51418 5.29935 9.23129C4.32216 8.62684 4.52563 7.60852 5.11595 6.69143Z" fill="url(#paint7_linear_0_6)"/>
<path id="Vector_11" d="M9.18229 6.87312C8.93874 6.35206 8.16497 5.03002 9.21957 6.56644C10.1796 7.95694 9.50613 8.92465 9.38577 9.01994C9.26542 9.11522 8.86134 9.30873 8.97886 8.97229C9.09921 8.63581 9.69526 7.99864 9.18229 6.87312Z" fill="url(#paint8_linear_0_6)"/>
<path id="Vector_12" d="M4.90389 10.9822C4.26197 10.6278 3.33061 11.0506 3.66877 10.0919C3.73754 9.87451 3.56846 9.54699 3.67736 9.33555C3.80632 9.07651 4.08429 9.13308 4.2505 8.96039C4.41385 8.78176 4.51701 8.4721 4.82366 8.5197C5.12741 8.56734 5.33089 8.95444 5.54295 9.43084C5.70058 9.77029 6.25651 10.2497 6.21924 10.6308C6.17339 11.2144 5.53433 11.3246 4.90389 10.9822Z" fill="url(#paint9_linear_0_6)"/>
<path id="Vector_13" fill-rule="evenodd" clip-rule="evenodd" d="M4.32103 9.03018C4.16493 9.20093 3.87823 9.15998 3.76316 9.38337C3.68927 9.52683 3.77001 9.74733 3.7809 9.90443C3.79436 10.0986 3.63345 10.3736 3.71539 10.5393C3.80742 10.7255 4.22317 10.7013 4.40593 10.7281C4.85708 10.794 5.60276 11.3778 6.01072 10.9119C6.40955 10.4563 5.64296 9.87984 5.45492 9.47489C5.33264 9.20014 5.14964 8.67344 4.809 8.61993C4.56886 8.58266 4.45948 8.87876 4.32103 9.03018ZM4.83801 8.41951C5.26216 8.48606 5.47439 9.03591 5.63093 9.38752C5.86854 9.89743 6.68268 10.4455 6.15501 11.0482C5.67577 11.5956 4.91916 11.0077 4.37876 10.9288C4.10885 10.8893 3.68313 10.9176 3.54189 10.6319C3.42047 10.3863 3.60334 10.1638 3.58636 9.919C3.5719 9.7104 3.48935 9.4864 3.59087 9.28839C3.72985 9.01009 3.99815 9.07747 4.18051 8.88965C4.37416 8.67685 4.49024 8.36548 4.83801 8.41951Z" fill="#0F172A"/>
<path id="Vector_14" d="M9.35436 10.8184C9.82432 10.2259 10.8703 10.348 10.1654 9.53509C10.0163 9.35944 10.0622 8.98424 9.87879 8.82346C9.66385 8.62693 9.42598 8.78771 9.20819 8.68647C8.99041 8.57631 8.76116 8.36491 8.49463 8.51379C8.22811 8.66565 8.19945 9.0587 8.17368 9.57679C8.15076 9.94897 7.82408 10.5713 7.99886 10.9137C8.25108 11.4437 8.90732 11.3722 9.35436 10.8184Z" fill="url(#paint10_linear_0_6)"/>
<path id="Vector_15" fill-rule="evenodd" clip-rule="evenodd" d="M9.54174 8.61796C9.66223 8.61477 9.80656 8.62321 9.9421 8.74672C10.1107 8.89534 10.1123 9.13793 10.1759 9.34106C10.2511 9.5816 10.5149 9.71902 10.4991 10.0011C10.4734 10.4622 9.67479 10.5733 9.429 10.8832C9.19279 11.1758 8.89424 11.35 8.61092 11.3735C8.18125 11.4091 7.82635 11.0478 7.85146 10.6067C7.87185 10.2496 8.05376 9.92517 8.07594 9.57092C8.08872 9.31438 8.1025 9.07655 8.14887 8.88344C8.19573 8.68827 8.28017 8.52023 8.44738 8.42494C8.81357 8.22036 9.16733 8.62776 9.54174 8.61796ZM8.54083 8.60287C8.44169 8.65948 8.37865 8.76383 8.33814 8.93248C8.29714 9.10319 8.28367 9.32194 8.27063 9.58326C8.24876 9.93834 8.06649 10.2625 8.04619 10.6187C8.02808 10.9363 8.27203 11.1983 8.59543 11.1715C8.81492 11.1533 9.06815 11.0147 9.27898 10.7536C9.46737 10.5163 10.2872 10.2959 10.3044 9.98935C10.3156 9.78915 10.0522 9.60133 9.99036 9.40376C9.94197 9.2491 9.93943 9.00953 9.81553 8.90089C9.73634 8.82853 9.65304 8.81777 9.54664 8.82057C9.23834 8.82862 8.82704 8.4434 8.54083 8.60287Z" fill="#0F172A"/>
<path id="Vector_16" d="M9.15057 10.0264C9.87844 8.90978 9.33682 8.9187 9.15342 8.83234C8.97002 8.74304 8.77804 8.56734 8.5631 8.68945C8.34816 8.81449 8.33669 9.13605 8.33096 9.55889C8.32239 9.86261 8.07879 10.3718 8.22496 10.6546C8.40263 10.9851 8.83247 10.5057 9.15057 10.0264Z" fill="url(#paint11_linear_0_6)"/>
<path id="Vector_17" d="M4.75484 10.1871C3.66585 9.45459 4.17595 9.20447 4.3393 9.08832C4.53705 8.93944 4.53989 8.65362 4.78349 8.68039C5.02705 8.70721 5.17033 9.01985 5.33369 9.40695C5.45405 9.68384 5.87247 10.053 5.84093 10.3716C5.80081 10.7468 5.2248 10.4997 4.75484 10.1871Z" fill="url(#paint12_linear_0_6)"/>
<path id="Vector_18" d="M9.51479 8.72209C9.42882 8.87692 9.07922 9.12104 8.84708 9.05555C8.60926 8.99303 8.50036 8.64465 8.54906 8.38263C8.59206 8.08487 8.84708 8.06999 9.16807 8.21887C9.50906 8.37966 9.61511 8.51664 9.51479 8.72209Z" fill="#0F172A"/>
<path id="Vector_19" d="M9.27972 8.63577C9.22526 8.74296 8.99601 8.91266 8.83553 8.86799C8.67506 8.82332 8.59482 8.58217 8.62059 8.40052C8.64351 8.19507 8.81545 8.18317 9.03328 8.28441C9.26826 8.39755 9.34277 8.49284 9.27972 8.63577Z" fill="url(#paint13_linear_0_6)"/>
<path id="Vector_20" d="M6.31636 4.7502C6.43099 4.63999 6.70898 4.30355 7.23625 4.65491C7.33368 4.72041 7.41392 4.72636 7.60021 4.80974C7.97562 4.97052 7.79791 5.35758 7.39672 5.48861C7.22479 5.54518 7.07004 5.76253 6.76056 5.74171C6.49403 5.72683 6.42526 5.54518 6.26189 5.44692C5.97249 5.27721 5.92948 5.04792 6.08711 4.92586C6.2447 4.80379 6.3049 4.75913 6.31636 4.7502Z" fill="url(#paint14_linear_0_6)"/>
<path id="Vector_21" fill-rule="evenodd" clip-rule="evenodd" d="M6.12207 4.97451C6.06213 5.02093 6.04306 5.08261 6.06287 5.15086C6.10356 5.29104 6.39695 5.48384 6.5093 5.57817C6.57317 5.63181 6.64624 5.67433 6.76432 5.68094C7.01719 5.69796 7.15763 5.5034 7.37918 5.43051C7.52487 5.38291 7.83317 5.20109 7.73106 4.99271C7.64391 4.81486 7.35035 4.80388 7.20453 4.70588C6.95358 4.53871 6.77088 4.53989 6.64072 4.58679C6.4981 4.6382 6.25122 4.87445 6.12207 4.97451ZM6.60236 4.47191C6.77167 4.41092 6.99178 4.41967 7.26801 4.60373C7.44958 4.72579 7.72581 4.71402 7.83532 4.93754C7.97484 5.22222 7.63678 5.47382 7.41431 5.54649C7.17609 5.62494 7.04301 5.82142 6.75706 5.8023C6.60879 5.79394 6.51368 5.73816 6.43576 5.67276C6.2741 5.53704 6.00097 5.40807 5.93854 5.19286C5.90389 5.07351 5.95442 4.95267 6.05211 4.87699C6.21001 4.75471 6.42337 4.53644 6.60236 4.47191Z" fill="#0F172A"/>
<path id="Vector_22" fill-rule="evenodd" clip-rule="evenodd" d="M7.64509 5.06061C7.64628 5.08296 7.62978 5.10208 7.6083 5.10326C7.30498 5.12046 7.09183 5.46661 6.74931 5.46661C6.55764 5.46661 6.40592 5.37412 6.29742 5.28518C6.27559 5.26728 6.08269 5.11858 6.08269 5.08069C6.08269 5.05829 6.10015 5.04013 6.12172 5.04013C6.16201 5.04013 6.28359 5.17208 6.32883 5.20918C6.43103 5.29296 6.58276 5.38554 6.74931 5.38554C7.08842 5.38554 7.29645 5.03978 7.60401 5.02233C7.62554 5.0211 7.64391 5.03825 7.64509 5.06061Z" fill="#0F172A"/>
<path id="Vector_23" d="M6.49434 4.72032C6.55165 4.66672 6.73216 4.52082 6.97003 4.6697C7.02161 4.69945 7.07319 4.73222 7.1477 4.77689C7.2996 4.8692 7.22509 5.00316 7.04165 5.08655C6.95857 5.12229 6.82102 5.19969 6.71786 5.19374C6.60323 5.18184 6.52584 5.1044 6.45133 5.05378C6.31089 4.95854 6.31951 4.87812 6.3854 4.81561C6.43414 4.76796 6.48861 4.72329 6.49434 4.72032Z" fill="url(#paint15_linear_0_6)"/>
</g>
<defs>
<linearGradient id="paint0_linear_0_6" x1="7.02529" y1="2.75895" x2="6.92843" y2="4.07137" gradientUnits="userSpaceOnUse">
<stop stop-color="white" stop-opacity="0.8"/>
<stop offset="1" stop-color="white" stop-opacity="0"/>
</linearGradient>
<linearGradient id="paint1_linear_0_6" x1="5.64226" y1="9.91904" x2="4.92214" y2="7.55633" gradientUnits="userSpaceOnUse">
<stop stop-color="#FFEED7"/>
<stop offset="1" stop-color="#BDBFC2"/>
</linearGradient>
<linearGradient id="paint2_linear_0_6" x1="5.64226" y1="9.91904" x2="4.92214" y2="7.55633" gradientUnits="userSpaceOnUse">
<stop stop-color="#FFEED7"/>
<stop offset="1" stop-color="#BDBFC2"/>
</linearGradient>
<linearGradient id="paint3_linear_0_6" x1="7.29229" y1="4.22426" x2="7.25148" y2="4.52996" gradientUnits="userSpaceOnUse">
<stop stop-color="white" stop-opacity="0.65"/>
<stop offset="1" stop-color="white" stop-opacity="0"/>
</linearGradient>
<linearGradient id="paint4_linear_0_6" x1="6.31488" y1="4.28004" x2="6.3588" y2="4.52738" gradientUnits="userSpaceOnUse">
<stop stop-color="white" stop-opacity="0.65"/>
<stop offset="1" stop-color="white" stop-opacity="0"/>
</linearGradient>
<linearGradient id="paint5_linear_0_6" x1="6.89557" y1="6.83839" x2="6.90288" y2="8.5869" gradientUnits="userSpaceOnUse">
<stop stop-color="white" stop-opacity="0.8"/>
<stop offset="1" stop-color="white" stop-opacity="0"/>
</linearGradient>
<linearGradient id="paint6_linear_0_6" x1="6.93455" y1="5.74206" x2="6.9426" y2="6.43729" gradientUnits="userSpaceOnUse">
<stop stop-color="white" stop-opacity="0.65"/>
<stop offset="1" stop-color="white" stop-opacity="0"/>
</linearGradient>
<linearGradient id="paint7_linear_0_6" x1="5.1275" y1="6.17116" x2="5.1275" y2="8.72252" gradientUnits="userSpaceOnUse">
<stop stop-color="white" stop-opacity="0.65"/>
<stop offset="1" stop-color="white" stop-opacity="0"/>
</linearGradient>
<linearGradient id="paint8_linear_0_6" x1="9.20194" y1="5.92196" x2="9.20097" y2="8.22728" gradientUnits="userSpaceOnUse">
<stop stop-color="white" stop-opacity="0.65"/>
<stop offset="1" stop-color="white" stop-opacity="0"/>
</linearGradient>
<linearGradient id="paint9_linear_0_6" x1="5.00001" y1="9.81636" x2="4.60924" y2="11.1219" gradientUnits="userSpaceOnUse">
<stop stop-color="#FFA63F"/>
<stop offset="1" stop-color="#FFFF00"/>
</linearGradient>
<linearGradient id="paint10_linear_0_6" x1="8.69838" y1="9.41938" x2="9.7412" y2="10.8413" gradientUnits="userSpaceOnUse">
<stop stop-color="#FFA63F"/>
<stop offset="1" stop-color="#FFFF00"/>
</linearGradient>
<linearGradient id="paint11_linear_0_6" x1="8.97741" y1="8.28332" x2="8.61276" y2="10.0015" gradientUnits="userSpaceOnUse">
<stop stop-color="white" stop-opacity="0.65"/>
<stop offset="1" stop-color="white" stop-opacity="0"/>
</linearGradient>
<linearGradient id="paint12_linear_0_6" x1="4.9203" y1="8.70809" x2="4.99262" y2="10.6417" gradientUnits="userSpaceOnUse">
<stop stop-color="white" stop-opacity="0.65"/>
<stop offset="1" stop-color="white" stop-opacity="0"/>
</linearGradient>
<linearGradient id="paint13_linear_0_6" x1="8.91428" y1="8.25195" x2="8.99885" y2="8.82971" gradientUnits="userSpaceOnUse">
<stop stop-color="white" stop-opacity="0.65"/>
<stop offset="1" stop-color="white" stop-opacity="0"/>
</linearGradient>
<linearGradient id="paint14_linear_0_6" x1="6.89692" y1="4.718" x2="6.90397" y2="5.73554" gradientUnits="userSpaceOnUse">
<stop stop-color="#FFA63F"/>
<stop offset="1" stop-color="#FFFF00"/>
</linearGradient>
<linearGradient id="paint15_linear_0_6" x1="6.78589" y1="4.62166" x2="6.78396" y2="5.1597" gradientUnits="userSpaceOnUse">
<stop stop-color="white" stop-opacity="0.65"/>
<stop offset="1" stop-color="white" stop-opacity="0"/>
</linearGradient>
<clipPath id="clip0_0_6">
<rect width="14" height="14" fill="white"/>
</clipPath>
</defs>
</svg>
