<svg viewBox="0 0 14 14" fill="none" xmlns="http://www.w3.org/2000/svg">
<path id="Vector" d="M13.8332 13.6593L13.542 13.3769C13.3981 13.1837 13.2451 13.0128 13.0783 12.857L13.0754 12.8547C12.9042 12.6964 12.7263 12.5458 12.5418 12.4031C12.3939 12.2996 12.1906 12.175 11.9319 12.0291C11.7192 11.9317 11.553 11.7607 11.463 11.5483L11.4607 11.5425L11.4332 11.5285C11.5547 11.5162 11.6659 11.4935 11.7725 11.4614L11.7593 11.4649L12.0861 11.3733C12.2213 11.3301 12.3778 11.3021 12.54 11.2957H12.5435C12.7143 11.2887 12.8754 11.2607 13.029 11.2146L13.0147 11.2181C13.0888 11.1994 13.165 11.1782 13.2434 11.1545C13.3217 11.1308 13.3888 11.1096 13.4446 11.0909V10.9923C13.3892 10.9079 13.3221 10.8114 13.2434 10.7029C13.1683 10.599 13.084 10.5086 12.9894 10.4298L12.9866 10.4275C12.7462 10.2112 12.4972 10.002 12.2397 9.79971C12.0127 9.61942 11.7553 9.43563 11.4882 9.26526L11.4492 9.24192C11.3082 9.14741 11.1466 9.05989 10.9763 8.98812L10.9568 8.98112C10.7856 8.91033 10.6169 8.83273 10.4507 8.74832C10.3951 8.72032 10.3303 8.69581 10.2633 8.67889L10.257 8.67772C10.1899 8.66372 10.1326 8.62871 10.0907 8.57912L10.0902 8.57854C10.0111 8.47235 9.9417 8.35157 9.88667 8.22321L9.88208 8.21154C9.82667 8.07968 9.76668 7.95307 9.7021 7.83171C9.56338 7.55866 9.42925 7.28113 9.2997 6.99912C9.17016 6.71712 9.04577 6.43473 8.92655 6.15195C8.84362 5.96369 8.76739 5.77562 8.69784 5.58775C8.62103 5.3812 8.53447 5.20442 8.43359 5.03813L8.44104 5.05155C8.19342 4.62213 7.94636 4.25572 7.6781 3.9074L7.69415 3.92957C7.42876 3.58883 7.15362 3.28427 6.85784 3.00188L6.85326 2.99779C6.5615 2.7189 6.24738 2.45284 5.91779 2.20663L5.8897 2.18621C5.5473 1.93299 5.17281 1.68366 4.76621 1.43822C4.60285 1.3402 4.41312 1.26026 4.21307 1.20892L4.19817 1.20542L3.56019 1.04322L3.19964 1.01521C3.07965 1.00588 2.95947 1.00121 2.83909 1.00121C2.75426 0.955699 2.68146 0.901438 2.61726 0.838425C2.55421 0.777162 2.486 0.7194 2.41492 0.666305L2.40919 0.662221C2.0624 0.456262 1.65943 0.267806 1.23813 0.119608L1.1894 0.104438C1.07878 0.038508 0.945791 0 0.804209 0C0.703325 0 0.606453 0.0198375 0.518179 0.0554282L0.523338 0.0536778C0.305519 0.14178 0.139289 0.3209 0.0676384 0.54378L0.0659188 0.549615C0.0240747 0.649969 0 0.766076 0 0.888602C0 1.10331 0.0745169 1.29994 0.198903 1.45339L0.197756 1.45164C0.405639 1.73364 0.564991 1.95535 0.675811 2.11677C0.758735 2.22996 0.844333 2.34763 0.932607 2.46976C1.01343 2.57945 1.08508 2.7049 1.14297 2.83734L1.14756 2.84959C1.17966 2.91902 1.20775 3.00188 1.22838 3.08706L1.2301 3.0964C1.24844 3.17652 1.27156 3.26365 1.29946 3.35778C1.38238 3.57405 1.46091 3.79576 1.53505 4.02292C1.61587 4.27089 1.70529 4.48093 1.80904 4.68106L1.79815 4.65772C1.85356 4.76119 1.90916 4.86232 1.96495 4.96112C2.02074 5.05991 2.08074 5.15638 2.14494 5.25051C2.1822 5.30769 2.2292 5.35495 2.28308 5.39171L2.2848 5.39287C2.34155 5.43488 2.37881 5.50081 2.38167 5.57549C2.31633 5.67351 2.27219 5.79137 2.25729 5.91798L2.25671 5.92148C2.23665 6.0691 2.20799 6.20037 2.16901 6.32698L2.1736 6.30948C2.04577 6.69806 1.9724 7.14615 1.9724 7.61117C1.9724 7.7617 1.97986 7.9099 1.99533 8.05634L1.99361 8.03826C2.02801 8.59721 2.19366 9.11065 2.45906 9.55524L2.45103 9.54066C2.56395 9.71277 2.6849 9.86272 2.81846 9.99983C2.91476 10.1095 3.05462 10.1784 3.21053 10.1784C3.29766 10.1784 3.3802 10.1568 3.45242 10.1183L3.44956 10.1194C3.65018 10.0459 3.79291 9.85922 3.80323 9.63692V9.63576C3.83074 9.3592 3.87201 9.11181 3.92876 8.87026L3.92131 8.90936C3.93506 8.8726 3.94309 8.83059 3.94309 8.78625C3.94309 8.7775 3.94252 8.76874 3.94194 8.75999V8.76116C3.93736 8.71876 3.96277 8.6787 4.01818 8.64097V8.66897C4.07359 8.80083 4.13129 8.9325 4.19129 9.06397C4.25128 9.19544 4.31357 9.32711 4.37815 9.45897C4.54725 9.72094 4.72666 9.94966 4.92385 10.1603L4.92213 10.1585C5.11988 10.3756 5.33541 10.5705 5.56813 10.7426L5.58074 10.7513C5.70226 10.8458 5.80888 10.9479 5.90518 11.0594L5.90747 11.0617C5.99803 11.1702 6.10637 11.2595 6.22846 11.3266L6.2342 11.3295V11.3155H6.26171C6.23935 11.2648 6.20324 11.2239 6.15853 11.1959L6.15739 11.1953C6.1121 11.1697 6.07312 11.144 6.03644 11.116L6.0393 11.1177C5.95638 11.0333 5.87078 10.9392 5.78251 10.8353C5.69423 10.7315 5.61341 10.6327 5.54004 10.5389C5.34592 10.2659 5.16077 9.98058 4.98461 9.68302C4.80844 9.38546 4.64202 9.08303 4.48534 8.77574C4.41121 8.62521 4.33956 8.47001 4.27039 8.31015C4.20122 8.15028 4.13416 7.99508 4.06919 7.84455C4.04111 7.78679 4.02162 7.72027 4.01417 7.64968V7.64676C4.01073 7.57966 3.9729 7.5219 3.91787 7.49214L3.91672 7.49156C3.84736 7.61175 3.77055 7.71561 3.68285 7.80954L3.68343 7.80896C3.59229 7.9064 3.51777 8.02134 3.46446 8.14736L3.4616 8.15495C3.38077 8.35449 3.32173 8.58612 3.29594 8.82826L3.29479 8.83934C3.26728 9.08867 3.23957 9.345 3.21168 9.60834L3.18416 9.62234L3.17041 9.63634C3.02137 9.60542 2.89871 9.50856 2.83221 9.37787L2.83107 9.37495C2.76152 9.23842 2.69923 9.10423 2.6442 8.97237C2.50205 8.60071 2.41377 8.1707 2.40174 7.72144V7.71619C2.39658 7.64501 2.39428 7.56157 2.39428 7.47814C2.39428 7.08956 2.45447 6.71498 2.56567 6.36374L2.55879 6.38941C2.58631 6.28595 2.6463 6.11169 2.73878 5.86664C2.83126 5.62159 2.84979 5.45219 2.79438 5.35845C2.76572 5.26218 2.71241 5.18108 2.64248 5.11923L2.64191 5.11865C2.57198 5.0568 2.50835 4.99204 2.44989 4.92319L2.44817 4.92086C2.38358 4.82595 2.3213 4.72482 2.2613 4.61746C2.2013 4.51011 2.14819 4.40431 2.10195 4.30006C2.00737 4.07718 1.9105 3.79771 1.83025 3.51065L1.81764 3.45872C1.7265 3.12907 1.62504 2.85018 1.50467 2.58179L1.51957 2.61913C1.45594 2.4721 1.382 2.34491 1.29602 2.2288L1.29946 2.23347C1.20622 2.10666 1.12291 1.98666 1.04954 1.87347C0.9563 1.75134 0.863822 1.63367 0.772109 1.52048C0.678677 1.40554 0.595562 1.27602 0.527923 1.13715L0.522764 1.12548C0.495251 1.06889 0.471176 1.00296 0.454553 0.934695L0.453406 0.928277C0.447101 0.907856 0.443662 0.883934 0.443662 0.860012C0.443662 0.812169 0.457419 0.767243 0.481494 0.729902L0.48092 0.731069C0.487226 0.698395 0.502129 0.669806 0.522764 0.646468C0.54512 0.626047 0.57378 0.610877 0.604733 0.604459H0.605879C0.654602 0.572369 0.713642 0.553115 0.777841 0.553115C0.825991 0.553115 0.872421 0.564201 0.913118 0.584038L0.911399 0.583455C1.03693 0.619629 1.13839 0.655803 1.23755 0.697229L1.21692 0.689644C1.39232 0.765104 1.55415 0.838036 1.70242 0.908439C1.87324 0.99129 2.01883 1.07881 2.1564 1.17625L2.14609 1.16924C2.22022 1.21631 2.29416 1.26804 2.36792 1.32444C2.44167 1.38084 2.5202 1.43744 2.6035 1.49423H2.79782C2.94571 1.49423 3.10277 1.50142 3.269 1.51582C3.43695 1.52924 3.59229 1.56133 3.74017 1.6115L3.72642 1.60742C4.00213 1.69085 4.23886 1.78946 4.46356 1.9079L4.44006 1.89681C4.66667 2.01428 4.88162 2.13895 5.08492 2.27081C5.42253 2.48493 5.7143 2.70431 5.98886 2.94411L5.97912 2.93594C6.26572 3.18566 6.52596 3.4418 6.77014 3.71252L6.77588 3.71952C7.01433 3.98441 7.24189 4.27206 7.44997 4.5737L7.46774 4.60113C7.65919 4.87652 7.85236 5.19508 8.02604 5.52532L8.05011 5.57491C8.09654 5.66476 8.14355 5.77504 8.18424 5.88764L8.19055 5.9069C8.22762 6.01503 8.26908 6.12589 8.31494 6.23947C8.41658 6.47479 8.52549 6.71226 8.64166 6.95186C8.75783 7.19147 8.86674 7.42446 8.96839 7.65084L9.27334 8.32823C9.38053 8.56512 9.50033 8.76933 9.63962 8.95778L9.63331 8.94903C9.74967 9.07564 9.90501 9.16433 10.0793 9.19525L10.0839 9.19583C10.2948 9.24951 10.4725 9.31019 10.6444 9.38195L10.6175 9.37204C10.6995 9.40996 10.8049 9.45022 10.9133 9.48581L10.9362 9.49223C11.0577 9.53015 11.1632 9.58033 11.2601 9.64334L11.2549 9.64043C11.4424 9.7472 11.6011 9.85222 11.7525 9.96658L11.7404 9.95783C11.8975 10.0753 12.0545 10.1862 12.2116 10.2904C12.2857 10.3468 12.4101 10.4291 12.5848 10.5372C12.7594 10.6453 12.8519 10.7465 12.8622 10.8406C12.7968 10.8383 12.7195 10.8365 12.6421 10.8365C12.3601 10.8365 12.0826 10.8552 11.8109 10.8914L11.843 10.8879C11.5358 10.9299 11.2572 11.0063 10.9953 11.1154L11.0182 11.1072C10.9534 11.1358 10.876 11.1621 10.7958 11.1825L10.7849 11.1848C10.7035 11.1971 10.6404 11.2636 10.6324 11.3464C10.6674 11.3908 10.6955 11.4427 10.7144 11.4987L10.7155 11.5022C10.735 11.5617 10.7585 11.6131 10.7872 11.6609L10.7855 11.6574C10.8537 11.7805 10.927 11.8867 11.0096 11.9847L11.0073 11.9818C11.0881 12.0834 11.1792 12.1715 11.2801 12.2467L11.2841 12.2496C11.3774 12.3251 11.4745 12.4027 11.5753 12.4824C11.6676 12.5559 11.7719 12.6283 11.8803 12.6936L11.894 12.7012C12.0568 12.8028 12.246 12.8996 12.4432 12.9807L12.4695 12.99C12.6839 13.0776 12.8679 13.1791 13.0387 13.2999L13.0296 13.2934C13.1408 13.3592 13.2516 13.4321 13.362 13.5122C13.4725 13.5924 13.5787 13.67 13.6807 13.745C13.7226 13.787 13.7593 13.8337 13.7902 13.8845L13.7919 13.8874C13.8441 13.9481 13.9163 13.9895 13.9983 14H14V13.972C13.9496 13.9329 13.9123 13.8786 13.8945 13.8162L13.894 13.8139C13.8796 13.7544 13.8584 13.7024 13.8298 13.6546L13.8309 13.6569L13.8332 13.6593ZM3.18531 2.45401C3.11117 2.45401 3.04182 2.45635 2.97724 2.46101C2.91132 2.46568 2.84998 2.47793 2.79209 2.49777L2.79725 2.49602V2.51002H2.82476C2.86183 2.56642 2.90845 2.62983 2.96463 2.70023C3.0208 2.77063 3.07162 2.8389 3.1171 2.90502L3.33893 3.37062L3.36644 3.35662C3.43122 3.30877 3.48108 3.24459 3.51089 3.16933L3.51204 3.16641C3.54184 3.08531 3.55904 2.99079 3.55904 2.89277C3.55904 2.88227 3.55904 2.87177 3.55847 2.86126V2.86301C3.53267 2.83734 3.51146 2.807 3.49656 2.77316L3.49599 2.77141L3.44956 2.66522C3.41918 2.61621 3.37676 2.5777 3.32689 2.5532L3.32517 2.55262C3.27129 2.52636 3.22543 2.4931 3.18531 2.45401Z" fill="url(#paint0_linear_0_5)"/>
<defs>
<linearGradient id="paint0_linear_0_5" x1="0" y1="7" x2="14" y2="7" gradientUnits="userSpaceOnUse">
<stop stop-color="#06B6D4"/>
<stop offset="1" stop-color="#10B981"/>
</linearGradient>
</defs>
</svg>
