<svg viewBox="0 0 12 14" fill="none" xmlns="http://www.w3.org/2000/svg">
<path id="Vector" d="M6 0L0 3.5V10.5L6 14L12 10.5V3.5L6 0ZM9.4632 9.6775C9.4632 10.0888 9.09033 10.43 8.58066 10.43C8.21645 10.43 7.80087 10.2812 7.54113 9.9575L4.07792 5.79192V9.67692C4.07792 10.0975 3.74892 10.4294 3.34257 10.4294H3.2987C2.88254 10.4294 2.55411 10.0794 2.55411 9.67692V4.3225C2.55411 3.91125 2.91775 3.57 3.41991 3.57C3.79279 3.57 4.21645 3.71875 4.47619 4.0425L7.92208 8.20808V4.3225C7.92208 3.90192 8.2684 3.57 8.66667 3.57H8.70996C9.12554 3.57 9.45455 3.92 9.45455 4.3225V9.6775H9.4632Z" fill="url(#paint0_linear_0_5)"/>
<defs>
<linearGradient id="paint0_linear_0_5" x1="0" y1="7" x2="12" y2="7" gradientUnits="userSpaceOnUse">
<stop stop-color="#06B6D4"/>
<stop offset="1" stop-color="#10B981"/>
</linearGradient>
</defs>
</svg>
