<svg viewBox="0 0 15 15" fill="none" xmlns="http://www.w3.org/2000/svg">
<path id="Vector" d="M7.5 5.16667H2.05556C1.643 5.16667 1.24733 5.33055 0.955612 5.62228C0.663888 5.914 0.5 6.30966 0.5 6.72222V9.83333C0.5 10.2459 0.663888 10.6416 0.955612 10.9333C1.24733 11.225 1.643 11.3889 2.05556 11.3889H4.38889M7.5 9.83333H12.9444C13.357 9.83333 13.7527 9.66944 14.0444 9.37772C14.3361 9.086 14.5 8.69034 14.5 8.27778V5.16667C14.5 4.75411 14.3361 4.35845 14.0444 4.06672C13.7527 3.775 13.357 3.61111 12.9444 3.61111H10.6111M4.38889 5.16667V2.05556C4.38889 1.643 4.55278 1.24733 4.8445 0.955612C5.13622 0.663888 5.53189 0.5 5.94444 0.5H9.05556C9.46811 0.5 9.86378 0.663888 10.1555 0.955612C10.4472 1.24733 10.6111 1.643 10.6111 2.05556V5.94444C10.6111 6.357 10.4472 6.75266 10.1555 7.04439C9.86378 7.33611 9.46811 7.5 9.05556 7.5H5.94444C5.53189 7.5 5.13622 7.66389 4.8445 7.95561C4.55278 8.24733 4.38889 8.643 4.38889 9.05556V12.9444C4.38889 13.357 4.55278 13.7527 4.8445 14.0444C5.13622 14.3361 5.53189 14.5 5.94444 14.5H9.05556C9.46811 14.5 9.86378 14.3361 10.1555 14.0444C10.4472 13.7527 10.6111 13.357 10.6111 12.9444V9.83333M6.72222 2.83333V2.84111M8.27778 12.1667V12.1744" stroke="url(#paint0_linear_0_7)" stroke-linecap="round" stroke-linejoin="round"/>
<defs>
<linearGradient id="paint0_linear_0_7" x1="0.5" y1="7.5" x2="14.5" y2="7.5" gradientUnits="userSpaceOnUse">
<stop stop-color="#06B6D4"/>
<stop offset="1" stop-color="#10B981"/>
</linearGradient>
</defs>
</svg>
