<svg viewBox="0 0 13.9996 14.0027" fill="none" xmlns="http://www.w3.org/2000/svg">
<g id="Vector">
<path d="M5.03494 0.0245C5.02872 0.0400556 4.98517 0.0493889 4.88872 0.0571667C4.60872 0.0773889 4.13117 0.181611 3.80294 0.293611C3.74383 0.315389 3.68006 0.335611 3.66294 0.340278C3.63339 0.3465 3.44983 0.418056 3.35183 0.461611C3.14806 0.548722 2.84317 0.705833 2.64406 0.827167C2.43872 0.951611 2.0825 1.21139 1.89894 1.37006C1.76983 1.48206 1.44783 1.80406 1.33428 1.93472C1.22072 2.06539 0.940722 2.44028 0.861389 2.56628C0.828722 2.62072 0.788278 2.68294 0.774278 2.70628C0.701167 2.8245 0.495833 3.22583 0.427389 3.38606C0.383833 3.48406 0.312278 3.66761 0.306056 3.69717C0.301389 3.71428 0.281167 3.7765 0.259389 3.83717C0.148944 4.15761 0.0556111 4.58694 0.0151667 4.96806C-0.00505556 5.1625 -0.00505556 5.94961 0.0151667 6.14406C0.0416111 6.39294 0.0898333 6.66672 0.1505 6.90161C0.189389 7.05406 0.264056 7.30294 0.288944 7.35739C0.301389 7.38539 0.310722 7.4165 0.310722 7.42739C0.310722 7.45539 0.441389 7.76339 0.548722 7.98272C0.708944 8.31095 0.884722 8.59717 1.1305 8.92383C1.24717 9.07939 1.3965 9.24894 1.58317 9.43872C1.64539 9.5025 1.69206 9.56161 1.68739 9.56939C1.68272 9.57717 1.62517 9.61606 1.55983 9.65494C1.42294 9.73894 1.39028 9.7405 1.20517 9.67517C0.918944 9.57406 0.833389 9.56472 0.693389 9.61761C0.5705 9.66583 0.498944 9.73428 0.400944 9.89917C0.211167 10.2165 0.212722 10.2149 0.211167 10.3705C0.209611 10.5681 0.2345 10.6132 0.475611 10.8418L0.670056 11.0254V11.2229C0.670056 11.3303 0.666944 11.4329 0.662278 11.4485C0.656056 11.4656 0.610944 11.5138 0.561167 11.5574C0.411833 11.6881 0.282722 11.8249 0.245389 11.8918C0.195611 11.9852 0.195611 12.2061 0.246944 12.3072C0.284278 12.3834 0.284278 12.3803 0.393167 12.5669C0.505167 12.7567 0.582944 12.8267 0.729167 12.8718C0.838056 12.9061 0.869167 12.9045 1.02628 12.8578C1.09939 12.8361 1.18028 12.8127 1.20672 12.8065C1.23472 12.7987 1.26428 12.7878 1.27517 12.7816C1.28606 12.7754 1.32028 12.7645 1.35139 12.7567C1.40894 12.7443 1.48672 12.7723 1.60961 12.8516C1.63606 12.8687 1.67806 12.8921 1.70294 12.9029C1.7745 12.9372 1.79628 12.9729 1.82583 13.1083C1.86317 13.2856 1.89739 13.4101 1.92539 13.4801C1.95961 13.5609 2.06072 13.6621 2.15406 13.7072C2.22872 13.7445 2.24583 13.7461 2.52739 13.7461C2.78872 13.7461 2.83228 13.7429 2.89294 13.7149C3.04383 13.6496 3.1325 13.5454 3.17606 13.3883C3.23361 13.1798 3.25072 13.1036 3.25072 13.0538C3.25072 12.9761 3.33783 12.9061 3.58517 12.7832C3.67072 12.7396 3.68628 12.7412 3.86517 12.8049C3.99894 12.8532 4.17006 12.8967 4.21828 12.8983C4.28206 12.8983 4.40028 12.8547 4.47961 12.8018C4.55428 12.7521 4.63983 12.6478 4.69272 12.5405C4.69894 12.5281 4.73161 12.4674 4.76739 12.4083C4.87317 12.2278 4.89494 12.1003 4.84672 11.9541C4.81561 11.8623 4.7565 11.7876 4.59628 11.6398C4.38472 11.4438 4.40183 11.4812 4.40183 11.2354C4.40183 10.9694 4.39872 10.9725 4.56828 11.0052C4.89961 11.0705 5.05672 11.0829 5.52183 11.0829C5.98539 11.0829 6.06939 11.0767 6.48628 11.0067C6.80672 10.9538 7.1505 10.8605 7.43517 10.7516C7.48183 10.7329 7.5425 10.7112 7.5705 10.7034C7.5985 10.6956 7.62494 10.6816 7.62961 10.6738C7.63583 10.6645 7.64983 10.6583 7.66228 10.6583C7.67939 10.6583 7.89561 10.5634 8.01072 10.5043C8.19272 10.4109 8.44472 10.2616 8.60961 10.1512C8.74494 10.0594 8.76361 10.0469 8.86472 9.97072C8.91917 9.92872 8.9705 9.89606 8.97828 9.89606C9.00005 9.89606 9.69072 10.5898 9.69072 10.6116C9.69072 10.6209 9.67206 10.6536 9.64872 10.6832C9.56161 10.7998 9.55383 10.9849 9.63317 11.1016C9.69228 11.1903 11.2058 12.6976 11.2681 12.7303C11.3972 12.7972 11.5574 12.6898 11.5574 12.5374C11.5574 12.4689 11.5294 12.4301 11.3676 12.2683C11.2914 12.1952 11.2307 12.1236 11.2307 12.1096C11.2307 12.0801 12.0458 11.2649 12.0754 11.2649C12.1081 11.2649 13.5329 12.6945 13.5329 12.7256C13.5329 12.7583 12.7241 13.5672 12.6898 13.5672C12.6758 13.5672 12.5467 13.4489 12.4021 13.3043C12.1158 13.0165 12.0443 12.9605 11.9696 12.9605C11.9027 12.9605 11.8203 13.0181 11.7845 13.0912C11.7285 13.2047 11.7503 13.2358 12.1298 13.6154C12.3149 13.8005 12.4907 13.9623 12.5203 13.9778C12.5561 13.9934 12.6136 14.0027 12.6929 14.0027C12.7987 14.0027 12.8189 13.9981 12.8812 13.9576C12.9729 13.8954 13.9109 12.9512 13.9436 12.8858C13.9576 12.8578 13.9763 12.8392 13.9841 12.8438C13.9934 12.8501 13.9996 12.8049 13.9996 12.7318C13.9996 12.6276 13.9949 12.6074 13.9685 12.5903C13.9514 12.5794 13.9374 12.5592 13.9374 12.5452C13.9374 12.5156 11.2012 9.7685 11.0907 9.68761C10.9569 9.58806 10.7765 9.5865 10.6489 9.68295C10.6194 9.70628 10.5867 9.72495 10.5774 9.72495C10.5541 9.72495 9.88672 9.05761 9.87428 9.02183C9.8665 9.00472 9.89606 8.95339 9.96139 8.86628C10.1356 8.6345 10.3487 8.28917 10.4763 8.02939C10.5556 7.87228 10.6489 7.66228 10.6707 7.59383C10.6785 7.57206 10.6987 7.51606 10.7174 7.46939C10.7656 7.34339 10.8154 7.18783 10.8776 6.96383C10.9258 6.79583 10.9849 6.48317 11.0145 6.2405C11.0394 6.04606 11.0425 6.03828 11.1358 6.03828C11.2432 6.03828 11.3863 5.96361 11.4625 5.86717C11.5387 5.77072 11.5621 5.70383 11.6289 5.39272C11.6429 5.32428 11.6616 5.2605 11.6694 5.24961C11.6818 5.23406 11.8047 5.15939 11.9152 5.10028C12.0536 5.02561 12.0365 5.02872 12.1392 5.06139C12.4923 5.17339 12.5763 5.1905 12.6836 5.16872C12.8547 5.13294 12.9512 5.04894 13.0834 4.81717C13.1129 4.76583 13.1441 4.70983 13.1549 4.69272C13.2265 4.56983 13.2421 4.5185 13.2436 4.38939C13.2452 4.18717 13.2249 4.15761 12.8454 3.80139L12.7707 3.73139V3.32694L12.8454 3.25539C12.8858 3.2165 12.9729 3.1325 13.0398 3.06872C13.1052 3.00494 13.1783 2.92094 13.2016 2.88206C13.2374 2.81828 13.2421 2.79339 13.2421 2.6705C13.2421 2.52739 13.2249 2.47294 13.1441 2.34383C13.0974 2.27072 13.0772 2.23494 13.0352 2.15717C12.9854 2.06228 12.8656 1.94717 12.7832 1.91294C12.7007 1.88028 12.5001 1.87561 12.4176 1.90672C12.3849 1.91761 12.2869 1.95028 12.1998 1.97828L12.0412 2.02961L11.8965 1.94717C11.6616 1.81494 11.6601 1.81339 11.6289 1.66406C11.5512 1.29228 11.5107 1.20361 11.3769 1.10717C11.2696 1.03094 11.1903 1.01383 10.9181 1.01383C10.6427 1.01383 10.5556 1.0325 10.4498 1.11183C10.3161 1.2145 10.2834 1.29539 10.1932 1.73717C10.1807 1.80094 10.1356 1.84139 9.99405 1.91606C9.95983 1.93472 9.90228 1.96583 9.86494 1.98761L9.79806 2.0265L9.70161 1.92072C9.55694 1.76206 9.25983 1.4665 9.15406 1.37628C8.89894 1.1585 8.7045 1.01383 8.64228 0.996722C8.5085 0.957833 8.38406 1.04961 8.38406 1.18806C8.38406 1.27361 8.41517 1.31717 8.5505 1.41983C8.7325 1.55672 9.0405 1.81806 9.07161 1.86006C9.08872 1.88339 9.0685 1.91294 9.02339 1.9285C8.97983 1.94406 8.90672 2.00939 8.8305 2.10117L8.7885 2.1525L8.6905 2.06539C8.53494 1.92383 8.04806 1.55828 8.01539 1.55828C8.00917 1.55828 7.99361 1.54894 7.98117 1.5365C7.9205 1.48517 7.57983 1.30939 7.35428 1.21606C7.25006 1.1725 7.13961 1.12583 7.11161 1.11339C7.08361 1.10094 7.05094 1.09161 7.0385 1.09161C7.02606 1.09161 6.99339 1.08228 6.96539 1.06983C6.83161 1.01383 6.52361 0.942278 6.15183 0.8785C5.92472 0.839611 5.11583 0.839611 4.88406 0.8785C4.4765 0.946944 4.15761 1.02783 3.87294 1.13828C3.82628 1.15694 3.76872 1.17717 3.74694 1.18339C3.6085 1.22694 3.21806 1.43228 2.94739 1.60494C2.45739 1.91606 1.88183 2.49161 1.57072 2.98161C1.39183 3.26317 1.15072 3.72517 1.15072 3.78739C1.15072 3.79828 1.14139 3.82006 1.12894 3.83717C1.11806 3.85428 1.10406 3.88539 1.09939 3.90717C1.09472 3.92894 1.06672 4.01606 1.03717 4.10161C0.965611 4.31161 0.898722 4.59006 0.844278 4.91828C0.805389 5.15472 0.805389 5.95894 0.844278 6.19383C0.886278 6.44739 0.942278 6.69472 1.00139 6.90161C1.03872 7.03228 1.12117 7.2625 1.17406 7.38383C1.19272 7.42739 1.38094 7.81161 1.42917 7.90183C1.47739 7.99517 1.72939 8.36228 1.8445 8.50539C2.0825 8.80406 2.50406 9.20228 2.78406 9.39206C2.82294 9.4185 2.90072 9.47295 2.95983 9.51183C3.01739 9.55228 3.06717 9.58494 3.07028 9.58494C3.07494 9.58494 3.12783 9.6145 3.19161 9.65183C3.3145 9.72494 3.69094 9.91161 3.71428 9.91161C3.72206 9.91161 3.76872 9.92872 3.81694 9.9505C3.97561 10.0205 4.27428 10.1107 4.53406 10.1667C5.22939 10.3176 6.0725 10.2989 6.71183 10.1185C6.91094 10.0625 6.96383 10.0469 7.01206 10.0267C7.04006 10.0143 7.07272 10.0049 7.08361 10.0049C7.10228 10.0049 7.21117 9.96139 7.38072 9.88828C7.75872 9.72494 8.2705 9.41539 8.48672 9.21939C8.49606 9.21006 8.53806 9.17583 8.58006 9.14317C8.62206 9.10895 8.74339 8.99383 8.85072 8.8865C9.02494 8.71072 9.09961 8.62828 9.20072 8.49917C9.21783 8.47739 9.2505 8.4385 9.27228 8.41206C9.43872 8.20983 9.7125 7.74161 9.85406 7.41494C9.92717 7.24539 9.97072 7.1365 9.97072 7.11783C9.97072 7.10694 9.98005 7.07428 9.9925 7.04628C10.0858 6.82228 10.1838 6.34783 10.2196 5.94494C10.2398 5.71783 10.2461 5.6805 10.2663 5.6805C10.2741 5.6805 10.2865 5.69917 10.2912 5.7225C10.3176 5.82828 10.4358 5.95272 10.5665 6.01183C10.6007 6.02739 10.6241 6.04917 10.6241 6.06472C10.6256 6.13472 10.5525 6.55006 10.5043 6.75383C10.4483 6.99494 10.2974 7.46006 10.2647 7.49117C10.2569 7.5005 10.2507 7.51606 10.2507 7.5285C10.2507 7.56272 10.0298 8.00761 9.93806 8.1585C9.89139 8.23317 9.84628 8.30628 9.8385 8.32183C9.78561 8.41361 9.59272 8.67961 9.51028 8.77606C9.22872 9.10739 9.07317 9.26294 8.74183 9.5445C8.64539 9.62694 8.37939 9.81983 8.28761 9.87272C8.27206 9.8805 8.20206 9.92406 8.13206 9.96606C7.98272 10.0578 7.52694 10.2849 7.49428 10.2849C7.48183 10.2849 7.46628 10.2912 7.4585 10.2989C7.43517 10.3223 7.08361 10.4421 6.89072 10.4934C6.83472 10.5089 6.75539 10.5307 6.71339 10.5432C6.67294 10.5556 6.62472 10.5649 6.60917 10.5649C6.59206 10.5649 6.53917 10.5743 6.48939 10.5867C6.02117 10.7049 5.09561 10.7018 4.51072 10.5805C4.1545 10.5058 3.7765 10.3892 3.49183 10.2616C3.3845 10.2149 3.02206 10.0314 2.9785 10.0034C2.95361 9.98783 2.92094 9.96917 2.9085 9.9645C2.86028 9.94272 2.49161 9.69072 2.38739 9.60828C2.10272 9.38117 1.97517 9.26294 1.7465 9.01561C1.61583 8.87406 1.31406 8.49139 1.23317 8.36383C1.11961 8.18339 0.996722 7.96561 0.917389 7.80072C0.866056 7.69183 0.814722 7.58761 0.805389 7.57206C0.796056 7.55494 0.783611 7.52383 0.777389 7.50206C0.769611 7.48028 0.749389 7.42272 0.730722 7.37606C0.592278 7.01828 0.498944 6.64494 0.432056 6.1705C0.405611 5.98228 0.405611 5.13139 0.432056 4.94161C0.497389 4.47339 0.592278 4.09539 0.730722 3.73606C0.749389 3.68939 0.769611 3.63183 0.777389 3.61006C0.783611 3.58828 0.796056 3.55717 0.805389 3.54006C0.814722 3.5245 0.866056 3.42028 0.917389 3.31139C1.16628 2.79183 1.46183 2.38117 1.90517 1.93939C2.34694 1.49606 2.75761 1.2005 3.27717 0.951611C3.38606 0.900278 3.49028 0.848945 3.50583 0.839611C3.52294 0.830278 3.55406 0.817833 3.57583 0.811611C3.59761 0.803833 3.65517 0.783611 3.70183 0.764944C3.79517 0.729167 4.0845 0.634278 4.20739 0.601611C4.38161 0.553389 4.48117 0.533167 4.87628 0.467833C5.03961 0.441389 5.8345 0.4305 6.0165 0.453833C6.09894 0.464722 6.21717 0.478722 6.27628 0.484944C6.50339 0.511389 6.93583 0.615611 7.15983 0.6965C7.4445 0.800722 7.47561 0.813167 7.67317 0.903389C7.81317 0.968722 7.8785 0.967167 7.95783 0.898722C8.01539 0.848944 8.0185 0.842722 8.0185 0.7525C8.0185 0.673167 8.01228 0.651389 7.97961 0.617167C7.9345 0.567389 7.76494 0.484944 7.48494 0.3745C7.45228 0.362056 7.20183 0.279611 7.04628 0.229833C7.00739 0.217389 6.92339 0.195611 6.85961 0.181611C6.79583 0.167611 6.70406 0.145833 6.65739 0.134944C6.5345 0.105389 6.2965 0.0680556 6.15494 0.0571667C6.07094 0.0493889 6.0305 0.0400556 6.02428 0.0245C6.01183 -0.00816667 5.04739 -0.00816667 5.03494 0.0245ZM5.8485 1.26272C6.55161 1.32339 7.1925 1.53339 7.78517 1.89739C8.02783 2.04672 8.35294 2.30028 8.52872 2.47917C8.58628 2.53517 8.58939 2.54294 8.5785 2.61294C8.56606 2.70472 8.61117 2.85561 8.67339 2.93961C8.69828 2.97072 8.77294 3.0485 8.84139 3.11383C8.90983 3.17761 8.98606 3.24917 9.01094 3.2725L9.0545 3.31606L9.04517 3.77028L8.9985 3.80294C8.91606 3.86206 8.72006 4.05183 8.67028 4.12028C8.64228 4.15761 8.60806 4.23228 8.59406 4.28828C8.55361 4.43761 8.5785 4.52161 8.76206 4.83272C8.89894 5.06761 8.96894 5.12672 9.15094 5.16717C9.24117 5.18739 9.35161 5.17494 9.4885 5.12828C9.72961 5.04583 9.77005 5.03494 9.7825 5.05672C9.80739 5.09561 9.83072 5.34606 9.83072 5.55606C9.83072 6.04294 9.72494 6.61228 9.55072 7.06494C9.53206 7.11161 9.51183 7.16917 9.50406 7.19094C9.49783 7.21272 9.48539 7.24383 9.47606 7.26094C9.46672 7.2765 9.42628 7.3605 9.38583 7.44606C9.23494 7.76183 9.00005 8.1165 8.76983 8.37628C8.59717 8.57072 8.2705 8.88339 8.19894 8.92228C8.18494 8.93006 8.15694 8.95183 8.13517 8.97206C7.98739 9.10894 7.34806 9.47917 7.15672 9.53828C7.13494 9.54606 7.07739 9.56628 7.03072 9.58494C6.43183 9.81517 5.71472 9.91006 5.10183 9.84161C4.65383 9.79028 4.4065 9.72806 3.89628 9.54294C3.65828 9.45583 3.12783 9.15406 2.9225 8.98761C2.90072 8.96895 2.83072 8.91294 2.76694 8.86161C2.46672 8.6205 2.10894 8.2145 1.89428 7.86917C1.85694 7.81006 1.81494 7.74472 1.80094 7.72139C1.69206 7.54872 1.47428 7.05406 1.40739 6.82383C1.39183 6.7725 1.37317 6.71339 1.36694 6.69161C1.35917 6.66983 1.34672 6.62161 1.33894 6.58272C1.33117 6.54383 1.31872 6.48161 1.30939 6.44272C1.25961 6.23428 1.21294 5.80806 1.21294 5.55606C1.21294 5.29006 1.26583 4.81872 1.31561 4.6445C1.32806 4.60094 1.33739 4.55272 1.33739 4.53561C1.33739 4.52006 1.34672 4.47961 1.35917 4.44383C1.37006 4.40961 1.39183 4.33961 1.40739 4.28828C1.43383 4.1965 1.44939 4.15139 1.50072 4.01606C1.54428 3.89939 1.56139 3.8605 1.6625 3.65361C1.71694 3.54317 1.78539 3.41094 1.8165 3.36117C1.84917 3.30983 1.88183 3.25539 1.88961 3.24139C1.97983 3.08428 2.28006 2.71561 2.48072 2.51494C2.68139 2.31428 3.05006 2.01406 3.20717 1.92383C3.22117 1.9145 3.27561 1.88339 3.32694 1.85072C3.46383 1.76672 3.81383 1.59717 3.97872 1.5365C4.13739 1.47739 4.16539 1.4665 4.25406 1.44161C4.30539 1.42606 4.37539 1.40428 4.40961 1.39339C4.44539 1.38094 4.48583 1.37161 4.50139 1.37161C4.5185 1.37161 4.56672 1.36228 4.61028 1.34983C4.89494 1.26894 5.45494 1.23006 5.8485 1.26272ZM11.1467 1.45717C11.1716 1.49606 11.2043 1.6205 11.2307 1.78539C11.2603 1.97206 11.3567 2.11983 11.4983 2.19294C11.5356 2.21317 11.5761 2.23494 11.5885 2.24272C11.7005 2.31272 11.8576 2.39517 11.9152 2.41383C12.0085 2.44494 12.1205 2.43872 12.2341 2.39828C12.4301 2.32828 12.5856 2.28783 12.6167 2.29717C12.6401 2.30494 12.7023 2.38894 12.7225 2.43717C12.7256 2.44494 12.7521 2.49161 12.7801 2.53983C12.8096 2.58806 12.8329 2.64561 12.8329 2.66583C12.8329 2.70472 12.7474 2.79494 12.5732 2.94117C12.4021 3.08428 12.3663 3.18539 12.3678 3.53383C12.3678 3.8885 12.3943 3.95694 12.5887 4.1265C12.6509 4.18094 12.7334 4.25872 12.7738 4.30072C12.8625 4.39094 12.8656 4.37539 12.7132 4.6305C12.7023 4.64761 12.6867 4.67717 12.6789 4.69428C12.6712 4.71294 12.6494 4.73939 12.6307 4.75183C12.5934 4.77828 12.6167 4.78294 12.3196 4.68183C12.1967 4.63983 12.1501 4.6305 12.0396 4.63206C11.8949 4.63206 11.8996 4.6305 11.6072 4.80472C11.5434 4.84206 11.4858 4.87161 11.4796 4.87161C11.4718 4.87161 11.4283 4.90894 11.3816 4.9525C11.3163 5.01628 11.2914 5.05672 11.2649 5.1345C11.2463 5.1905 11.2307 5.25272 11.2307 5.2745C11.2307 5.29472 11.2214 5.35228 11.2089 5.39894C11.1965 5.44717 11.1809 5.50472 11.1763 5.52961C11.1576 5.62139 11.1249 5.63383 10.9243 5.63228C10.8232 5.63228 10.7267 5.62606 10.7112 5.61983C10.6801 5.60739 10.6521 5.5265 10.6241 5.36939C10.5665 5.04583 10.5214 4.97583 10.2709 4.8265C10.1869 4.77828 10.1076 4.73317 10.0952 4.72694C10.0827 4.72072 10.0438 4.69894 10.0096 4.67872C9.88828 4.60561 9.72494 4.60872 9.4885 4.69117C9.29717 4.75806 9.24894 4.77206 9.22406 4.76739C9.20072 4.76272 9.1525 4.69272 9.08405 4.56828C9.06539 4.53406 9.03583 4.48272 9.01872 4.45472C8.97517 4.38472 8.99072 4.35828 9.14006 4.22606C9.45583 3.94917 9.45739 3.94606 9.45739 3.52294V3.20406L9.41072 3.11539C9.38272 3.06406 9.32672 2.99561 9.27383 2.9505C9.1105 2.80739 8.99072 2.68917 8.99072 2.66894C8.99072 2.63472 9.18983 2.30961 9.21628 2.29872C9.24894 2.28628 9.28161 2.29406 9.50872 2.36872C9.60983 2.40139 9.71561 2.4325 9.74361 2.43717C9.80117 2.44806 9.9785 2.40606 10.0189 2.37183C10.0314 2.36094 10.0469 2.35161 10.0516 2.35161C10.0578 2.35161 10.1154 2.3205 10.1792 2.28161C10.2445 2.24272 10.3021 2.21161 10.3052 2.21161C10.3098 2.21161 10.3456 2.18828 10.3861 2.15872C10.5105 2.07006 10.5587 1.98761 10.5992 1.79939C10.6552 1.5365 10.6754 1.47272 10.7049 1.44472C10.7314 1.42294 10.7672 1.41828 10.9289 1.41828C11.1156 1.41828 11.1218 1.41983 11.1467 1.45717ZM9.95361 9.70006L10.2881 10.0345L10.1434 10.1776L10.0003 10.3223L9.64717 9.96917L9.29561 9.61606L9.43406 9.47606C9.53983 9.37028 9.57717 9.34072 9.59583 9.35161C9.60983 9.35939 9.77005 9.5165 9.95361 9.70006ZM2.17428 9.95828C2.23961 10.0096 2.31117 10.0641 2.33139 10.0796C2.37339 10.1107 2.36561 10.1449 2.31583 10.1449C2.26761 10.1449 2.10894 10.2025 2.01094 10.2554C1.87717 10.3285 1.7885 10.3969 1.70139 10.4981C1.51783 10.7112 1.43072 10.9289 1.42606 11.1809L1.42294 11.3303L1.48361 11.3832C1.55828 11.4485 1.61117 11.4594 1.68894 11.4283C1.77761 11.3925 1.80406 11.3443 1.83517 11.1669C1.86472 10.9881 1.9005 10.9009 1.99072 10.7921C2.36717 10.3363 3.08272 10.5121 3.22583 11.0954C3.25694 11.2229 3.25694 11.2618 3.22583 11.3878C3.1885 11.5341 3.1325 11.6352 3.0345 11.7316C2.79494 11.9665 2.46672 12.0101 2.1805 11.8452C2.08561 11.7907 2.04517 11.7752 1.98761 11.7752C1.85539 11.7736 1.77761 11.8623 1.79317 11.9945C1.79939 12.0552 1.81183 12.0754 1.86939 12.1283C1.94872 12.1998 2.07006 12.2621 2.22094 12.3103C2.37183 12.3585 2.6985 12.3585 2.8525 12.3103C2.98161 12.2683 3.09517 12.2123 3.17917 12.1485C3.43428 11.9541 3.57894 11.7254 3.63339 11.4361C3.67539 11.2074 3.65361 11.0332 3.55406 10.7781C3.54472 10.7578 3.55094 10.7516 3.58361 10.7516C3.60539 10.7516 3.64583 10.7609 3.67383 10.7734C3.75939 10.8076 3.83094 10.8325 3.89317 10.8449C3.92583 10.8512 3.96161 10.8652 3.97094 10.8745C3.98339 10.8869 3.98961 10.9943 3.98961 11.2229V11.5527L4.0425 11.6492C4.07361 11.7067 4.12494 11.7705 4.16694 11.8047C4.20583 11.8374 4.29139 11.9136 4.35517 11.9758L4.47183 12.0878L4.44072 12.1469C4.37072 12.2854 4.25561 12.4658 4.23383 12.4736C4.22139 12.4798 4.17472 12.4721 4.13117 12.4581C4.08761 12.4441 4.03783 12.4301 4.02072 12.4254C4.00361 12.4223 3.94139 12.4005 3.88072 12.3787C3.80139 12.3492 3.74072 12.3383 3.65672 12.3383C3.55094 12.3383 3.53228 12.3429 3.41561 12.4067C2.9645 12.6478 2.90694 12.7054 2.85561 12.9605C2.83228 13.0709 2.79806 13.2172 2.77472 13.2996C2.76383 13.3354 2.69383 13.3478 2.51494 13.3432C2.31428 13.3401 2.2925 13.3307 2.27694 13.2421C2.27228 13.2109 2.25828 13.1549 2.24583 13.1176C2.23339 13.0787 2.22406 13.0258 2.22406 12.9994C2.22406 12.9201 2.16339 12.7661 2.10583 12.6976C2.05761 12.6432 1.9845 12.5949 1.68739 12.4207C1.51939 12.3227 1.37006 12.3103 1.18806 12.3787C1.12894 12.4005 1.05583 12.4254 1.02628 12.4316C0.996722 12.4394 0.942278 12.4534 0.9065 12.4643C0.8365 12.4861 0.803833 12.4721 0.775833 12.4083C0.7665 12.3912 0.7525 12.3632 0.741611 12.3461C0.638944 12.1765 0.604722 12.1049 0.618722 12.0785C0.635833 12.0474 0.777389 11.9105 0.883167 11.8249C0.971833 11.7518 1.04806 11.6336 1.06983 11.5325C1.09317 11.4267 1.09472 11.0596 1.07139 10.9507C1.04339 10.8232 0.992056 10.7516 0.814722 10.5929C0.604722 10.4078 0.596944 10.3938 0.648278 10.2927C0.6685 10.2492 0.694944 10.2041 0.705833 10.1916C0.716722 10.1792 0.7385 10.1418 0.754055 10.1092C0.799167 10.0221 0.828722 10.0003 0.889389 10.0096C0.954722 10.0205 1.06828 10.0547 1.20361 10.1045C1.36228 10.1636 1.4805 10.1605 1.61739 10.0921C1.71383 10.0438 1.79472 9.99717 1.87406 9.94583C1.89117 9.9365 1.92072 9.92094 1.93939 9.91317C1.9565 9.90383 1.97672 9.88983 1.98294 9.88206C2.00317 9.84628 2.05761 9.86806 2.17428 9.95828ZM11.0347 10.2009C11.1172 10.2818 11.1841 10.3596 11.1841 10.3736C11.1841 10.4032 10.3689 11.2183 10.3394 11.2183C10.3114 11.2183 10.0174 10.9289 10.0174 10.9009C10.0174 10.8792 10.8434 10.0516 10.8667 10.0516C10.8776 10.0516 10.9523 10.1185 11.0347 10.2009ZM11.6212 10.7874C11.6849 10.8512 11.7456 10.9134 11.7581 10.9289C11.7783 10.9538 11.7425 10.9943 11.3536 11.3832C11.1203 11.6181 10.9227 11.8094 10.9181 11.8094C10.9087 11.8094 10.6956 11.6009 10.6567 11.5543C10.6365 11.5294 10.6723 11.4889 11.0612 11.1001C11.2945 10.8652 11.4921 10.6738 11.4967 10.6738C11.5014 10.6738 11.5574 10.7252 11.6212 10.7874Z" fill="url(#paint0_linear_0_6)"/>
<path d="M6.06317 4.54959C6.00561 4.57448 5.96828 4.62893 5.92939 4.73937C5.91072 4.79071 5.88117 4.87159 5.86406 4.91826C5.84539 4.96493 5.82517 5.02093 5.81739 5.04271C5.80961 5.06448 5.78939 5.12048 5.77072 5.16715C5.75206 5.21382 5.73183 5.26982 5.72406 5.29159C5.71628 5.31337 5.69606 5.36937 5.67739 5.41604C5.65872 5.46271 5.6385 5.5187 5.63072 5.54048C5.62295 5.56226 5.60272 5.61826 5.58406 5.66493C5.56539 5.71159 5.54672 5.76448 5.54206 5.78159C5.53739 5.7987 5.51717 5.85782 5.49539 5.91382C5.45495 6.01648 5.37406 6.23426 5.35072 6.3027C5.34295 6.32448 5.32272 6.38048 5.30406 6.42715C5.28539 6.47382 5.26517 6.52982 5.25739 6.55159C5.24961 6.57337 5.22939 6.62937 5.21072 6.67604C5.19206 6.7227 5.17183 6.7787 5.16406 6.80048C5.15628 6.82226 5.13606 6.87826 5.11739 6.92493C5.10028 6.97159 5.06761 7.06337 5.04428 7.12715C5.00228 7.25004 4.98206 7.28737 4.95872 7.27959C4.95094 7.27648 4.92294 7.21426 4.89806 7.1427C4.73006 6.66048 4.6865 6.53604 4.65072 6.44271C4.63206 6.39604 4.61028 6.33537 4.60406 6.31048C4.59628 6.28404 4.56517 6.19382 4.53406 6.10826C4.5045 6.02271 4.4625 5.90293 4.44072 5.84382C4.4205 5.78315 4.3785 5.66493 4.34739 5.57937C4.31628 5.49382 4.28517 5.40204 4.27894 5.37715C4.25406 5.28382 4.20739 5.22159 4.13272 5.18426C4.05961 5.14848 4.0565 5.14848 3.98961 5.17337C3.91806 5.20137 3.87606 5.24959 3.8045 5.3927C3.79206 5.41759 3.75939 5.47826 3.73139 5.52493C3.70494 5.57159 3.66606 5.64159 3.64428 5.68048C3.62406 5.71937 3.5945 5.77071 3.57894 5.79715C3.56339 5.82204 3.5245 5.89204 3.49339 5.9527C3.46072 6.01182 3.42806 6.06782 3.42183 6.07715C3.41561 6.08493 3.38139 6.1487 3.34406 6.21715C3.23983 6.41159 3.28028 6.39604 2.90383 6.39604C2.53983 6.39604 2.49939 6.40537 2.44183 6.49715C2.39983 6.56559 2.40294 6.64026 2.44961 6.71026C2.50872 6.79737 2.54606 6.80359 3.02828 6.79737L3.45139 6.79271L3.50272 6.74293C3.53072 6.71493 3.57117 6.65893 3.59294 6.61848C3.61317 6.57804 3.6505 6.50959 3.67539 6.46604C3.70028 6.42404 3.74539 6.34315 3.7765 6.28715C3.80606 6.23115 3.85117 6.15026 3.87606 6.10826C3.90094 6.06471 3.9305 6.00871 3.94294 5.98226C3.96628 5.92937 4.00828 5.88893 4.02383 5.90293C4.0285 5.90915 4.06272 5.99937 4.0985 6.10359C4.13428 6.20937 4.17628 6.32604 4.19028 6.36493C4.20583 6.40382 4.22294 6.45515 4.23072 6.48159C4.24472 6.52826 4.32717 6.76159 4.37695 6.89382C4.3925 6.9327 4.40961 6.98404 4.41739 7.01048C4.43139 7.05715 4.51383 7.29048 4.56361 7.42271C4.57917 7.46159 4.59628 7.51293 4.60406 7.53937C4.61183 7.56426 4.63828 7.64359 4.66472 7.71515C4.69117 7.7867 4.72383 7.87693 4.73628 7.91426C4.79383 8.08693 4.84828 8.13826 4.9665 8.13826C5.0365 8.13826 5.0505 8.13204 5.10183 8.07759C5.1345 8.04493 5.16406 7.99982 5.16872 7.98115C5.17339 7.96093 5.19206 7.90493 5.21072 7.85826C5.22939 7.81159 5.24961 7.75559 5.25739 7.73382C5.26517 7.71204 5.28539 7.65604 5.30406 7.60937C5.32272 7.5627 5.34295 7.5067 5.35072 7.48493C5.3585 7.46315 5.37872 7.40715 5.39739 7.36048C5.41606 7.31382 5.43783 7.25004 5.44717 7.22048C5.45495 7.19093 5.46894 7.15982 5.47672 7.15204C5.4845 7.14271 5.49072 7.12715 5.49072 7.11471C5.49072 7.10226 5.50006 7.07115 5.5125 7.0447C5.52495 7.0167 5.54828 6.95293 5.56695 6.90159C5.58406 6.85026 5.61206 6.76937 5.63072 6.7227C5.68672 6.57493 5.71006 6.51426 5.72406 6.47382C5.73183 6.45204 5.75206 6.39604 5.77072 6.34937C5.78939 6.30271 5.80961 6.24671 5.81739 6.22493C5.82517 6.20315 5.84539 6.14715 5.86406 6.10048C5.88272 6.05382 5.9045 5.99004 5.91383 5.96048C5.92161 5.93093 5.93561 5.89982 5.94339 5.89048C5.95117 5.88271 5.95739 5.86715 5.95739 5.85782C5.95739 5.84693 5.96517 5.81893 5.97606 5.79404C5.99783 5.73959 6.07872 5.51715 6.09895 5.45493C6.10672 5.42848 6.12694 5.39115 6.1425 5.36937C6.17206 5.33204 6.17361 5.33204 6.18295 5.36159C6.18917 5.3787 6.20472 5.4207 6.21717 5.45493C6.22961 5.48915 6.24983 5.54204 6.26072 5.57159C6.27161 5.60115 6.30272 5.68204 6.33072 5.75048C6.35872 5.81893 6.38983 5.89982 6.40072 5.92937C6.41161 5.95893 6.44272 6.03982 6.47072 6.10826C6.49872 6.17671 6.52983 6.25759 6.54072 6.28715C6.55939 6.33848 6.62006 6.48937 6.68383 6.64804C6.69939 6.68848 6.73361 6.7367 6.7585 6.75693L6.80361 6.79271L7.53628 6.79737C8.33583 6.80048 8.31561 6.80359 8.37939 6.7087C8.4245 6.64337 8.42606 6.56093 8.38406 6.49248C8.3265 6.39759 8.30939 6.39604 7.64672 6.39604H7.04783L7.01672 6.35559C6.99806 6.33226 6.98406 6.30426 6.98406 6.29182C6.98406 6.27937 6.97472 6.24982 6.96228 6.22804C6.94206 6.18915 6.9265 6.15182 6.86428 5.98382C6.85028 5.94959 6.83161 5.89982 6.82072 5.87493C6.80983 5.84848 6.78961 5.80026 6.77717 5.76604C6.76472 5.73182 6.73206 5.64782 6.70406 5.57937C6.67606 5.51093 6.64494 5.43004 6.63406 5.40048C6.62317 5.37093 6.59206 5.29004 6.56406 5.22159C6.53606 5.15315 6.50495 5.0707 6.4925 5.03804C6.43495 4.88404 6.41939 4.84515 6.40072 4.80159C6.38983 4.77515 6.36806 4.72382 6.3525 4.68493C6.33694 4.64604 6.31206 4.60248 6.2965 4.58693C6.23895 4.53093 6.14094 4.51382 6.06317 4.54959Z" fill="url(#paint1_linear_0_6)"/>
<path d="M10.6801 2.43715C10.5789 2.46048 10.3969 2.53204 10.3581 2.56471C10.3456 2.57559 10.3269 2.58493 10.3192 2.58493C10.2818 2.58493 9.97072 2.89137 9.97072 2.9287C9.97072 2.93493 9.95206 2.97226 9.92872 3.01426C9.87117 3.11382 9.85094 3.17604 9.82294 3.31604C9.72339 3.82159 9.9785 4.31782 10.4529 4.54026C10.6303 4.62271 10.7329 4.64137 10.9507 4.63359C11.1576 4.62582 11.2478 4.60559 11.3956 4.53559C11.6912 4.39404 11.8934 4.15448 11.9929 3.82626C12.0412 3.66759 12.0427 3.38604 11.9961 3.23515C11.9245 3.00337 11.8249 2.84937 11.6476 2.68759C11.4081 2.46671 11.0129 2.36559 10.6801 2.43715ZM11.0969 2.84937C11.3085 2.91004 11.4578 3.03448 11.5589 3.23671C11.6087 3.33626 11.6103 3.34559 11.6118 3.52604C11.6118 3.70804 11.6103 3.71582 11.5589 3.82159C11.4547 4.03315 11.2494 4.18871 11.0316 4.21982C10.9118 4.23693 10.8994 4.22915 10.8729 4.12804C10.8621 4.08759 10.8449 4.02693 10.8341 3.99271C10.8232 3.95848 10.7998 3.88537 10.7812 3.82937C10.7641 3.77337 10.7345 3.68937 10.7174 3.64271C10.6987 3.59604 10.6785 3.54004 10.6707 3.51826C10.6474 3.44671 10.5136 3.14959 10.4669 3.06248C10.4576 3.04693 10.4561 3.02048 10.4607 3.00337C10.4716 2.97226 10.6225 2.87582 10.6863 2.86026C10.7081 2.85559 10.7501 2.8447 10.7796 2.83693C10.8698 2.81204 10.9834 2.8167 11.0969 2.84937ZM10.2507 3.57271C10.2507 3.58359 10.2601 3.61315 10.2725 3.63804C10.2849 3.66137 10.3067 3.71271 10.3207 3.75159C10.3363 3.79048 10.3581 3.84804 10.3721 3.88071C10.3876 3.92115 10.3907 3.94448 10.3798 3.95537C10.3378 3.99737 10.1885 3.65826 10.2118 3.56959C10.2212 3.53226 10.2507 3.53382 10.2507 3.57271Z" fill="url(#paint2_linear_0_6)"/>
</g>
<defs>
<linearGradient id="paint0_linear_0_6" x1="-9.31521e-10" y1="7.00136" x2="13.9996" y2="7.00136" gradientUnits="userSpaceOnUse">
<stop stop-color="#06B6D4"/>
<stop offset="1" stop-color="#10B981"/>
</linearGradient>
<linearGradient id="paint1_linear_0_6" x1="-9.31521e-10" y1="7.00136" x2="13.9996" y2="7.00136" gradientUnits="userSpaceOnUse">
<stop stop-color="#06B6D4"/>
<stop offset="1" stop-color="#10B981"/>
</linearGradient>
<linearGradient id="paint2_linear_0_6" x1="-9.31521e-10" y1="7.00136" x2="13.9996" y2="7.00136" gradientUnits="userSpaceOnUse">
<stop stop-color="#06B6D4"/>
<stop offset="1" stop-color="#10B981"/>
</linearGradient>
</defs>
</svg>
