<svg viewBox="0 0 26 14" fill="none" xmlns="http://www.w3.org/2000/svg">
<path id="Vector" d="M14.7333 9.15994C14.5754 9.15994 14.4244 9.27849 14.2812 9.5199C14.1432 9.76824 14.0625 10.0642 14.0625 10.3791C14.0625 10.406 14.0634 10.4336 14.0643 10.4605V10.457C14.6781 10.2851 14.9849 9.96755 14.9849 9.50433C14.9849 9.27503 14.9016 9.15994 14.7333 9.15994ZM17.8216 9.15302C17.5821 9.15302 17.3547 9.35608 17.1395 9.76219C16.9512 10.0849 16.8341 10.4691 16.8185 10.8801V10.8845C16.8185 10.8914 16.8176 10.9 16.8176 10.9078C16.8176 11.0169 16.8541 11.1181 16.9148 11.1986C16.9695 11.2721 17.0545 11.318 17.1526 11.318H17.156C17.3955 11.318 17.622 11.1146 17.8337 10.7071C18.0212 10.3826 18.1374 9.99581 18.1522 9.58393V9.57961C18.1531 9.57096 18.1531 9.56144 18.1531 9.55105C18.1531 9.44462 18.1192 9.34511 18.0611 9.26464C18.0073 9.19542 17.9248 9.15389 17.8311 9.15389C17.8277 9.15389 17.8251 9.15302 17.8216 9.15302ZM12.767 7.20958C12.6802 7.20958 12.5501 7.43023 12.3809 7.87066C12.1917 8.38205 12.0199 9.00246 11.8958 9.64018L11.8828 9.71892C12.1778 9.39357 12.426 9.0189 12.6126 8.61049L12.6238 8.58366C12.7852 8.26956 12.8876 7.90008 12.9076 7.50984V7.50378C12.9076 7.49772 12.9076 7.4908 12.9076 7.48388C12.9076 7.41379 12.8928 7.34803 12.8668 7.28746L12.8677 7.29092C12.8405 7.2367 12.8069 7.20958 12.767 7.20958ZM18.2424 6.54158H18.4221V7.67251H18.2424V6.54158ZM16.6779 6.54158H16.8575V7.67251H16.6762L16.6779 6.54158ZM16.0245 6.5087C16.0271 6.5087 16.0297 6.5087 16.0332 6.5087C16.1095 6.5087 16.1824 6.52601 16.2466 6.55629L16.244 6.55456C16.3404 6.59955 16.4132 6.68176 16.4462 6.78127L16.4471 6.78386C16.4592 6.82366 16.4688 6.87039 16.4722 6.91798L16.29 6.91971C16.2848 6.84789 16.2536 6.78473 16.2059 6.738C16.1599 6.69733 16.0991 6.6731 16.0323 6.6731C16.028 6.6731 16.0245 6.6731 16.021 6.6731H16.0158C15.9551 6.6731 15.8987 6.69387 15.8536 6.72762C15.8041 6.76742 15.7668 6.81934 15.7468 6.87991L15.746 6.8825C15.7225 6.95 15.7086 7.02787 15.7086 7.10921C15.7086 7.1144 15.7086 7.11959 15.7086 7.12565C15.7086 7.13084 15.7086 7.13517 15.7086 7.14123C15.7086 7.21824 15.7225 7.29265 15.7486 7.36101L15.7468 7.35668C15.7694 7.41639 15.8076 7.46571 15.8553 7.50205C15.9004 7.53493 15.9585 7.55483 16.0202 7.55483C16.0228 7.55483 16.0245 7.55483 16.0271 7.55483C16.1807 7.55483 16.2735 7.46398 16.3048 7.28227H16.4861C16.4801 7.37053 16.4549 7.45186 16.4141 7.52282L16.4158 7.52022C16.3785 7.58425 16.3247 7.63531 16.2597 7.66819C16.1946 7.70107 16.1165 7.72097 16.0349 7.72097C16.0306 7.72097 16.0271 7.72097 16.0236 7.72097C16.0202 7.72097 16.0167 7.72097 16.0123 7.72097C15.9186 7.72097 15.8301 7.69414 15.7555 7.64828C15.6791 7.59723 15.621 7.52714 15.5837 7.44494L15.5828 7.44148C15.5438 7.35322 15.5212 7.24939 15.5212 7.14123C15.5212 7.13517 15.5212 7.12998 15.5212 7.12392C15.5212 7.12046 15.5212 7.11613 15.5212 7.11181C15.5212 7.02614 15.5342 6.94394 15.5577 6.86693L15.5559 6.87299C15.5785 6.79771 15.6141 6.73194 15.66 6.67483C15.7034 6.62119 15.7564 6.57879 15.8188 6.55023L15.8214 6.54937C15.8805 6.52168 15.9499 6.5061 16.0236 6.5061H16.0288L16.0245 6.5087ZM14.9016 6.5087C14.9069 6.5087 14.9129 6.5087 14.919 6.5087C14.9936 6.5087 15.0648 6.52428 15.1299 6.5511L15.1264 6.54937C15.1863 6.5736 15.234 6.61513 15.267 6.66705C15.2973 6.7181 15.3164 6.7804 15.3164 6.84616C15.3164 6.84962 15.3164 6.85222 15.3164 6.85568L15.1255 6.85481C15.1186 6.73454 15.044 6.67397 14.8999 6.67397C14.8947 6.67397 14.8886 6.6731 14.8826 6.6731C14.8235 6.6731 14.768 6.68955 14.7212 6.71897C14.6812 6.74492 14.6578 6.78905 14.6578 6.83924V6.8453C14.6578 6.88424 14.6769 6.91971 14.7064 6.94048C14.7524 6.97163 14.8071 6.99499 14.8669 7.00537H14.8695L15.0431 7.04777C15.1368 7.06421 15.2192 7.10488 15.2869 7.16199C15.3338 7.21045 15.3624 7.27534 15.3624 7.34803C15.3624 7.35322 15.3624 7.35755 15.3624 7.36274C15.3624 7.36274 15.3624 7.3662 15.3624 7.3688C15.3624 7.43715 15.3416 7.50032 15.3051 7.55224C15.2644 7.60848 15.2088 7.65088 15.1437 7.67597L15.1411 7.67684C15.0717 7.70453 14.9919 7.72097 14.9077 7.72097C14.9034 7.72097 14.8999 7.72097 14.8956 7.72097C14.8852 7.72183 14.873 7.72183 14.8609 7.72183C14.7481 7.72183 14.6439 7.68549 14.5598 7.62406C14.4869 7.55483 14.4426 7.45792 14.4426 7.34976C14.4426 7.34457 14.4426 7.33851 14.4426 7.33332L14.6335 7.33419C14.6361 7.36793 14.6431 7.39822 14.6526 7.42764L14.6517 7.42504C14.6604 7.44754 14.6734 7.46744 14.689 7.48388C14.742 7.52801 14.8105 7.55483 14.886 7.55483C14.8947 7.55483 14.9034 7.55483 14.9121 7.55397C14.9173 7.55397 14.9225 7.55397 14.9277 7.55397C14.9928 7.55397 15.0526 7.5358 15.1047 7.50378C15.1489 7.47696 15.1758 7.43023 15.1758 7.37572V7.37139C15.1758 7.33418 15.1602 7.3013 15.1351 7.27881C15.0978 7.24939 15.0518 7.22862 15.0023 7.21997L14.8314 7.1793C14.7628 7.16286 14.7055 7.14382 14.65 7.12219L14.6595 7.12565C14.6188 7.10834 14.5841 7.08585 14.5528 7.05902C14.5259 7.03479 14.5042 7.00451 14.4903 6.97076C14.4791 6.93875 14.4721 6.89981 14.4721 6.86087C14.4721 6.85828 14.4721 6.85481 14.4721 6.85222C14.4721 6.84876 14.4721 6.84616 14.4721 6.8427C14.4721 6.74492 14.5181 6.65839 14.5901 6.60215C14.67 6.54331 14.7715 6.50697 14.88 6.50697C14.8886 6.50697 14.8973 6.50697 14.9069 6.50783L14.9016 6.5087ZM18.7639 6.23008H18.9436V6.54158H19.1301V6.68781H18.9436V7.46311C18.9418 7.47004 18.941 7.47696 18.941 7.48475C18.941 7.53061 18.9783 7.56781 19.0243 7.56781C19.0321 7.56781 19.039 7.56695 19.046 7.56522C19.0494 7.56522 19.052 7.56522 19.0564 7.56522C19.0824 7.56522 19.1076 7.56089 19.1319 7.55397L19.1301 7.70712C19.0859 7.71578 19.0355 7.72097 18.9835 7.72183C18.9783 7.72183 18.9722 7.7227 18.9661 7.7227C18.9115 7.7227 18.8603 7.70539 18.8195 7.67511C18.7848 7.64482 18.7639 7.60242 18.7639 7.5531C18.7639 7.54964 18.7639 7.54618 18.7639 7.54272V6.68954H18.6112V6.54245H18.7639V6.23008ZM18.2424 6.09769H18.4221V6.32439H18.2424V6.09769ZM17.1413 6.09769H17.3209V7.03306L17.8198 6.54072H18.0316L17.6368 6.93183L18.101 7.67165H17.8867L17.4997 7.04951L17.3218 7.22862V7.67165H17.1421L17.1413 6.09769ZM16.6779 6.09769H16.8575V6.32439H16.6762L16.6779 6.09769ZM3.35641 5.7109C3.31128 5.70917 3.25922 5.70744 3.20629 5.70744C2.31165 5.70744 1.50032 6.06048 0.903314 6.63503C0.339285 7.35582 0 8.27389 0 9.27243C0 10.6154 0.616093 11.8146 1.58102 12.6047L1.58883 12.6107C2.53639 13.399 3.76771 13.8766 5.1101 13.8766C6.01081 13.8766 6.86206 13.6612 7.61266 13.2796L7.58142 13.2943C7.92244 12.5822 8.12115 11.7454 8.12115 10.8637C8.12115 9.52077 7.66038 8.28514 6.8881 7.30563L6.89764 7.31774C5.99606 6.38237 4.75173 5.78013 3.36769 5.71177L3.35641 5.7109ZM22.018 8.87613C21.6223 9.76565 21.1381 10.5314 20.5602 11.2167L20.5723 11.202C20.5645 11.2496 20.5602 11.3041 20.5593 11.3604C20.5593 11.3673 20.5593 11.3759 20.5593 11.3837C20.5593 11.549 20.6166 11.7004 20.7129 11.8207C20.7979 11.9332 20.9298 12.0024 21.0799 12.0024C21.401 12.0024 21.8548 11.7169 22.4405 11.1518C22.4397 11.1951 22.4371 11.2384 22.4371 11.2825C22.4371 11.4406 22.4501 11.6805 22.4761 12.0024L23.271 11.8164C23.271 11.6001 23.2744 11.4305 23.2814 11.3041C23.297 11.0921 23.3222 10.9009 23.3577 10.7131L23.3525 10.7452C23.3786 10.6136 23.4367 10.4977 23.5183 10.4034L23.7187 10.1706C23.8515 10.0166 23.9851 9.8764 24.1257 9.74401L24.1283 9.74142C24.1812 9.69296 24.2385 9.6471 24.2984 9.6047L24.3036 9.60124C24.3409 9.57442 24.3869 9.55711 24.4355 9.55192C24.4953 9.55192 24.5266 9.58999 24.5266 9.66614C24.491 9.86775 24.432 10.0486 24.3522 10.2165L24.3574 10.2035C24.1951 10.5453 24.0823 10.9424 24.0415 11.3612L24.0406 11.3759C24.0398 11.3855 24.0398 11.3976 24.0398 11.4088C24.0398 11.568 24.0953 11.7143 24.189 11.8285C24.2793 11.9315 24.4103 11.9955 24.557 11.9955C24.5639 11.9955 24.5708 11.9955 24.5769 11.9955C25.1635 11.8934 25.6616 11.575 25.9957 11.1276L26 11.1216V10.7097C25.6084 11.1706 25.3249 11.4013 25.1496 11.4019C25.0316 11.4019 24.9726 11.3292 24.9726 11.1856C25.0143 10.9225 25.088 10.6863 25.1913 10.4665L25.1843 10.483C25.3388 10.1524 25.4481 9.76911 25.4924 9.36588L25.4941 9.34944C25.4941 9.34425 25.4941 9.33819 25.4941 9.33214C25.4941 9.20667 25.4481 9.09245 25.3718 9.00419C25.2997 8.92026 25.1939 8.86748 25.075 8.86748C25.0724 8.86748 25.0689 8.86748 25.0663 8.86748C24.8294 8.88651 24.6177 8.9791 24.4502 9.12101L24.452 9.11928C24.1075 9.39703 23.8012 9.69469 23.5243 10.0183L23.5165 10.0278C23.6241 9.56922 23.7491 9.17985 23.9001 8.80344L23.8801 8.85969L23.0028 9.02842C22.8432 9.35377 22.6957 9.73969 22.582 10.1403L22.5698 10.1905C22.5317 10.3315 22.4969 10.5072 22.4726 10.6863L22.47 10.7097C22.3005 10.8798 22.1235 11.0419 21.939 11.196C21.8713 11.2487 21.7845 11.2816 21.6908 11.2825C21.6882 11.2825 21.6847 11.2825 21.6821 11.2825C21.6093 11.2825 21.5442 11.2479 21.5025 11.1942C21.4591 11.1328 21.4322 11.0558 21.4322 10.9736C21.4322 10.9667 21.4322 10.9589 21.4331 10.952C21.4366 10.8187 21.4583 10.6924 21.4964 10.5721L21.4938 10.5816C21.5346 10.4414 21.624 10.1784 21.7637 9.7916L22.0978 8.87353L22.018 8.87613ZM16.8948 0.00605699C14.4877 0.123736 12.3436 1.16122 10.7929 2.77152L10.7903 2.77411C7.61352 5.94194 8.53159 11.9972 9.61019 13.0736C10.4831 13.9433 16.7612 15.0664 19.9397 11.8969C20.1613 11.6748 20.3716 11.4437 20.5723 11.202C20.6747 10.7469 20.8595 10.3454 21.1103 9.99495L21.1034 10.0053C20.935 10.0927 20.7389 10.1594 20.5333 10.194L20.5211 10.1957C20.3129 10.5487 20.0699 10.8524 19.7896 11.119L19.7879 11.1207C19.5362 11.3699 19.2672 11.6027 18.9835 11.8155L18.9635 11.8294C18.8316 11.9263 18.6685 11.9868 18.4915 11.9938C18.112 11.9938 17.9318 11.6606 17.9543 10.9944C17.7626 11.2825 17.5439 11.5317 17.2949 11.7472L17.2905 11.7506C17.1231 11.896 16.9044 11.9868 16.6649 11.9929C16.4401 11.9903 16.2432 11.8744 16.1278 11.7004L16.126 11.6978C16.0132 11.5447 15.9377 11.3578 15.9169 11.1544V11.1501C15.6852 11.3846 15.4266 11.5931 15.1472 11.7697L15.1299 11.78C14.9051 11.9142 14.6344 11.9929 14.3446 11.9929C14.3385 11.9929 14.3324 11.9929 14.3263 11.9929C14.3133 11.9938 14.2994 11.9938 14.2838 11.9938C13.9923 11.9938 13.7285 11.8744 13.5393 11.6814C13.3953 11.5308 13.2955 11.3361 13.2616 11.1207C13.0082 11.363 12.7271 11.5793 12.426 11.7671L12.4043 11.78C12.2047 11.9064 11.9626 11.9851 11.7023 11.9929C11.6962 11.9929 11.6875 11.9929 11.6806 11.9929C11.4368 11.9929 11.2198 11.877 11.0827 11.697L11.081 11.6952C10.9326 11.4919 10.8432 11.2366 10.8432 10.9615C10.8432 10.939 10.8441 10.9156 10.845 10.8931V10.8966C10.8667 10.2441 10.9847 9.62633 11.186 9.04659L11.173 9.09072C11.4038 8.33965 11.6737 7.69674 11.9973 7.08585L11.9678 7.14815L12.8807 6.81069C12.8998 6.8029 12.9223 6.79857 12.9449 6.79684C13.0134 6.79684 13.0716 6.84789 13.1158 6.94827C13.1584 7.05902 13.1827 7.18709 13.1827 7.32034C13.1827 7.33419 13.1827 7.34716 13.1818 7.36101C13.1809 7.87759 13.056 8.36301 12.8347 8.79393L12.8434 8.77576C12.5466 9.33473 12.1952 9.81583 11.7856 10.2398L11.7873 10.2381C11.7677 10.4867 11.7578 10.6575 11.7578 10.7503C11.757 10.7642 11.757 10.7798 11.757 10.7953C11.757 10.9606 11.8004 11.1155 11.8758 11.2496L11.8732 11.2453C11.9331 11.3543 12.0477 11.4279 12.1787 11.4279C12.3349 11.4218 12.4772 11.3699 12.5952 11.286L12.5926 11.2877C12.8347 11.112 13.0482 10.926 13.2443 10.7235L13.246 10.7218C13.2807 10.2441 13.4725 9.8167 13.7701 9.48529L13.7684 9.48702C14.0391 9.1262 14.46 8.88997 14.9364 8.8718H14.939C14.9502 8.87094 14.9641 8.87094 14.9771 8.87094C15.1663 8.87094 15.339 8.9367 15.4761 9.04572C15.6002 9.15042 15.6765 9.30445 15.6765 9.47837C15.6765 9.48443 15.6765 9.49048 15.6765 9.49654C15.6765 9.99206 15.1492 10.3927 14.0947 10.7002C14.1901 11.1648 14.4417 11.3984 14.8461 11.3984C15.0136 11.3984 15.1698 11.3509 15.3017 11.2695L15.2982 11.2721C15.5316 11.1103 15.7364 10.9329 15.9195 10.7374L15.9212 10.7348C15.9612 10.4388 16.0601 10.1732 16.2067 9.93957L16.2015 9.94822C16.3959 9.62806 16.651 9.36415 16.953 9.16427L16.9617 9.15821C17.189 8.98948 17.471 8.87959 17.7765 8.85796H17.7817C17.7921 8.85709 17.8034 8.85709 17.8146 8.85709C18.0862 8.85709 18.3179 9.02669 18.409 9.26551L18.4108 9.26984L19.1449 8.86574H19.3462L19.0295 9.91534C18.9115 10.232 18.8256 10.5998 18.7856 10.9814L18.7839 11.0013C18.7839 11.2064 18.8568 11.3093 19.0026 11.3093C19.1249 11.2981 19.2325 11.2436 19.3115 11.1614C19.4243 11.0621 19.5822 10.9107 19.7853 10.7071C19.9336 10.547 20.0734 10.3731 20.2 10.1896L20.2105 10.1741C20.0343 10.1187 19.9068 9.9586 19.9015 9.76911C19.9102 9.54846 19.9796 9.34512 20.0933 9.17465L20.0907 9.17898C20.1888 8.99121 20.3823 8.86574 20.6053 8.86574H20.6105C20.62 8.86401 20.6313 8.86401 20.6426 8.86401C20.7806 8.86401 20.8934 8.97564 20.8934 9.11408C20.8934 9.12793 20.8925 9.14091 20.8899 9.15389C20.8708 9.39098 20.8135 9.60816 20.7233 9.80891L20.7285 9.79593C21.1265 9.75267 21.4739 9.44924 21.7706 8.88565L22.018 8.87613C22.477 8.00998 22.746 6.98115 22.746 5.89175C22.746 4.24164 22.129 2.73518 21.112 1.58953L21.1181 1.59646C20.0942 0.608298 18.698 0 17.1586 0C17.0658 0 16.9738 0.00259578 16.8818 0.00692222L16.8948 0.00605699Z" fill="url(#paint0_linear_0_6)"/>
<defs>
<linearGradient id="paint0_linear_0_6" x1="0" y1="7" x2="26" y2="7" gradientUnits="userSpaceOnUse">
<stop stop-color="#06B6D4"/>
<stop offset="1" stop-color="#10B981"/>
</linearGradient>
</defs>
</svg>
