<svg viewBox="0 0 37.5 17.0549" fill="none" xmlns="http://www.w3.org/2000/svg">
<g id="Vector">
<mask id="path-1-inside-1_0_12" fill="white">
<path fill-rule="evenodd" clip-rule="evenodd" d="M6.10061 10.5802C6.08929 10.6528 6.06169 10.7218 6.0199 10.7822C5.9781 10.8425 5.92319 10.8927 5.85927 10.9288C5.73055 11.0119 5.61793 11.0535 5.50396 11.0951C5.26128 11.1789 5.00585 11.2627 4.73568 11.3599C4.45077 11.4571 4.19535 11.5543 3.96741 11.6247C3.68316 11.7219 3.41299 11.8057 3.15623 11.9029C2.96305 11.9856 2.7816 12.0933 2.61656 12.2233C2.46306 12.3624 2.32911 12.5216 2.21834 12.6966C2.10438 12.8911 2.03264 13.1418 2.03264 13.4341C2.03264 14.0193 2.17477 14.4645 2.45969 14.7427C2.74394 15.0357 3.27087 15.1744 4.05188 15.1744C4.84831 15.1744 5.38865 15.0216 5.67424 14.7152C5.95782 14.4088 6.09994 13.9778 6.09994 13.4213V10.5802H6.10061ZM4.05255 4.41255C5.44698 4.41255 6.47067 4.67736 7.12431 5.22038C7.77862 5.75 8.10577 6.43112 8.10577 7.23828V14.1165C8.10577 14.3948 8.04946 14.7011 7.95024 15.035C7.84968 15.3702 7.65124 15.6759 7.33817 15.9534C7.03984 16.233 6.62755 16.4696 6.10128 16.6507C5.57502 16.8317 4.89256 16.9289 4.05322 16.9289C3.21522 16.9289 2.53142 16.8317 2.00583 16.6507C1.48024 16.4696 1.06727 16.233 0.768945 15.9534C0.491422 15.7033 0.281185 15.3875 0.157543 15.035C0.0569837 14.7018 0 14.3954 0 14.1172V13.0178C0 12.4325 0.156203 11.8895 0.469278 11.4155C0.782353 10.9288 1.2228 10.595 1.79197 10.3858C2.07622 10.2886 2.40337 10.1914 2.77276 10.066C3.14282 9.93998 3.48338 9.81461 3.82529 9.704C4.16719 9.59204 4.46551 9.48008 4.72094 9.38221C4.87508 9.32053 5.03163 9.26507 5.19021 9.21595L5.44631 9.09058C5.54687 9.03494 5.64541 8.95114 5.7453 8.83986C5.84452 8.72924 5.92966 8.60387 6.00139 8.46443C6.07718 8.31344 6.11623 8.14667 6.11536 7.97772V7.53191C6.11641 7.36852 6.08211 7.20683 6.0148 7.05794C5.95849 6.89034 5.84452 6.73749 5.68832 6.59872C5.53212 6.45928 5.31826 6.34799 5.06284 6.26352C4.80675 6.18106 4.46619 6.13883 4.08138 6.13883C3.28495 6.13883 2.75868 6.29302 2.47444 6.61213C2.23309 6.89101 2.09097 7.23895 2.06281 7.62845C2.06281 7.71225 1.99175 7.76789 1.90594 7.76789L0.171622 7.79605C0.130424 7.79623 0.0908239 7.78012 0.0614427 7.75125C0.0320615 7.72237 0.0152788 7.68305 0.0147487 7.64186V7.23962C0.0147487 6.84878 0.0864812 6.48676 0.242684 6.13883C0.399557 5.79022 0.64157 5.4986 0.968053 5.2472C1.29521 4.99714 1.72225 4.78865 2.23376 4.6492C2.73187 4.4816 3.34327 4.41255 4.05389 4.41255H4.05255ZM35.4942 10.5802C35.4828 10.6528 35.4553 10.7218 35.4135 10.7822C35.3717 10.8425 35.3167 10.8927 35.2528 10.9288C35.1255 11.0119 35.0115 11.0535 34.8975 11.0951C34.6562 11.1789 34.3994 11.2627 34.1292 11.3599C33.8443 11.4571 33.5882 11.5543 33.361 11.6247C33.076 11.7219 32.8059 11.8057 32.5498 11.9029C32.3564 11.9855 32.1747 12.0933 32.0094 12.2233C31.8562 12.3625 31.7225 12.5217 31.6119 12.6966C31.4979 12.8911 31.4269 13.1418 31.4269 13.4341C31.4269 14.0193 31.5677 14.4645 31.8526 14.7427C32.1368 15.0357 32.6638 15.1744 33.4454 15.1744C34.2432 15.1744 34.7829 15.0216 35.0678 14.7152C35.3514 14.4088 35.4935 13.9778 35.4935 13.4213L35.4942 10.5802ZM33.4468 4.41255C34.8412 4.41255 35.8649 4.67736 36.5192 5.22038C37.1728 5.75 37.5 6.43112 37.5 7.23828V14.1165C37.5 14.3948 37.4437 14.7011 37.3438 15.035C37.2446 15.3702 37.0455 15.6759 36.7324 15.9534C36.4341 16.233 36.0218 16.4696 35.4955 16.6507C34.9699 16.8317 34.2868 16.9289 33.4481 16.9289C32.6101 16.9289 31.9263 16.8317 31.4007 16.6507C30.8751 16.4696 30.4622 16.233 30.1638 15.9534C29.8868 15.7032 29.677 15.3874 29.5538 15.035C29.4532 14.7011 29.3962 14.3948 29.3962 14.1165V13.0171C29.3962 12.4318 29.5531 11.8888 29.8655 11.4148C30.1786 10.9281 30.6197 10.5943 31.1882 10.3851C31.4725 10.2879 31.7996 10.1907 32.1697 10.0653C32.5384 9.93931 32.8803 9.81394 33.2222 9.70333C33.5641 9.59137 33.8618 9.47941 34.1178 9.38154C34.272 9.31986 34.4285 9.2644 34.5871 9.21528L34.8432 9.08991C34.9424 9.03427 35.0423 8.95047 35.1415 8.83918C35.2433 8.72605 35.3294 8.59978 35.3976 8.46376C35.4734 8.31277 35.5125 8.146 35.5116 7.97705V7.53124C35.5127 7.36785 35.4783 7.20616 35.411 7.05727C35.3547 6.88967 35.2414 6.73682 35.0846 6.59805C34.9284 6.4586 34.7158 6.34732 34.4591 6.26285C34.203 6.18039 33.8624 6.13815 33.4776 6.13815C32.6812 6.13815 32.1556 6.29235 31.8707 6.61145C31.6293 6.89034 31.4872 7.23828 31.4584 7.62778C31.4584 7.71158 31.388 7.76722 31.3029 7.76722H29.5779C29.5372 7.76705 29.4981 7.75098 29.4691 7.72243C29.44 7.69387 29.4233 7.6551 29.4224 7.61437V7.21012C29.4224 6.82129 29.4934 6.45928 29.6503 6.11067C29.8065 5.7634 30.0479 5.47044 30.3743 5.22038C30.7028 4.96965 31.1285 4.76049 31.6414 4.62172C32.1241 4.48093 32.7355 4.41255 33.4468 4.41255ZM27.3462 4.4682H28.4845C28.5837 4.4682 28.6548 4.56607 28.6266 4.66261L28.2425 6.11067C28.2291 6.18106 28.1573 6.22263 28.1004 6.22263H27.3039C26.8776 6.22263 26.5363 6.27827 26.2662 6.39022C26.0094 6.50084 25.7969 6.6262 25.6541 6.77905C25.512 6.93325 25.4261 7.08543 25.3839 7.23895C25.3456 7.38901 25.3265 7.54331 25.3269 7.69817V16.6507C25.3261 16.6917 25.309 16.7308 25.2795 16.7594C25.25 16.788 25.2105 16.8039 25.1694 16.8035H23.4639C23.423 16.8035 23.3838 16.7875 23.3546 16.7589C23.3254 16.7304 23.3086 16.6915 23.3077 16.6507V7.29392C23.3077 7.12766 23.3359 6.87693 23.4069 6.55648C23.4639 6.2367 23.6348 5.93033 23.905 5.60988C24.1752 5.30351 24.5734 5.0253 25.1137 4.80272C25.6548 4.57881 26.3942 4.4682 27.3462 4.4682ZM21.6009 13.8102V14.2278C21.6009 14.4088 21.574 14.6596 21.5023 14.98C21.4453 15.2857 21.2744 15.6062 21.0042 15.9119C20.734 16.2189 20.3358 16.4971 19.7955 16.7197C19.2551 16.9429 18.515 17.0549 17.5631 17.0549C16.6111 17.0549 15.871 16.9429 15.3306 16.7197C14.7903 16.4971 14.3921 16.233 14.1219 15.9125C13.8517 15.6068 13.6808 15.2864 13.6238 14.9673C13.5675 14.6455 13.5253 14.4095 13.5253 14.2285V4.85837C13.5253 4.77457 13.5963 4.70418 13.6815 4.70418H15.3735C15.4594 4.70418 15.5304 4.77457 15.5304 4.85837V13.6292C15.5304 13.9215 15.5727 14.1306 15.6156 14.2976C15.6591 14.4652 15.7443 14.6314 15.8723 14.7709C15.9997 14.9237 16.1995 15.0491 16.469 15.1463C16.7251 15.2442 17.081 15.3005 17.5215 15.3005C17.9774 15.3005 18.3461 15.2442 18.6169 15.1463C18.8871 15.0491 19.0862 14.9237 19.2283 14.7843C19.3691 14.6455 19.4697 14.4926 19.5119 14.325C19.5548 14.1574 19.6125 14.0193 19.6125 13.6144V4.84496C19.6125 4.76183 19.6829 4.69211 19.768 4.69211H21.4601C21.5446 4.69211 21.6156 4.76183 21.6156 4.8463V13.8115H21.6022L21.6009 13.8102ZM9.9554 0H11.6481C11.7333 0 11.8044 0.0690509 11.8044 0.15218V16.7338C11.8038 16.7749 11.7871 16.8141 11.7579 16.8429C11.7287 16.8718 11.6892 16.888 11.6481 16.888H9.9554C9.91432 16.888 9.87489 16.8718 9.84565 16.8429C9.81641 16.8141 9.79972 16.7749 9.79919 16.7338V0.15218C9.8126 0.0690509 9.87026 0 9.9554 0Z"/>
</mask>
<path fill-rule="evenodd" clip-rule="evenodd" d="M6.10061 10.5802C6.08929 10.6528 6.06169 10.7218 6.0199 10.7822C5.9781 10.8425 5.92319 10.8927 5.85927 10.9288C5.73055 11.0119 5.61793 11.0535 5.50396 11.0951C5.26128 11.1789 5.00585 11.2627 4.73568 11.3599C4.45077 11.4571 4.19535 11.5543 3.96741 11.6247C3.68316 11.7219 3.41299 11.8057 3.15623 11.9029C2.96305 11.9856 2.7816 12.0933 2.61656 12.2233C2.46306 12.3624 2.32911 12.5216 2.21834 12.6966C2.10438 12.8911 2.03264 13.1418 2.03264 13.4341C2.03264 14.0193 2.17477 14.4645 2.45969 14.7427C2.74394 15.0357 3.27087 15.1744 4.05188 15.1744C4.84831 15.1744 5.38865 15.0216 5.67424 14.7152C5.95782 14.4088 6.09994 13.9778 6.09994 13.4213V10.5802H6.10061ZM4.05255 4.41255C5.44698 4.41255 6.47067 4.67736 7.12431 5.22038C7.77862 5.75 8.10577 6.43112 8.10577 7.23828V14.1165C8.10577 14.3948 8.04946 14.7011 7.95024 15.035C7.84968 15.3702 7.65124 15.6759 7.33817 15.9534C7.03984 16.233 6.62755 16.4696 6.10128 16.6507C5.57502 16.8317 4.89256 16.9289 4.05322 16.9289C3.21522 16.9289 2.53142 16.8317 2.00583 16.6507C1.48024 16.4696 1.06727 16.233 0.768945 15.9534C0.491422 15.7033 0.281185 15.3875 0.157543 15.035C0.0569837 14.7018 0 14.3954 0 14.1172V13.0178C0 12.4325 0.156203 11.8895 0.469278 11.4155C0.782353 10.9288 1.2228 10.595 1.79197 10.3858C2.07622 10.2886 2.40337 10.1914 2.77276 10.066C3.14282 9.93998 3.48338 9.81461 3.82529 9.704C4.16719 9.59204 4.46551 9.48008 4.72094 9.38221C4.87508 9.32053 5.03163 9.26507 5.19021 9.21595L5.44631 9.09058C5.54687 9.03494 5.64541 8.95114 5.7453 8.83986C5.84452 8.72924 5.92966 8.60387 6.00139 8.46443C6.07718 8.31344 6.11623 8.14667 6.11536 7.97772V7.53191C6.11641 7.36852 6.08211 7.20683 6.0148 7.05794C5.95849 6.89034 5.84452 6.73749 5.68832 6.59872C5.53212 6.45928 5.31826 6.34799 5.06284 6.26352C4.80675 6.18106 4.46619 6.13883 4.08138 6.13883C3.28495 6.13883 2.75868 6.29302 2.47444 6.61213C2.23309 6.89101 2.09097 7.23895 2.06281 7.62845C2.06281 7.71225 1.99175 7.76789 1.90594 7.76789L0.171622 7.79605C0.130424 7.79623 0.0908239 7.78012 0.0614427 7.75125C0.0320615 7.72237 0.0152788 7.68305 0.0147487 7.64186V7.23962C0.0147487 6.84878 0.0864812 6.48676 0.242684 6.13883C0.399557 5.79022 0.64157 5.4986 0.968053 5.2472C1.29521 4.99714 1.72225 4.78865 2.23376 4.6492C2.73187 4.4816 3.34327 4.41255 4.05389 4.41255H4.05255ZM35.4942 10.5802C35.4828 10.6528 35.4553 10.7218 35.4135 10.7822C35.3717 10.8425 35.3167 10.8927 35.2528 10.9288C35.1255 11.0119 35.0115 11.0535 34.8975 11.0951C34.6562 11.1789 34.3994 11.2627 34.1292 11.3599C33.8443 11.4571 33.5882 11.5543 33.361 11.6247C33.076 11.7219 32.8059 11.8057 32.5498 11.9029C32.3564 11.9855 32.1747 12.0933 32.0094 12.2233C31.8562 12.3625 31.7225 12.5217 31.6119 12.6966C31.4979 12.8911 31.4269 13.1418 31.4269 13.4341C31.4269 14.0193 31.5677 14.4645 31.8526 14.7427C32.1368 15.0357 32.6638 15.1744 33.4454 15.1744C34.2432 15.1744 34.7829 15.0216 35.0678 14.7152C35.3514 14.4088 35.4935 13.9778 35.4935 13.4213L35.4942 10.5802ZM33.4468 4.41255C34.8412 4.41255 35.8649 4.67736 36.5192 5.22038C37.1728 5.75 37.5 6.43112 37.5 7.23828V14.1165C37.5 14.3948 37.4437 14.7011 37.3438 15.035C37.2446 15.3702 37.0455 15.6759 36.7324 15.9534C36.4341 16.233 36.0218 16.4696 35.4955 16.6507C34.9699 16.8317 34.2868 16.9289 33.4481 16.9289C32.6101 16.9289 31.9263 16.8317 31.4007 16.6507C30.8751 16.4696 30.4622 16.233 30.1638 15.9534C29.8868 15.7032 29.677 15.3874 29.5538 15.035C29.4532 14.7011 29.3962 14.3948 29.3962 14.1165V13.0171C29.3962 12.4318 29.5531 11.8888 29.8655 11.4148C30.1786 10.9281 30.6197 10.5943 31.1882 10.3851C31.4725 10.2879 31.7996 10.1907 32.1697 10.0653C32.5384 9.93931 32.8803 9.81394 33.2222 9.70333C33.5641 9.59137 33.8618 9.47941 34.1178 9.38154C34.272 9.31986 34.4285 9.2644 34.5871 9.21528L34.8432 9.08991C34.9424 9.03427 35.0423 8.95047 35.1415 8.83918C35.2433 8.72605 35.3294 8.59978 35.3976 8.46376C35.4734 8.31277 35.5125 8.146 35.5116 7.97705V7.53124C35.5127 7.36785 35.4783 7.20616 35.411 7.05727C35.3547 6.88967 35.2414 6.73682 35.0846 6.59805C34.9284 6.4586 34.7158 6.34732 34.4591 6.26285C34.203 6.18039 33.8624 6.13815 33.4776 6.13815C32.6812 6.13815 32.1556 6.29235 31.8707 6.61145C31.6293 6.89034 31.4872 7.23828 31.4584 7.62778C31.4584 7.71158 31.388 7.76722 31.3029 7.76722H29.5779C29.5372 7.76705 29.4981 7.75098 29.4691 7.72243C29.44 7.69387 29.4233 7.6551 29.4224 7.61437V7.21012C29.4224 6.82129 29.4934 6.45928 29.6503 6.11067C29.8065 5.7634 30.0479 5.47044 30.3743 5.22038C30.7028 4.96965 31.1285 4.76049 31.6414 4.62172C32.1241 4.48093 32.7355 4.41255 33.4468 4.41255ZM27.3462 4.4682H28.4845C28.5837 4.4682 28.6548 4.56607 28.6266 4.66261L28.2425 6.11067C28.2291 6.18106 28.1573 6.22263 28.1004 6.22263H27.3039C26.8776 6.22263 26.5363 6.27827 26.2662 6.39022C26.0094 6.50084 25.7969 6.6262 25.6541 6.77905C25.512 6.93325 25.4261 7.08543 25.3839 7.23895C25.3456 7.38901 25.3265 7.54331 25.3269 7.69817V16.6507C25.3261 16.6917 25.309 16.7308 25.2795 16.7594C25.25 16.788 25.2105 16.8039 25.1694 16.8035H23.4639C23.423 16.8035 23.3838 16.7875 23.3546 16.7589C23.3254 16.7304 23.3086 16.6915 23.3077 16.6507V7.29392C23.3077 7.12766 23.3359 6.87693 23.4069 6.55648C23.4639 6.2367 23.6348 5.93033 23.905 5.60988C24.1752 5.30351 24.5734 5.0253 25.1137 4.80272C25.6548 4.57881 26.3942 4.4682 27.3462 4.4682ZM21.6009 13.8102V14.2278C21.6009 14.4088 21.574 14.6596 21.5023 14.98C21.4453 15.2857 21.2744 15.6062 21.0042 15.9119C20.734 16.2189 20.3358 16.4971 19.7955 16.7197C19.2551 16.9429 18.515 17.0549 17.5631 17.0549C16.6111 17.0549 15.871 16.9429 15.3306 16.7197C14.7903 16.4971 14.3921 16.233 14.1219 15.9125C13.8517 15.6068 13.6808 15.2864 13.6238 14.9673C13.5675 14.6455 13.5253 14.4095 13.5253 14.2285V4.85837C13.5253 4.77457 13.5963 4.70418 13.6815 4.70418H15.3735C15.4594 4.70418 15.5304 4.77457 15.5304 4.85837V13.6292C15.5304 13.9215 15.5727 14.1306 15.6156 14.2976C15.6591 14.4652 15.7443 14.6314 15.8723 14.7709C15.9997 14.9237 16.1995 15.0491 16.469 15.1463C16.7251 15.2442 17.081 15.3005 17.5215 15.3005C17.9774 15.3005 18.3461 15.2442 18.6169 15.1463C18.8871 15.0491 19.0862 14.9237 19.2283 14.7843C19.3691 14.6455 19.4697 14.4926 19.5119 14.325C19.5548 14.1574 19.6125 14.0193 19.6125 13.6144V4.84496C19.6125 4.76183 19.6829 4.69211 19.768 4.69211H21.4601C21.5446 4.69211 21.6156 4.76183 21.6156 4.8463V13.8115H21.6022L21.6009 13.8102ZM9.9554 0H11.6481C11.7333 0 11.8044 0.0690509 11.8044 0.15218V16.7338C11.8038 16.7749 11.7871 16.8141 11.7579 16.8429C11.7287 16.8718 11.6892 16.888 11.6481 16.888H9.9554C9.91432 16.888 9.87489 16.8718 9.84565 16.8429C9.81641 16.8141 9.79972 16.7749 9.79919 16.7338V0.15218C9.8126 0.0690509 9.87026 0 9.9554 0Z" fill="white" stroke="#334155" stroke-width="2" mask="url(#path-1-inside-1_0_12)"/>
</g>
</svg>
