<svg viewBox="0 0 32 32" fill="none" xmlns="http://www.w3.org/2000/svg">
<g id="aws-svgrepo-com 1">
<path id="Vector" d="M9.02 15.374C9.02 15.768 9.06 16.088 9.136 16.324C9.22 16.558 9.328 16.814 9.476 17.092C9.52323 17.1654 9.54887 17.2507 9.55 17.338C9.55 17.444 9.486 17.552 9.35 17.658L8.678 18.106C8.59733 18.1642 8.5014 18.1976 8.402 18.202C8.294 18.202 8.188 18.15 8.082 18.054C7.93825 17.8993 7.80966 17.7312 7.698 17.552C7.57902 17.3468 7.46892 17.1366 7.368 16.922C6.538 17.904 5.496 18.396 4.24 18.396C3.346 18.396 2.632 18.138 2.112 17.626C1.59 17.114 1.324 16.43 1.324 15.576C1.324 14.668 1.644 13.932 2.292 13.376C2.942 12.82 3.804 12.544 4.9 12.544C5.26 12.544 5.634 12.576 6.028 12.628C6.422 12.682 6.828 12.768 7.252 12.864V12.084C7.252 11.272 7.082 10.706 6.752 10.376C6.412 10.044 5.836 9.884 5.016 9.884C4.644 9.884 4.262 9.928 3.868 10.024C3.47655 10.1172 3.09224 10.2381 2.718 10.386C2.59718 10.4407 2.47291 10.4875 2.346 10.526C2.29101 10.5442 2.23384 10.5549 2.176 10.558C2.026 10.558 1.952 10.45 1.952 10.226V9.702C1.952 9.532 1.972 9.402 2.026 9.33C2.10659 9.23187 2.20944 9.15439 2.326 9.104C2.696 8.912 3.144 8.752 3.666 8.624C4.186 8.484 4.74 8.422 5.326 8.422C6.592 8.422 7.518 8.71 8.114 9.286C8.7 9.862 8.998 10.738 8.998 11.914V15.374H9.018H9.02ZM4.698 16.996C5.048 16.996 5.41 16.932 5.794 16.804C6.176 16.676 6.518 16.44 6.804 16.12C6.9755 15.9235 7.09937 15.6901 7.166 15.438C7.23 15.18 7.274 14.872 7.274 14.508V14.06C6.95097 13.9817 6.62379 13.9216 6.294 13.88C5.96238 13.8371 5.62839 13.8151 5.294 13.814C4.58 13.814 4.058 13.954 3.708 14.242C3.356 14.53 3.188 14.936 3.188 15.47C3.188 15.97 3.314 16.344 3.58 16.602C3.836 16.868 4.208 16.996 4.698 16.996ZM13.244 18.15C13.052 18.15 12.924 18.118 12.84 18.042C12.754 17.978 12.68 17.83 12.616 17.626L10.116 9.372C10.0667 9.23366 10.0338 9.09001 10.018 8.944C10.018 8.774 10.104 8.678 10.274 8.678H11.318C11.518 8.678 11.658 8.71 11.732 8.784C11.818 8.848 11.882 8.998 11.946 9.2L13.734 16.27L15.394 9.2C15.446 8.988 15.51 8.848 15.594 8.784C15.7223 8.70539 15.8718 8.66837 16.022 8.678H16.872C17.076 8.678 17.212 8.71 17.298 8.784C17.384 8.848 17.458 8.998 17.5 9.2L19.182 16.356L21.022 9.2C21.0561 9.04515 21.1299 8.90181 21.236 8.784C21.3599 8.70546 21.5056 8.66834 21.652 8.678H22.642C22.812 8.678 22.908 8.764 22.908 8.944C22.908 8.998 22.896 9.052 22.888 9.116C22.8708 9.20679 22.8454 9.29583 22.812 9.382L20.246 17.636C20.182 17.85 20.108 17.99 20.024 18.054C19.9032 18.1313 19.7611 18.1683 19.618 18.16H18.704C18.502 18.16 18.364 18.128 18.278 18.054C18.192 17.978 18.118 17.84 18.076 17.626L16.426 10.74L14.786 17.618C14.734 17.832 14.67 17.97 14.586 18.044C14.5 18.12 14.35 18.152 14.16 18.152H13.244V18.15ZM26.92 18.438C26.3677 18.4387 25.8172 18.3743 25.28 18.246C24.748 18.118 24.334 17.978 24.056 17.818C23.886 17.722 23.77 17.616 23.726 17.518C23.6853 17.4239 23.6643 17.3225 23.664 17.22V16.676C23.664 16.452 23.748 16.344 23.908 16.344C23.9733 16.3441 24.0382 16.355 24.1 16.376C24.164 16.398 24.26 16.44 24.366 16.484C24.726 16.644 25.122 16.772 25.536 16.858C25.962 16.942 26.376 16.986 26.802 16.986C27.474 16.986 27.994 16.868 28.356 16.634C28.5299 16.5287 28.6728 16.3792 28.7701 16.2008C28.8674 16.0223 28.9157 15.8212 28.91 15.618C28.9136 15.4808 28.89 15.3442 28.8406 15.2162C28.7911 15.0882 28.7169 14.9712 28.622 14.872C28.432 14.668 28.07 14.486 27.548 14.316L26.004 13.836C25.228 13.59 24.652 13.226 24.302 12.746C23.9594 12.3025 23.7724 11.7584 23.77 11.198C23.77 10.75 23.866 10.354 24.056 10.012C24.248 9.672 24.504 9.372 24.824 9.136C25.144 8.892 25.504 8.71 25.93 8.582C26.356 8.454 26.802 8.4 27.27 8.4C27.506 8.4 27.75 8.41 27.984 8.442C28.228 8.474 28.452 8.518 28.676 8.562C28.888 8.614 29.092 8.666 29.282 8.732C29.474 8.796 29.622 8.86 29.73 8.924C29.8556 8.98706 29.9651 9.07806 30.05 9.19C30.1185 9.29413 30.1514 9.4176 30.144 9.542V10.044C30.144 10.268 30.06 10.386 29.9 10.386C29.7583 10.3698 29.6211 10.3264 29.496 10.258C28.8529 9.97285 28.1554 9.8309 27.452 9.842C26.846 9.842 26.366 9.938 26.036 10.142C25.706 10.342 25.536 10.654 25.536 11.092C25.536 11.39 25.642 11.646 25.856 11.85C26.068 12.052 26.462 12.254 27.026 12.436L28.538 12.916C29.304 13.162 29.858 13.504 30.188 13.942C30.518 14.38 30.676 14.882 30.676 15.438C30.676 15.898 30.582 16.312 30.4 16.676C30.2116 17.0412 29.9469 17.3618 29.624 17.616C29.294 17.882 28.9 18.076 28.442 18.214C27.962 18.364 27.462 18.438 26.92 18.438Z" fill="#252F3E"/>
<g id="Group">
<path id="Vector_2" fill-rule="evenodd" clip-rule="evenodd" d="M28.93 23.626C25.43 26.22 20.342 27.598 15.968 27.598C9.838 27.598 4.314 25.324 0.142 21.544C-0.188 21.244 0.11 20.838 0.502 21.074C5.016 23.7 10.582 25.292 16.342 25.292C20.224 25.292 24.492 24.48 28.42 22.814C29.006 22.548 29.506 23.198 28.93 23.626Z" fill="#FF9900"/>
<path id="Vector_3" fill-rule="evenodd" clip-rule="evenodd" d="M30.388 21.96C29.942 21.386 27.43 21.684 26.292 21.822C25.952 21.866 25.898 21.566 26.206 21.342C28.206 19.932 31.496 20.338 31.878 20.808C32.262 21.288 31.772 24.588 29.898 26.168C29.612 26.414 29.336 26.288 29.462 25.968C29.888 24.908 30.836 22.528 30.388 21.962V21.96Z" fill="#FF9900"/>
</g>
</g>
</svg>
