<svg viewBox="0 0 25.5911 36.7983" fill="none" xmlns="http://www.w3.org/2000/svg">
<g id="Group" transform="scale(1,-1) translate(0,-36.7983)">
<path id="Vector" d="M8.76562 36.752C8.25007 36.6667 7.7914 36.3288 7.56385 35.87C7.22251 35.18 7.35051 34.4082 7.89096 33.8854C8.07229 33.7075 8.16118 33.6542 8.51318 33.4906C8.68029 33.4088 9.43407 33.423 9.65451 33.5084C9.99229 33.64 10.3087 33.8996 10.5043 34.2055C10.7283 34.5505 10.7923 35.2049 10.6536 35.6459C10.4758 36.1972 9.94607 36.6453 9.33807 36.752C9.17807 36.7805 9.04296 36.7983 9.03229 36.7983C9.02162 36.7947 8.90073 36.7769 8.76562 36.752Z" fill="#CA2027"/>
<path id="Vector_2" d="M11.3434 36.5529C11.2758 36.4853 11.2723 36.4355 11.2723 35.1018C11.2723 33.9103 11.2794 33.7111 11.3292 33.6435L11.3825 33.5653H12.7976C14.1238 33.5653 14.2163 33.5688 14.2696 33.6293C14.323 33.6898 14.3301 33.8427 14.3301 35.0911V36.4889L14.2518 36.5564C14.1736 36.6169 14.0883 36.6205 12.7941 36.624C11.4607 36.624 11.411 36.6205 11.3434 36.5529Z" fill="#349A46"/>
<path id="Vector_3" d="M15.1123 36.5458C15.0447 36.4711 15.0412 36.4284 15.0412 35.1053C15.0412 33.9103 15.0483 33.7289 15.0981 33.6542L15.155 33.5653H16.5736H17.9887L18.0421 33.6435C18.0918 33.7111 18.099 33.9103 18.099 35.1018C18.099 36.4355 18.0954 36.4853 18.0278 36.5529C17.9603 36.6205 17.9105 36.624 16.5701 36.624C15.1905 36.624 15.187 36.624 15.1123 36.5458Z" fill="#349A46"/>
<path id="Vector_4" d="M7.7274 32.8646C7.68473 32.8575 7.60651 32.8006 7.55673 32.7437L7.46785 32.6334V31.3388C7.46785 29.9766 7.47851 29.8735 7.62785 29.8166C7.7274 29.781 10.3834 29.7917 10.4545 29.8308C10.5825 29.8984 10.5967 30.0513 10.5967 31.3637V32.6406L10.4936 32.7544L10.3905 32.8717L9.09629 32.8753C8.38518 32.8788 7.77007 32.8753 7.7274 32.8646Z" fill="#349A46"/>
<path id="Vector_5" d="M11.5034 32.8646C11.4643 32.854 11.3967 32.8148 11.3541 32.7722L11.2723 32.701V31.3175C11.2723 29.9837 11.2758 29.9339 11.3434 29.8664C11.411 29.7988 11.4607 29.7952 12.7941 29.7952C13.9852 29.7952 14.1843 29.8023 14.2518 29.8521L14.3301 29.9055V31.3175L14.3265 32.7295L14.2305 32.8006C14.1381 32.8682 14.0741 32.8717 12.8545 32.8788C12.1505 32.8824 11.5425 32.8753 11.5034 32.8646Z" fill="#349A46"/>
<path id="Vector_6" d="M7.62429 29.0412C7.47496 28.9701 7.46785 28.8883 7.46785 27.551C7.46785 26.1639 7.47496 26.1176 7.6634 26.0323C7.80918 25.9647 10.2838 25.9718 10.4154 26.0394C10.5896 26.1319 10.5967 26.1817 10.5967 27.5581C10.5967 28.9381 10.5861 29.0128 10.4118 29.0626C10.2696 29.0981 7.70607 29.0839 7.62429 29.0412Z" fill="#349A46"/>
<path id="Vector_7" d="M11.3967 29.0412C11.3576 29.0199 11.315 28.9843 11.3007 28.963C11.2865 28.9416 11.2723 28.305 11.2723 27.5474C11.2723 26.1781 11.2723 26.171 11.3505 26.0999C11.3932 26.0572 11.475 26.0181 11.5354 26.0074C11.5958 25.9967 12.2074 25.9896 12.8901 25.9967C14.035 26.0074 14.1416 26.0109 14.2341 26.075L14.3301 26.139V27.5367V28.9381L14.2376 29.0092C14.1452 29.0803 14.1061 29.0839 12.8047 29.0839C11.8767 29.0803 11.4465 29.0697 11.3967 29.0412Z" fill="#349A46"/>
<path id="Vector_8" d="M15.1336 29.0092L15.0412 28.9381V27.5616C15.0412 26.8041 15.0554 26.1674 15.0696 26.1461C15.0838 26.1283 15.1336 26.0821 15.1834 26.0501C15.2616 25.9967 15.4074 25.9896 16.563 25.9896C17.9176 25.9896 18.0207 26.0003 18.0776 26.1497C18.1096 26.2315 18.1025 28.9167 18.0705 28.963C17.9958 29.0732 17.8785 29.0839 16.5594 29.0839C15.2652 29.0839 15.2261 29.0803 15.1336 29.0092Z" fill="#349A46"/>
<path id="Vector_9" d="M7.64207 25.2889C7.61362 25.2818 7.56029 25.2285 7.52829 25.1751C7.47496 25.0827 7.46785 24.9297 7.46785 23.7774C7.46785 22.6214 7.47496 22.4756 7.52829 22.3974C7.56029 22.3476 7.60651 22.2978 7.62429 22.2836C7.64562 22.2693 8.27851 22.2551 9.03229 22.2551C9.78607 22.2551 10.419 22.2693 10.4403 22.2836C10.4581 22.2978 10.5043 22.3476 10.5363 22.3974C10.5896 22.4756 10.5967 22.6214 10.5967 23.7774C10.5967 24.9226 10.5896 25.0827 10.5363 25.1716C10.5043 25.2285 10.4438 25.2818 10.4047 25.2925C10.3194 25.3174 7.7274 25.3138 7.64207 25.2889Z" fill="#349A46"/>
<path id="Vector_10" d="M11.3647 25.2391L11.2723 25.168V23.7845C11.2723 22.4045 11.2723 22.4009 11.3505 22.3262C11.4252 22.2587 11.4678 22.2551 12.7905 22.2551C13.9852 22.2551 14.1665 22.2622 14.2412 22.312L14.3301 22.3689V23.7738V25.1787L14.2518 25.2463C14.1736 25.3067 14.0883 25.3103 12.8154 25.3138C11.4963 25.3138 11.4572 25.3103 11.3647 25.2391Z" fill="#349A46"/>
<path id="Vector_11" d="M6.94162 20.0002C6.52207 19.8615 6.35496 19.6267 6.3514 19.175C6.3514 18.9403 6.36562 18.8656 6.43318 18.7589C6.55762 18.5597 6.76385 18.3997 7.16207 18.2076C7.5674 18.0085 7.63851 17.9444 7.67051 17.7666C7.68473 17.6635 7.67051 17.6208 7.58518 17.5248C7.48207 17.4109 7.4714 17.4074 7.20829 17.4074C6.96296 17.4109 6.68207 17.4714 6.50073 17.5639C6.46518 17.5817 6.40473 17.5959 6.36562 17.5959C6.30162 17.5959 6.29451 17.571 6.29451 17.3327C6.29451 17.1655 6.31229 17.0588 6.34073 17.0375C6.54696 16.8703 7.39673 16.8134 7.71673 16.9379C8.12562 17.1015 8.29985 17.354 8.29985 17.7773C8.29629 18.2147 8.13985 18.3997 7.48918 18.7305C7.2794 18.8372 7.07673 18.9616 7.04118 19.0114C6.93807 19.1395 6.94873 19.2889 7.07318 19.4133C7.16207 19.5023 7.20473 19.5165 7.36829 19.5165C7.4714 19.5165 7.64562 19.4916 7.75229 19.4596C8.1114 19.3564 8.10429 19.3564 8.1434 19.4667C8.16473 19.5236 8.2074 19.6232 8.24296 19.6872C8.29985 19.801 8.29985 19.8081 8.23229 19.8579C8.01896 20.0144 7.25096 20.0998 6.94162 20.0002Z" fill="black"/>
<path id="Vector_12" d="M22.1167 20.0002C21.9105 19.9433 21.8145 19.8899 21.6296 19.7441C21.3665 19.5307 21.2492 19.2817 21.1745 18.7909C21.1354 18.5348 21.1354 18.4139 21.171 18.1329C21.1958 17.9444 21.235 17.7595 21.2527 17.7204C21.2741 17.6812 21.3203 17.5888 21.3558 17.5105C21.459 17.3042 21.7541 17.0517 22.0136 16.9557C22.2021 16.8846 22.2981 16.8703 22.6287 16.8739C23.2047 16.881 23.5425 17.0268 23.8021 17.3754C24.0083 17.6599 24.0794 17.9267 24.083 18.453C24.083 19.0648 24.0012 19.328 23.7203 19.6374C23.5425 19.8259 23.3683 19.9291 23.1194 19.9931C22.867 20.0607 22.3443 20.0642 22.1167 20.0002ZM22.9452 19.4631C23.1514 19.3778 23.2794 19.2177 23.3612 18.951C23.4501 18.6558 23.4536 18.3001 23.3718 18.0085C23.2581 17.5888 23.0376 17.4109 22.6323 17.4074C22.0776 17.4038 21.8323 17.7275 21.8323 18.4708C21.8323 19.0008 21.9745 19.3138 22.2767 19.4489C22.451 19.5307 22.771 19.5378 22.9452 19.4631Z" fill="black"/>
<path id="Vector_13" d="M1.52296 19.9753C1.46251 19.9433 1.45896 19.8295 1.45896 18.4317V16.9201L1.54073 16.9023C1.5834 16.8917 1.72562 16.8846 1.85007 16.8917L2.08118 16.9023L2.09185 18.3784C2.0954 19.1893 2.09185 19.8899 2.08118 19.9362C2.0634 20.0073 2.04207 20.0144 1.82162 20.0144C1.69007 20.0144 1.55496 19.9966 1.52296 19.9753Z" fill="black"/>
<path id="Vector_14" d="M2.97007 19.9717C2.9594 19.9468 2.95585 19.2462 2.9594 18.4139L2.97007 16.9023H3.21896H3.46785L3.47851 18.0334C3.48207 18.8229 3.49985 19.1608 3.52473 19.1537C3.54607 19.1466 3.62073 19.0363 3.68829 18.9119C3.7594 18.7838 3.90873 18.5242 4.02607 18.3321C4.13985 18.1365 4.23229 17.9729 4.23229 17.9658C4.23229 17.9551 4.35318 17.7488 4.49896 17.5034C4.64473 17.258 4.76562 17.0446 4.76562 17.0268C4.76562 17.009 4.80118 16.9699 4.84385 16.9415C4.95762 16.8597 5.55496 16.8597 5.63318 16.9415C5.68296 16.9877 5.69007 17.1762 5.69007 18.4495C5.69007 20.1033 5.70785 20.0144 5.40207 20.0144C5.05718 20.0144 5.07496 20.0855 5.08918 18.8834C5.09985 18.1329 5.09273 17.8306 5.06429 17.82C5.03229 17.8093 4.55229 18.5526 4.55229 18.6095C4.55229 18.6202 4.06162 19.4667 3.9834 19.5876C3.96562 19.6161 3.91585 19.7121 3.86962 19.7975C3.82696 19.8828 3.75229 19.9646 3.70607 19.9824C3.57451 20.0322 2.98785 20.0215 2.97007 19.9717Z" fill="black"/>
<path id="Vector_15" d="M8.63051 19.9895C8.58429 19.9468 8.60207 19.4809 8.65185 19.4774C8.67318 19.4774 8.82607 19.4774 8.98607 19.4809C9.46251 19.488 9.4234 19.609 9.4234 18.1899C9.4234 17.2865 9.43407 16.9592 9.46607 16.9272C9.52296 16.8703 10.0136 16.8703 10.0527 16.9308C10.067 16.9521 10.0883 17.5354 10.099 18.2183L10.1167 19.4631L10.5078 19.4738C10.7638 19.4809 10.9061 19.4987 10.9238 19.5272C10.9381 19.5521 10.9523 19.6516 10.9523 19.7548C10.9523 19.9042 10.9381 19.9468 10.8847 19.9788C10.8065 20.018 8.66962 20.0322 8.63051 19.9895Z" fill="black"/>
<path id="Vector_16" d="M11.4785 19.9753C11.4181 19.9433 11.4145 19.8295 11.4145 18.4353C11.4145 17.0944 11.4216 16.9237 11.4714 16.9059C11.571 16.8668 11.9692 16.8846 12.0118 16.9272C12.0438 16.9592 12.0545 17.3469 12.0545 18.4566C12.0545 19.8864 12.051 19.9433 11.987 19.9788C11.8981 20.0251 11.5567 20.0251 11.4785 19.9753Z" fill="black"/>
<path id="Vector_17" d="M12.6163 19.9753C12.5701 19.9504 12.5523 19.8935 12.5523 19.7655C12.5523 19.4809 12.5523 19.4809 12.9078 19.4809C13.0821 19.4809 13.2634 19.4667 13.3132 19.4454L13.4056 19.4098V18.165V16.9201L13.4874 16.9023C13.5301 16.8917 13.6723 16.8846 13.7967 16.8917L14.0278 16.9023L14.0385 18.1543C14.0492 19.6161 14.003 19.4916 14.5007 19.4809C14.6714 19.4774 14.8314 19.4738 14.8563 19.4774C14.8918 19.4809 14.899 19.5485 14.8918 19.7406L14.8812 19.9966L13.779 20.0037C13.075 20.0109 12.6554 20.0002 12.6163 19.9753Z" fill="black"/>
<path id="Vector_18" d="M15.4287 19.9397C15.4038 19.8864 15.3932 19.5272 15.4038 18.7376L15.4145 17.6137L15.5141 17.4465C15.6527 17.2153 15.8803 17.0233 16.1114 16.9415C16.3887 16.8383 16.9754 16.8454 17.2456 16.9557C17.4981 17.0553 17.651 17.1726 17.7683 17.3576C17.9354 17.6243 17.9567 17.7808 17.9567 18.8834C17.9567 19.7619 17.9496 19.9113 17.8998 19.9575C17.8323 20.0251 17.4234 20.0358 17.3594 19.9717C17.3274 19.9397 17.3167 19.6765 17.3167 19.0008C17.3167 17.9089 17.2883 17.7133 17.1141 17.5425C16.9292 17.3611 16.5025 17.3398 16.275 17.4963C16.0616 17.6457 16.0545 17.6884 16.0438 18.8834C16.0296 20.1282 16.0687 20.0144 15.6741 20.0144C15.5034 20.0144 15.4643 20.0037 15.4287 19.9397Z" fill="black"/>
<path id="Vector_19" d="M18.515 19.9895C18.4616 19.9753 18.4545 19.9397 18.4616 19.737L18.4723 19.4987L18.8634 19.4774C19.0803 19.4631 19.2581 19.4525 19.2652 19.4489C19.2687 19.4489 19.2723 18.8941 19.2723 18.2219C19.2723 16.785 19.2474 16.8774 19.6421 16.8917L19.8945 16.9023L19.9123 18.1543C19.923 18.8407 19.9443 19.4169 19.9585 19.4347C19.9763 19.4489 20.1576 19.4667 20.3638 19.4702C20.5701 19.4738 20.7478 19.4845 20.7585 19.4951C20.7976 19.5378 20.8083 19.865 20.7692 19.9397C20.7265 20.0144 20.7158 20.0144 19.6527 20.0109C19.0625 20.0073 18.5505 20.0002 18.515 19.9895Z" fill="black"/>
<path id="Vector_20" d="M17.8181 16.2123C17.779 16.1732 17.7221 16.063 17.6936 15.9705C17.6652 15.878 17.5834 15.6397 17.5123 15.4441C17.4412 15.2485 17.3736 15.0493 17.363 14.9995C17.3523 14.9497 17.331 14.8964 17.3167 14.875C17.3025 14.8573 17.2705 14.7826 17.2527 14.715C17.2314 14.6474 17.1816 14.5016 17.139 14.3949C17.0963 14.2882 17.0501 14.153 17.0323 14.0926C17.0181 14.0357 16.947 13.8258 16.8723 13.6302C16.8012 13.4346 16.7407 13.2497 16.7372 13.2212C16.7301 13.1785 16.787 13.1678 17.0323 13.1572C17.1994 13.1536 17.3558 13.1643 17.3807 13.1785C17.4056 13.1963 17.4412 13.2639 17.459 13.3315C17.5478 13.6693 17.587 13.7867 17.6332 13.8401C17.6723 13.8863 17.7612 13.897 18.2056 13.897C18.7816 13.897 18.7923 13.8934 18.8456 13.6765C18.8741 13.5662 18.9203 13.4204 18.9914 13.2319C19.0198 13.1536 19.0412 13.1501 19.3363 13.1501C19.5105 13.1501 19.6598 13.1607 19.6741 13.1714C19.6847 13.1821 19.6776 13.2354 19.6563 13.2888C19.6385 13.3386 19.5603 13.5591 19.4821 13.7725C19.4074 13.9894 19.2901 14.3238 19.219 14.5194C19.1478 14.715 19.0518 14.9889 19.0056 15.124C18.5647 16.3937 18.6536 16.2586 18.2341 16.2728C17.9283 16.2799 17.8785 16.2728 17.8181 16.2123ZM18.259 15.6042C18.2696 15.5864 18.3016 15.4939 18.3265 15.4014C18.355 15.3054 18.4261 15.0671 18.4865 14.8644C18.5505 14.6652 18.5896 14.4838 18.579 14.466C18.5541 14.4233 17.8607 14.4162 17.8358 14.4589C17.8181 14.4909 17.9247 14.9142 18.0314 15.2094C18.067 15.3161 18.099 15.4406 18.099 15.4797C18.099 15.597 18.2092 15.6824 18.259 15.6042Z" fill="black"/>
<path id="Vector_21" d="M3.64562 16.2017C3.63496 16.1768 3.6314 15.4832 3.63496 14.6616L3.64562 13.1678L3.92651 13.1572C4.12918 13.1501 4.21807 13.1607 4.23585 13.1927C4.25362 13.2176 4.26785 13.4808 4.26785 13.7796C4.26785 14.2882 4.2714 14.3238 4.33896 14.3593C4.38162 14.3842 4.58429 14.3949 4.82251 14.3913C5.05007 14.3878 5.24918 14.402 5.26696 14.4198C5.28829 14.4411 5.29896 14.5514 5.29185 14.6652L5.28118 14.875L4.79407 14.8928C4.5274 14.9035 4.29629 14.9213 4.28562 14.9355C4.25007 14.9675 4.26429 15.6504 4.29629 15.6824C4.31051 15.6966 4.56296 15.7144 4.85451 15.718L5.38785 15.7286V15.9776V16.2266L4.52385 16.2372C3.85185 16.2444 3.65629 16.2372 3.64562 16.2017Z" fill="black"/>
<path id="Vector_22" d="M6.0634 16.2017C6.05273 16.1768 6.04918 15.4832 6.05273 14.6616L6.0634 13.1678H6.93451H7.80562L7.81629 13.4061C7.83051 13.6942 7.86251 13.68 7.1834 13.6942L6.7034 13.7013L6.69273 14.0606C6.68562 14.3273 6.69629 14.4305 6.73185 14.4589C6.76029 14.4838 6.97007 14.5052 7.25807 14.5087L7.73451 14.5194L7.74518 14.6937C7.76651 15.0458 7.78785 15.0315 7.20829 15.0422L6.7034 15.0529V15.373V15.6931L7.1834 15.7002C7.86251 15.7144 7.83051 15.7002 7.81629 15.9883L7.80562 16.2266L6.94162 16.2372C6.26962 16.2444 6.07407 16.2372 6.0634 16.2017Z" fill="black"/>
<path id="Vector_23" d="M8.51673 16.1981C8.50607 16.1768 8.50251 15.4832 8.50607 14.6616L8.51673 13.1678L9.1354 13.1572C9.66162 13.1501 9.78962 13.1572 10.003 13.2176C10.4723 13.3528 10.7781 13.6089 10.9452 14.0143C11.0234 14.1993 11.0412 14.3024 11.0518 14.6616C11.0661 15.1276 11.0163 15.3374 10.835 15.6291C10.7425 15.7713 10.5114 15.9812 10.355 16.063C10.0741 16.2088 9.84651 16.2444 9.18518 16.2444C8.69451 16.2444 8.5274 16.2337 8.51673 16.1981ZM9.88918 15.6468C10.1096 15.565 10.2661 15.3836 10.3478 15.1098C10.4332 14.8359 10.4367 14.6759 10.3585 14.3558C10.2483 13.8899 9.94251 13.6729 9.43051 13.6907L9.15674 13.7013L9.14607 14.6616C9.14251 15.188 9.14607 15.6397 9.15674 15.6646C9.18162 15.7358 9.69007 15.7251 9.88918 15.6468Z" fill="black"/>
<path id="Vector_24" d="M11.7772 16.2159C11.7452 16.191 11.7345 15.8602 11.7416 14.6759L11.7523 13.1678H12.6234H13.4945V13.4168V13.6658L12.9434 13.6836L12.3923 13.7013L12.3816 14.0535C12.3745 14.2811 12.3852 14.4198 12.4136 14.4518C12.4456 14.4909 12.5665 14.5016 12.9256 14.5016C13.4554 14.5016 13.4412 14.4945 13.4412 14.7683C13.4412 15.0422 13.4554 15.0351 12.9292 15.0351C12.6732 15.0351 12.4421 15.0493 12.4172 15.0671C12.3852 15.0849 12.3745 15.1774 12.3816 15.3943L12.3923 15.6931L12.9434 15.7109L13.4945 15.7286V15.9776V16.2266L12.659 16.2337C12.2003 16.2408 11.8021 16.2301 11.7772 16.2159Z" fill="black"/>
<path id="Vector_25" d="M14.2234 16.1768C14.1665 16.0665 14.1736 13.2888 14.2341 13.207C14.2696 13.1572 14.323 13.1501 14.5434 13.1572L14.8101 13.1678L14.8278 13.7369L14.8456 14.306H15.0376H15.2296L15.3576 14.1032C15.4287 13.9894 15.571 13.7583 15.6776 13.5875C15.9585 13.1252 15.9265 13.1501 16.2927 13.1501C16.5132 13.1501 16.6056 13.1643 16.6056 13.1927C16.6056 13.2176 16.4172 13.5128 16.1896 13.8543L15.7736 14.4731L15.8767 14.5478C16.2501 14.811 16.3958 15.1276 16.3212 15.5117C16.2678 15.782 16.211 15.878 16.0261 16.0167C15.7807 16.1946 15.5283 16.2444 14.8527 16.2444C14.3052 16.2444 14.259 16.2408 14.2234 16.1768ZM15.4714 15.6397C15.635 15.5544 15.6954 15.4334 15.6705 15.2378C15.6385 14.996 15.4394 14.8573 15.1158 14.8573C14.8243 14.8573 14.8278 14.8501 14.8278 15.2841C14.8278 15.5579 14.8421 15.6753 14.8741 15.686C14.9914 15.7358 15.3363 15.7073 15.4714 15.6397Z" fill="black"/>
<path id="Vector_26" d="M20.1647 16.1768C20.1185 16.095 20.1114 13.2639 20.1541 13.1927C20.179 13.1607 20.3923 13.1501 21.107 13.1572L22.0278 13.1678V13.4168V13.6658L21.4056 13.6836L20.7834 13.7013L20.7656 14.964L20.7478 16.2266L20.4741 16.2372C20.2323 16.2444 20.1967 16.2408 20.1647 16.1768Z" fill="black"/>
<path id="Vector_27" d="M12.1825 11.7096C12.115 11.642 12.1078 11.546 12.1683 11.4855C12.2358 11.418 12.3283 11.4358 12.3887 11.5211C12.435 11.5887 12.4385 11.61 12.3958 11.6741C12.3318 11.7665 12.2536 11.7808 12.1825 11.7096Z" fill="black"/>
<path id="Vector_28" d="M4.45273 11.6598C4.28207 11.5994 4.18962 11.5389 4.01185 11.3682C3.7594 11.1192 3.67051 10.4897 3.81985 9.99887C3.96562 9.53294 4.40296 9.27331 4.96473 9.31954C5.31318 9.35155 5.40562 9.39068 5.40562 9.50805V9.60052L5.20296 9.57207C4.85096 9.51872 4.67673 9.54006 4.45629 9.65031C4.27851 9.73923 4.23585 9.78547 4.1434 9.96686C4.0474 10.1554 4.03673 10.2087 4.03673 10.5146C4.03673 10.824 4.0474 10.8774 4.1434 11.0659C4.32829 11.4322 4.69451 11.578 5.14607 11.4642C5.38429 11.4037 5.38785 11.4037 5.44829 11.4784C5.53718 11.5887 5.49807 11.6349 5.28829 11.6847C5.02518 11.7452 4.67673 11.7345 4.45273 11.6598Z" fill="black"/>
<path id="Vector_29" d="M7.84118 11.3397C7.79851 11.2046 7.75229 11.1441 7.65985 11.0908C7.52118 11.009 7.51762 10.9343 7.64918 10.9129C7.6954 10.9094 7.74518 10.8845 7.7594 10.8596C7.77362 10.8382 7.78785 10.5644 7.78785 10.2514C7.78785 9.60408 7.81985 9.48671 8.03673 9.37289C8.25718 9.25908 8.57007 9.30532 8.57007 9.45114C8.57007 9.5116 8.54518 9.52227 8.3994 9.52227C8.26073 9.52227 8.21096 9.54006 8.13985 9.61475C8.05807 9.70011 8.05451 9.73212 8.04385 10.2229C8.02607 10.92 8.02251 10.9023 8.29629 10.9165C8.50607 10.9272 8.51673 10.9307 8.51673 11.0161C8.51673 11.1014 8.50251 11.105 8.28562 11.1228L8.05451 11.1406L8.03673 11.3184C8.01185 11.5709 7.92296 11.578 7.84118 11.3397Z" fill="black"/>
<path id="Vector_30" d="M6.14518 11.0481C5.99585 10.9698 5.99585 10.9698 6.04562 10.8738C6.07762 10.8098 6.09185 10.8098 6.20918 10.8596C6.36207 10.9236 6.68207 10.9307 6.78873 10.8738C6.93807 10.7956 6.9914 10.479 6.86696 10.4114C6.82785 10.3937 6.69629 10.3759 6.57185 10.3759C6.30162 10.3759 6.04207 10.2905 5.91762 10.1554C5.79673 10.0309 5.76473 9.7748 5.84651 9.58274C5.96029 9.30532 6.44029 9.22352 6.74607 9.4298C6.91318 9.54362 6.96296 9.54717 7.00562 9.43336C7.0234 9.38357 7.06251 9.34444 7.09096 9.34444C7.20473 9.34444 7.22607 9.4796 7.21185 10.1198C7.20118 10.824 7.17629 10.9129 6.9594 11.0481C6.79229 11.1512 6.33718 11.1512 6.14518 11.0481ZM6.89896 10.1803C6.96296 10.1056 6.91318 9.78547 6.82785 9.70011C6.71762 9.58985 6.55762 9.52228 6.40118 9.52228C6.1274 9.52228 5.95673 9.80325 6.10251 10.0131C6.18429 10.1305 6.27673 10.1696 6.55762 10.198C6.69629 10.2123 6.82073 10.2265 6.8314 10.2301C6.84562 10.2301 6.87407 10.2087 6.89896 10.1803Z" fill="black"/>
<path id="Vector_31" d="M9.18162 11.0516C9.0714 11.0018 9.02873 10.9627 9.0394 10.92C9.05007 10.8702 9.07851 10.8596 9.17451 10.8667C9.24207 10.8738 9.41985 10.8809 9.56562 10.8845L9.82873 10.8916L9.91407 10.7671C9.99229 10.6533 10.003 10.4826 9.93896 10.415C9.92829 10.4079 9.77185 10.3865 9.59051 10.3723C9.20651 10.3439 9.03585 10.2798 8.90429 10.1091C8.82251 9.99887 8.81185 9.95974 8.82607 9.78191C8.84029 9.60763 8.86162 9.56495 8.97185 9.46537C9.17807 9.27331 9.53718 9.25908 9.79673 9.43692C9.94962 9.54006 9.98162 9.54361 10.0101 9.4547C10.0314 9.38001 10.1203 9.33377 10.1736 9.36578C10.1914 9.37645 10.2056 9.69655 10.2056 10.0771C10.2056 10.8489 10.1878 10.9272 9.98162 11.0516C9.82162 11.1512 9.39496 11.1477 9.18162 11.0516ZM9.97807 10.1056C10.0172 9.94907 9.88918 9.69655 9.72562 9.60408C9.57629 9.51872 9.35585 9.49738 9.24207 9.55784C9.12118 9.62542 9.05718 9.79258 9.1034 9.93129C9.1674 10.1305 9.2954 10.1838 9.71496 10.1945C9.94607 10.198 9.95673 10.1945 9.97807 10.1056Z" fill="black"/>
<path id="Vector_32" d="M10.8172 11.0801C10.7603 11.0232 10.7567 9.51516 10.8101 9.41202C10.8314 9.37645 10.8776 9.34444 10.9167 9.34444C11.0341 9.34444 11.059 9.46181 11.059 9.98464C11.059 10.4363 11.0661 10.5004 11.1372 10.6213C11.2438 10.8062 11.411 10.9094 11.6065 10.9094C11.7345 10.9094 11.7701 10.9236 11.7878 10.9805C11.8234 11.0908 11.7807 11.1228 11.6065 11.1228C11.4323 11.1228 11.2545 11.0481 11.1656 10.9343C11.1016 10.856 11.0234 10.8774 11.0234 10.9769C11.0234 11.0445 10.9594 11.1228 10.899 11.1228C10.8776 11.1228 10.8421 11.105 10.8172 11.0801Z" fill="black"/>
<path id="Vector_33" d="M12.1683 11.0801C12.1114 11.0232 12.1078 9.51516 12.1612 9.41202C12.1825 9.37645 12.2287 9.34444 12.2678 9.34444C12.3923 9.34444 12.4101 9.45825 12.4101 10.2585C12.4101 11.0587 12.3994 11.1228 12.2678 11.1228C12.2358 11.1228 12.1932 11.105 12.1683 11.0801Z" fill="black"/>
<path id="Vector_34" d="M13.0038 11.1014C12.9718 11.0694 12.9718 9.47959 13.0003 9.40135C13.011 9.36934 13.0572 9.34444 13.1034 9.34444C13.1496 9.34444 13.1958 9.36934 13.2065 9.40135C13.2172 9.43336 13.2278 9.65387 13.2278 9.89572C13.2278 10.4577 13.2741 10.6675 13.4305 10.8062C13.5372 10.8987 13.5763 10.9094 13.7754 10.9094C13.9852 10.9094 14.0101 10.9023 14.0954 10.7991C14.1878 10.6924 14.1878 10.6853 14.1878 10.0878C14.1878 9.46181 14.2092 9.34444 14.3301 9.34444C14.4474 9.34444 14.4723 9.46181 14.4723 10.0309C14.4723 10.7138 14.4225 10.9094 14.2163 11.0374C14.1061 11.1085 14.035 11.1228 13.8287 11.1228C13.6047 11.1228 13.5585 11.1085 13.4163 11.0125C13.2492 10.9023 13.2101 10.9058 13.1852 11.0339C13.1745 11.105 13.0536 11.1477 13.0038 11.1014Z" fill="black"/>
<path id="Vector_35" d="M15.3007 11.0196C15.0625 10.8489 14.9665 10.664 14.9167 10.3047C14.8847 10.0736 15.0056 9.70011 15.1656 9.54717C15.3043 9.41202 15.5781 9.30887 15.795 9.30887C16.1327 9.30887 16.4456 9.47604 16.3034 9.57918C16.2607 9.61119 16.2074 9.60763 16.0794 9.56851C15.635 9.4298 15.1905 9.68588 15.2261 10.0558L15.2367 10.1803L15.7701 10.1874C16.0652 10.1909 16.3247 10.1945 16.3496 10.198C16.3781 10.198 16.3923 10.2656 16.3923 10.4221C16.3923 10.6924 16.3176 10.8454 16.1114 11.009C15.9727 11.1121 15.9372 11.1228 15.7025 11.1228C15.4714 11.1228 15.4252 11.1121 15.3007 11.0196ZM15.9727 10.8311C16.0225 10.7849 16.083 10.6889 16.1078 10.6142C16.179 10.3937 16.1363 10.3723 15.6492 10.383L15.2367 10.3937L15.2261 10.5004C15.219 10.5822 15.2474 10.6462 15.3434 10.76C15.4678 10.9023 15.4821 10.9094 15.6776 10.9094C15.8412 10.9094 15.9016 10.8916 15.9727 10.8311Z" fill="black"/>
<path id="Vector_36" d="M16.9363 11.0979C16.9007 11.0872 16.8901 10.8809 16.8901 10.2514C16.8901 9.54006 16.8972 9.41913 16.947 9.37645C16.9861 9.34444 17.0181 9.34088 17.0607 9.36934C17.1105 9.39779 17.1247 9.49738 17.139 9.9882C17.1532 10.383 17.1745 10.6035 17.2065 10.6711C17.3381 10.9272 17.7932 11.0054 17.9958 10.8062L18.099 10.7031V10.0807C18.099 9.73567 18.1096 9.43336 18.1203 9.40135C18.1558 9.30887 18.3087 9.33021 18.3336 9.4298C18.3443 9.47604 18.3478 9.81392 18.3407 10.1803L18.3301 10.8454L18.1736 10.9841C18.0207 11.1192 18.0136 11.1228 17.7434 11.1228C17.4945 11.1228 17.4554 11.1121 17.3238 11.0161L17.1781 10.9094L17.1354 10.9912C17.0714 11.1085 17.0252 11.137 16.9363 11.0979Z" fill="black"/>
<path id="Vector_37" d="M19.0554 11.0516C18.8954 10.9663 18.7958 10.7707 18.8243 10.6071C18.8563 10.4363 19.0056 10.3154 19.3541 10.166C19.7096 10.0131 19.8056 9.9384 19.8056 9.81036C19.8056 9.70011 19.7807 9.66098 19.6634 9.58274C19.5532 9.50805 19.2118 9.50093 19.0376 9.57562C18.8883 9.63609 18.803 9.61119 18.8172 9.50805C18.835 9.39068 19.0056 9.32666 19.3256 9.32666C19.635 9.32666 19.8056 9.38001 19.9478 9.51516C20.019 9.58629 20.0332 9.63253 20.0367 9.81392C20.0367 10.0166 20.0296 10.0309 19.9016 10.1411C19.827 10.2016 19.6456 10.3012 19.4963 10.3545C19.2225 10.4577 19.059 10.5857 19.059 10.696C19.059 10.728 19.0981 10.792 19.1443 10.8347C19.2225 10.9058 19.2545 10.9129 19.4927 10.8987C19.635 10.888 19.7914 10.8738 19.8376 10.8667C19.9585 10.8489 20.019 10.9592 19.9372 11.041C19.8376 11.1406 19.2296 11.1477 19.0554 11.0516Z" fill="black"/>
<path id="Vector_38" d="M20.7585 11.0054C20.4812 10.792 20.3781 10.4861 20.4314 10.0202C20.4883 9.50805 20.9825 9.21285 21.5514 9.34444C21.7718 9.39779 21.8323 9.43336 21.8323 9.52583C21.8323 9.62542 21.7825 9.63609 21.555 9.57207C21.1567 9.46181 20.8296 9.59696 20.7194 9.92773C20.6341 10.1731 20.6483 10.1767 21.3061 10.198L21.8856 10.2158L21.8963 10.3296C21.9141 10.5004 21.8074 10.8169 21.6972 10.9165C21.5016 11.0979 21.4376 11.1228 21.171 11.1228C20.9363 11.1228 20.9007 11.1121 20.7585 11.0054ZM21.523 10.76C21.5976 10.6711 21.619 10.6106 21.6118 10.5181L21.6012 10.3937L21.1781 10.383C20.9256 10.3759 20.7407 10.3865 20.7194 10.4079C20.6661 10.4612 20.755 10.7102 20.8581 10.8062C21.0358 10.9734 21.3594 10.9521 21.523 10.76Z" fill="black"/>
<path id="Vector_39" d="M0.0260673 7.54121C-0.0948216 7.42029 -0.322378 7.42384 12.7798 7.42384C22.1203 7.42384 25.5692 7.43451 25.587 7.46297C25.5976 7.48431 25.587 7.51632 25.5621 7.5341C25.5052 7.56967 0.0616229 7.57678 0.0260673 7.54121Z" fill="#4DA65D"/>
<path id="Vector_40" d="M7.5034 6.12922C6.98073 5.9834 6.72118 5.59928 6.72118 4.96975C6.72118 4.36512 6.95229 3.97389 7.39673 3.83162C7.59229 3.7676 8.12918 3.7676 8.28207 3.83162C8.36385 3.86363 8.39229 3.8992 8.39229 3.96322C8.39229 4.05213 8.39229 4.05213 8.17185 4.02368C7.57807 3.94188 7.26873 4.06636 7.09096 4.45404C7.01985 4.60342 7.00562 4.68878 7.00562 4.96975C7.00918 5.21516 7.0234 5.3432 7.06962 5.43212C7.25807 5.81268 7.40385 5.90871 7.8234 5.91227C7.99051 5.91227 8.18251 5.89804 8.25362 5.88381C8.3674 5.85536 8.38162 5.86247 8.42073 5.94428C8.47051 6.05453 8.43496 6.07943 8.15051 6.13989C7.91585 6.18969 7.70962 6.18613 7.5034 6.12922Z" fill="black"/>
<path id="Vector_41" d="M9.13896 5.50681C8.95762 5.43212 8.93629 5.39655 9.02518 5.31475C9.08562 5.25784 9.1034 5.25784 9.19584 5.30763C9.25629 5.33609 9.3914 5.36098 9.51584 5.36098C9.69362 5.36098 9.7434 5.34676 9.80384 5.28274C9.89629 5.17959 9.93896 4.99465 9.88562 4.90217C9.85362 4.83815 9.81451 4.82748 9.60473 4.82748C9.18873 4.82748 8.89007 4.69589 8.79407 4.46471C8.60207 4.0059 9.1354 3.59688 9.61896 3.83162C9.69718 3.87074 9.78962 3.92054 9.82518 3.94543C9.87851 3.98456 9.89629 3.97744 9.97096 3.88853C10.0243 3.81739 10.0705 3.7925 10.1096 3.80672C10.163 3.82806 10.1701 3.90631 10.1701 4.46471C10.1701 5.23294 10.1345 5.37165 9.92118 5.49614C9.7434 5.59572 9.37718 5.60284 9.13896 5.50681ZM9.88207 4.59986C9.90696 4.57141 9.91407 4.50739 9.9034 4.44692C9.88918 4.39357 9.87496 4.31177 9.86429 4.26553C9.85718 4.22285 9.78251 4.13749 9.70073 4.08059C9.51584 3.94543 9.27051 3.93121 9.12473 4.04858C8.99673 4.15172 8.99318 4.38646 9.12118 4.50739C9.25984 4.63898 9.79673 4.703 9.88207 4.59986Z" fill="black"/>
<path id="Vector_42" d="M10.7567 5.5317C10.7461 5.50681 10.7425 5.10846 10.7461 4.64965L10.7567 3.81384H10.8456H10.9345L10.9558 4.40069C10.9772 5.05155 11.0163 5.19382 11.1941 5.30052C11.2581 5.33609 11.3718 5.36098 11.475 5.36098C11.6172 5.36098 11.667 5.3432 11.7381 5.26851C11.8198 5.17959 11.8234 5.15825 11.8412 4.49672L11.859 3.81384H11.9656H12.0723L12.0901 4.43625C12.1078 4.95197 12.1221 5.07645 12.1754 5.1547C12.2678 5.29696 12.3887 5.36098 12.5701 5.36098C12.9327 5.36098 12.979 5.2614 12.979 4.49316C12.979 4.17306 12.9896 3.88497 13.0003 3.85296C13.0358 3.75693 13.1887 3.78183 13.2136 3.88497C13.2527 4.04146 13.2101 5.22939 13.1638 5.31475C13.139 5.36098 13.0607 5.43567 12.9861 5.48547C12.883 5.5566 12.8118 5.57438 12.6376 5.57438C12.4456 5.57438 12.3923 5.56016 12.2358 5.45346L12.0545 5.32897L11.955 5.41078C11.7985 5.54237 11.7132 5.57438 11.5212 5.57438C11.347 5.57438 11.1727 5.51392 11.0518 5.40722C11.0021 5.36098 10.9878 5.3681 10.9452 5.45701C10.8954 5.56371 10.7852 5.60995 10.7567 5.5317Z" fill="black"/>
<path id="Vector_43" d="M13.8358 5.54237C13.8074 5.52459 13.7967 5.19382 13.8038 4.27265L13.8145 3.03137H13.9212H14.0278L14.0385 3.48662C14.0421 3.73559 14.0598 3.93832 14.0741 3.93832C14.0883 3.93832 14.1772 3.8992 14.2732 3.8494C14.547 3.71069 14.8563 3.74982 15.0696 3.94899C15.3754 4.23352 15.411 4.95197 15.1407 5.33609C14.9665 5.57794 14.5043 5.65619 14.2518 5.48547C14.0954 5.37877 14.0207 5.37165 13.9923 5.46413C13.9674 5.54237 13.8963 5.57794 13.8358 5.54237ZM14.7816 5.31475C14.9665 5.2116 15.0234 5.08001 15.0341 4.73145C15.0447 4.45404 15.0376 4.37935 14.9736 4.24775C14.8492 3.99167 14.5683 3.90631 14.3016 4.04146C14.1061 4.14105 14.0456 4.29754 14.0456 4.69233C14.0456 5.05155 14.1096 5.20805 14.2874 5.30763C14.4047 5.3681 14.675 5.37521 14.7816 5.31475Z" fill="black"/>
<path id="Vector_44" d="M15.859 5.53882C15.7772 5.48547 15.7807 4.25842 15.8661 4.07347C16.0083 3.76049 16.5096 3.66446 16.8367 3.88853C16.9967 3.99523 17.0181 3.99523 17.0465 3.88497C17.0643 3.82095 17.0927 3.79605 17.1567 3.79605H17.2456L17.2385 4.6781L17.2278 5.5566H17.139H17.0501L17.0323 4.96975C17.0181 4.47537 17.0038 4.36156 16.9434 4.24419C16.7834 3.93121 16.2998 3.87786 16.1256 4.14816C16.1078 4.18017 16.083 4.49671 16.0723 4.85594C16.0581 5.38232 16.0438 5.51392 16.0012 5.53882C15.9336 5.5815 15.9265 5.5815 15.859 5.53882Z" fill="black"/>
<path id="Vector_45" d="M17.9887 5.50681C17.7647 5.38588 17.6865 5.20805 17.7612 4.99109C17.8181 4.82749 17.8892 4.77414 18.2767 4.60697C18.5647 4.48249 18.739 4.34378 18.739 4.24064C18.739 4.21218 18.6998 4.14816 18.6536 4.09481C18.5825 4.00945 18.5398 3.99523 18.3443 3.981C18.1985 3.97389 18.0598 3.98811 17.9603 4.02012C17.7541 4.09481 17.6474 4.04502 17.7363 3.91698C17.8287 3.77472 18.2767 3.72137 18.5754 3.81384C18.8492 3.8992 18.9523 4.02368 18.9523 4.26553C18.9523 4.42914 18.9381 4.45759 18.8172 4.57496C18.7318 4.65321 18.5754 4.74213 18.4083 4.80259C18.0776 4.92352 17.9852 4.99465 17.9852 5.1298C17.9852 5.28985 18.1025 5.36098 18.3656 5.36098C18.4865 5.36098 18.6358 5.3432 18.6998 5.32186C18.7994 5.28629 18.8207 5.28985 18.8634 5.34676C18.9061 5.40722 18.9025 5.42145 18.8456 5.48547C18.739 5.58861 18.1701 5.60284 17.9887 5.50681Z" fill="black"/>
<path id="Vector_46" d="M11.8127 2.47297C11.7843 2.44452 11.7701 2.29514 11.7701 2.02839C11.7701 1.80788 11.7594 1.62649 11.7452 1.62649C11.7274 1.62649 11.6385 1.66561 11.5425 1.71541C11.0554 1.96082 10.5896 1.70118 10.4865 1.12856C10.4083 0.676862 10.5398 0.27496 10.8314 0.0935702C11.0341 -0.0309128 11.3896 -0.0237995 11.5887 0.107797C11.667 0.161147 11.7416 0.203827 11.7523 0.203827C11.763 0.203827 11.7878 0.161147 11.8056 0.111354C11.8305 0.043777 11.8625 0.022437 11.923 0.033107L12.0012 0.043777L12.0118 1.2317C12.019 2.41963 12.0118 2.51565 11.8981 2.51565C11.8732 2.51565 11.8376 2.49787 11.8127 2.47297ZM11.4785 1.54113C11.635 1.45933 11.6883 1.37397 11.731 1.11789C11.7807 0.822685 11.731 0.474133 11.6207 0.356763C11.5176 0.246507 11.3327 0.193157 11.155 0.218053C10.8598 0.26429 10.739 0.463463 10.739 0.904488C10.739 1.35974 10.9025 1.58737 11.2296 1.59092C11.315 1.59092 11.4252 1.56958 11.4785 1.54113Z" fill="black"/>
<path id="Vector_47" d="M9.75051 2.36628C9.68651 2.30226 9.69718 2.2169 9.7754 2.14576C9.82873 2.09597 9.86073 2.09241 9.91762 2.12442C10.0456 2.192 9.99585 2.40896 9.85007 2.40896C9.81807 2.40896 9.7754 2.39117 9.75051 2.36628Z" fill="black"/>
<path id="Vector_48" d="M14.4438 2.36627C14.3798 2.30225 14.3905 2.21689 14.4687 2.14576C14.5754 2.04973 14.6927 2.12798 14.6785 2.27736C14.6714 2.36983 14.6501 2.39473 14.579 2.40184C14.5292 2.40895 14.4687 2.39117 14.4438 2.36627Z" fill="black"/>
<path id="Vector_49" d="M7.5034 2.3236C7.5034 2.25246 7.67051 1.76164 7.85896 1.27083C7.90162 1.16413 7.94785 1.02897 7.96562 0.96851C7.97985 0.911604 8.03673 0.758667 8.08651 0.634184C8.13629 0.506145 8.17896 0.388775 8.17896 0.374548C8.17896 0.356765 8.21096 0.271405 8.25007 0.182489C8.31051 0.0508923 8.33896 0.0259956 8.42429 0.0259956C8.54518 0.0259956 8.57718 0.0615622 8.65896 0.292745C8.69096 0.392331 8.73362 0.502588 8.7514 0.541711C8.76918 0.580834 8.79762 0.662637 8.8154 0.719544C8.83318 0.780007 8.88296 0.91516 8.92562 1.02186C8.96829 1.12856 9.01096 1.2566 9.02162 1.30639C9.03229 1.35619 9.05362 1.41309 9.06785 1.43088C9.08207 1.45222 9.11407 1.52335 9.13185 1.59093C9.15318 1.6585 9.20296 1.80432 9.24562 1.91102C9.40918 2.32715 9.40918 2.37339 9.25985 2.37339C9.16385 2.37339 9.03229 2.19911 9.03229 2.07107C9.03229 2.02839 9.01807 1.98216 9.00029 1.96437C8.98251 1.94303 8.95051 1.8719 8.93273 1.80432C8.9114 1.73675 8.86873 1.60871 8.83318 1.51979C8.68385 1.11789 8.5274 0.673307 8.50251 0.577278C8.48829 0.520371 8.4634 0.474135 8.44562 0.474135C8.41362 0.481248 8.37451 0.577278 8.16473 1.17124C8.13273 1.26371 8.05807 1.47 7.99762 1.63361C7.93718 1.79721 7.87318 1.98571 7.85185 2.05329C7.78073 2.2987 7.72385 2.37339 7.61007 2.37339C7.54251 2.37339 7.5034 2.35561 7.5034 2.3236Z" fill="black"/>
<path id="Vector_50" d="M12.9221 1.73319C12.5914 1.58737 12.4065 1.0681 12.5203 0.595063C12.5878 0.31053 12.819 0.0864606 13.1034 0.0259974C13.331 -0.0202392 13.7576 0.0224407 13.8536 0.100687C13.9212 0.157594 13.9034 0.296303 13.8323 0.27852C13.8038 0.271407 13.6332 0.25718 13.4518 0.24651C13.1638 0.232284 13.1105 0.239397 13.0038 0.306973C12.8652 0.392333 12.755 0.609289 12.7727 0.758669L12.7834 0.861812L13.3701 0.879595L13.9567 0.897379L13.9461 1.10722C13.9318 1.32773 13.8536 1.53046 13.7398 1.63361C13.5443 1.80433 13.1816 1.85056 12.9221 1.73319ZM13.5016 1.51979C13.6403 1.43443 13.7292 1.19969 13.6545 1.11078C13.6154 1.06454 13.5336 1.05743 13.1958 1.06454C12.8083 1.07521 12.7834 1.07877 12.7727 1.1499C12.7585 1.25304 12.8936 1.47356 13.011 1.53758C13.1425 1.60871 13.3665 1.6016 13.5016 1.51979Z" fill="black"/>
<path id="Vector_51" d="M14.4936 1.75809C14.4403 1.71897 14.4367 1.62294 14.4438 0.879594L14.4545 0.0437789H14.5612H14.6678L14.6785 0.886707C14.6856 1.67984 14.6821 1.73319 14.6216 1.7652C14.5718 1.7901 14.5363 1.7901 14.4936 1.75809Z" fill="black"/>
<path id="Vector_52" d="M15.8341 1.74742C15.7701 1.72252 15.6918 1.6585 15.6634 1.61227C15.5958 1.50912 15.5176 1.52335 15.4892 1.64783C15.4607 1.75453 15.379 1.79365 15.3078 1.73319C15.2652 1.69763 15.2545 1.55892 15.2545 0.92583C15.2545 0.139809 15.2723 0.0259956 15.3967 0.0259956C15.5141 0.0259956 15.539 0.143365 15.539 0.662638C15.539 1.22815 15.571 1.34196 15.7736 1.48067C15.8447 1.53046 15.9692 1.57314 16.0723 1.58381C16.2394 1.59804 16.2501 1.60515 16.2501 1.70118C16.2501 1.80077 16.243 1.80432 16.1007 1.80077C16.0154 1.80077 15.8981 1.77587 15.8341 1.74742Z" fill="black"/>
<path id="Vector_53" d="M16.9363 1.75453C16.755 1.70474 16.6945 1.65139 16.7265 1.57314C16.7443 1.52335 16.7763 1.51624 16.883 1.53402C17.4163 1.61938 17.5265 1.59804 17.6154 1.37397C17.7221 1.11078 17.6865 1.07521 17.2812 1.04676C16.9256 1.02186 16.7763 0.972066 16.6234 0.8298C16.5061 0.719544 16.499 0.694647 16.499 0.495474C16.499 0.303415 16.5096 0.267848 16.6092 0.171818C16.8225 -0.0415813 17.2243 -0.0593646 17.4945 0.136252L17.6367 0.239395L17.6901 0.129138C17.7256 0.0615618 17.7683 0.0259952 17.8074 0.0331085C17.8607 0.0437785 17.8678 0.118468 17.8785 0.737327C17.8892 1.34907 17.8821 1.4451 17.8252 1.5518C17.7078 1.77231 17.3274 1.86123 16.9363 1.75453ZM17.651 0.822687C17.6616 0.790677 17.6474 0.68042 17.6154 0.577277C17.5407 0.346094 17.4163 0.242951 17.1816 0.218055C16.9505 0.189602 16.8367 0.242951 16.7834 0.399444C16.6874 0.694647 16.9114 0.876037 17.3736 0.879593C17.5763 0.879593 17.6332 0.868923 17.651 0.822687Z" fill="black"/>
<path id="Vector_54" d="M9.75051 1.72608C9.69718 1.67273 9.69007 0.196715 9.7434 0.0935721C9.76474 0.0580056 9.81096 0.0259956 9.85007 0.0259956C9.88918 0.0259956 9.9354 0.0580056 9.95674 0.0935721C9.99585 0.168262 10.0101 1.61582 9.97096 1.71185C9.94607 1.77943 9.81096 1.78654 9.75051 1.72608Z" fill="black"/>
</g>
</svg>
