<svg viewBox="0 0 31.9995 24.2076" fill="none" xmlns="http://www.w3.org/2000/svg">
<g id="Vector">
<path d="M21.3448 13.9513C23.4478 13.9513 26.4906 13.5176 26.4906 11.0162C26.4968 10.8231 26.4793 10.63 26.4384 10.4412L25.186 5.00123C24.8969 3.8043 24.643 3.26131 22.5417 2.21063C20.911 1.37681 17.3589 0 16.3082 0C15.3298 0 15.0457 1.26081 13.8791 1.26081C12.7561 1.26081 11.9223 0.319406 10.8716 0.319406C9.86294 0.319406 9.20563 1.00697 8.69794 2.42076C8.69794 2.42076 7.28415 6.4083 7.10259 6.9866C7.07373 7.09279 7.06126 7.20277 7.06561 7.31273C7.06561 8.86269 13.168 13.9446 21.3448 13.9446M26.8133 12.0315C27.1042 13.4083 27.1042 13.5529 27.1042 13.7345C27.1042 16.088 24.4581 17.3942 20.98 17.3942C13.1192 17.3992 6.23347 12.7931 6.23347 9.74862C6.23302 9.32485 6.31941 8.90547 6.48731 8.51638C3.65973 8.6576 0 9.16192 0 12.393C0 17.685 12.5392 24.2076 22.4677 24.2076C30.0797 24.2076 31.9995 20.7648 31.9995 18.0465C31.9995 15.9081 30.1503 13.4806 26.8167 12.0315" fill="#EE0000"/>
<path d="M26.8133 12.0315C27.1042 13.4083 27.1042 13.5529 27.1042 13.7345C27.1042 16.088 24.4581 17.3942 20.98 17.3942C13.1192 17.3992 6.23347 12.7931 6.23347 9.74862C6.23302 9.32485 6.31941 8.90547 6.48731 8.51638L7.10259 6.99332C7.07441 7.09735 7.06194 7.20501 7.06561 7.31273C7.06561 8.86269 13.168 13.9446 21.3448 13.9446C23.4478 13.9446 26.4906 13.5109 26.4906 11.0094C26.4968 10.8164 26.4793 10.6233 26.4384 10.4345L26.8133 12.0315Z" fill="black"/>
</g>
</svg>
