<svg viewBox="0 0 36.038 9.2389" fill="none" xmlns="http://www.w3.org/2000/svg">
<g id="Vector">
<path d="M36.038 0H0V9.2389H36.038V0Z" fill="#0E5DA9"/>
<path fill-rule="evenodd" clip-rule="evenodd" d="M8.86927 3.27931C9.30846 1.71532 8.03492 1.23876 6.69552 1.23876C5.35612 1.23876 3.90017 1.6613 3.50168 3.19828C3.35331 3.89943 3.54941 4.49254 4.14437 4.7804C5.42383 5.40052 6.79468 5.21182 6.60746 6.09279C6.51607 6.52421 5.94072 6.73992 5.52558 6.73992C4.87845 6.73992 4.50105 6.40729 4.63869 5.79605H2.84086C2.49343 7.55799 3.73071 7.99977 5.24105 7.99977C6.75139 7.99977 8.22806 7.35116 8.51888 5.98475C8.89036 4.23206 7.33229 4.12402 6.30332 3.84541C5.85377 3.71961 5.31135 3.5668 5.41199 3.09024C5.48081 2.76686 5.89743 2.49713 6.31072 2.49713C6.61634 2.49713 6.83501 2.56891 6.95933 2.70396C7.09253 2.83864 7.13323 3.02734 7.07181 3.27931H8.86927ZM14.0693 7.86361L14.3375 6.60524H11.1914L11.4833 5.22995H14.3778L14.6446 3.97158H11.7501L12.0346 2.63218H15.1807L15.449 1.37381H10.505L9.12531 7.86361H14.0693ZM15.0853 7.86361H16.7033L17.7596 2.89266H17.7774L18.9237 7.86361H21.4134L22.7931 1.37381H21.1751L20.1502 6.19195L20.1291 6.21008L18.9817 1.37418H16.4646L15.0853 7.86361ZM23.8761 7.86361L24.5684 6.59599H27.202L27.3637 7.86361H29.3954L28.2132 1.37381H26.0199L22.0783 7.86361H23.8761ZM25.2932 5.33762L26.748 2.64106H26.7751L27.0281 5.33762H25.2932ZM31.8759 7.86361L33.2556 1.37381H31.4578L30.078 7.86361H31.8759Z" fill="white"/>
<path fill-rule="evenodd" clip-rule="evenodd" d="M0 4.52325H1.88848V4.71602H0V4.52325Z" fill="white"/>
<path fill-rule="evenodd" clip-rule="evenodd" d="M0 2.96074H1.88848V3.15351H0V2.96074Z" fill="white"/>
<path fill-rule="evenodd" clip-rule="evenodd" d="M0 1.39897H1.88848V1.59174H0V1.39897Z" fill="white"/>
<path fill-rule="evenodd" clip-rule="evenodd" d="M0 6.08502H1.88848V6.27779H0V6.08502Z" fill="white"/>
<path fill-rule="evenodd" clip-rule="evenodd" d="M0 7.64716H1.88848V7.83993H0V7.64716Z" fill="white"/>
<path fill-rule="evenodd" clip-rule="evenodd" d="M34.1495 4.52325H36.038V4.71602H34.1495V4.52325Z" fill="white"/>
<path fill-rule="evenodd" clip-rule="evenodd" d="M34.1495 2.96074H36.038V3.15351H34.1495V2.96074Z" fill="white"/>
<path fill-rule="evenodd" clip-rule="evenodd" d="M34.1495 1.39897H36.038V1.59174H34.1495V1.39897Z" fill="white"/>
<path fill-rule="evenodd" clip-rule="evenodd" d="M34.1495 6.08502H36.038V6.27779H34.1495V6.08502Z" fill="white"/>
<path fill-rule="evenodd" clip-rule="evenodd" d="M34.1495 7.64716H36.038V7.83993H34.1495V7.64716Z" fill="white"/>
</g>
</svg>
