<svg viewBox="0 0 32 32" fill="none" xmlns="http://www.w3.org/2000/svg">
<g id="download">
<path id="Vector" d="M31 16C31.0063 18.3815 30.2337 20.6997 28.8 22.6013C28.721 22.7063 28.6222 22.7948 28.509 22.8616C28.3959 22.9285 28.2707 22.9724 28.1405 22.9908C28.0104 23.0093 27.8779 23.0019 27.7507 22.9692C27.6234 22.9364 27.5038 22.879 27.3988 22.8C27.2937 22.721 27.2052 22.6222 27.1384 22.509C27.0715 22.3959 27.0276 22.2707 27.0092 22.1405C26.9907 22.0104 26.9981 21.8779 27.0308 21.7507C27.0636 21.6234 27.121 21.5038 27.2 21.3988C28.3735 19.8441 29.0057 17.9479 29 16C29 13.6131 28.0518 11.3239 26.364 9.63604C24.6761 7.94821 22.3869 7 20 7C17.6131 7 15.3239 7.94821 13.636 9.63604C11.9482 11.3239 11 13.6131 11 16C11 16.2652 10.8946 16.5196 10.7071 16.7071C10.5196 16.8946 10.2652 17 10 17C9.73478 17 9.48043 16.8946 9.29289 16.7071C9.10536 16.5196 9 16.2652 9 16C8.99951 14.9908 9.13789 13.9864 9.41125 13.015C9.275 13 9.1375 13 9 13C7.4087 13 5.88258 13.6321 4.75736 14.7574C3.63214 15.8826 3 17.4087 3 19C3 20.5913 3.63214 22.1174 4.75736 23.2426C5.88258 24.3679 7.4087 25 9 25H12C12.2652 25 12.5196 25.1054 12.7071 25.2929C12.8946 25.4804 13 25.7348 13 26C13 26.2652 12.8946 26.5196 12.7071 26.7071C12.5196 26.8946 12.2652 27 12 27H9C7.90022 27.0003 6.8122 26.7737 5.80389 26.3346C4.79558 25.8955 3.88864 25.2532 3.13972 24.4478C2.39079 23.6424 1.81597 22.6913 1.45115 21.6538C1.08632 20.6163 0.939341 19.5147 1.01937 18.4178C1.09941 17.321 1.40474 16.2524 1.9163 15.2788C2.42786 14.3052 3.13467 13.4476 3.99256 12.7595C4.85046 12.0714 5.84103 11.5675 6.9024 11.2794C7.96378 10.9913 9.07315 10.9251 10.1613 11.085C11.2692 8.86895 13.0929 7.09184 15.3369 6.04154C17.5809 4.99124 20.1137 4.72925 22.5252 5.29801C24.9366 5.86677 27.0854 7.23297 28.6236 9.17531C30.1617 11.1177 30.999 13.5224 31 16ZM22.2925 21.2925L20 23.5863V16C20 15.7348 19.8946 15.4804 19.7071 15.2929C19.5196 15.1054 19.2652 15 19 15C18.7348 15 18.4804 15.1054 18.2929 15.2929C18.1054 15.4804 18 15.7348 18 16V23.5863L15.7075 21.2925C15.5199 21.1049 15.2654 20.9994 15 20.9994C14.7346 20.9994 14.4801 21.1049 14.2925 21.2925C14.1049 21.4801 13.9994 21.7346 13.9994 22C13.9994 22.2654 14.1049 22.5199 14.2925 22.7075L18.2925 26.7075C18.3854 26.8005 18.4957 26.8742 18.6171 26.9246C18.7385 26.9749 18.8686 27.0008 19 27.0008C19.1314 27.0008 19.2615 26.9749 19.3829 26.9246C19.5043 26.8742 19.6146 26.8005 19.7075 26.7075L23.7075 22.7075C23.8951 22.5199 24.0006 22.2654 24.0006 22C24.0006 21.7346 23.8951 21.4801 23.7075 21.2925C23.5199 21.1049 23.2654 20.9994 23 20.9994C22.7346 20.9994 22.4801 21.1049 22.2925 21.2925Z" fill="#0F172A"/>
</g>
</svg>
