<svg viewBox="0 0 48 48" fill="none" xmlns="http://www.w3.org/2000/svg">
<g id="stack">
<path id="Vector" d="M43.2956 32.25C43.4937 32.5938 43.5476 33.0021 43.4453 33.3855C43.343 33.7689 43.093 34.0962 42.75 34.2956L24.75 44.7956C24.5206 44.9294 24.2599 44.9999 23.9944 44.9999C23.7289 44.9999 23.4681 44.9294 23.2388 44.7956L5.23875 34.2956C4.90068 34.0925 4.65622 33.7643 4.55831 33.3823C4.4604 33.0002 4.51692 32.5949 4.71563 32.2542C4.91433 31.9135 5.23923 31.6648 5.61999 31.5619C6.00075 31.459 6.40672 31.5102 6.75 31.7044L24 41.7638L41.25 31.7044C41.5938 31.5063 42.0021 31.4524 42.3855 31.5547C42.7689 31.657 43.0962 31.907 43.2956 32.25ZM41.25 22.7044L24 32.7638L6.75 22.7044C6.40846 22.5343 6.01495 22.5008 5.64957 22.6107C5.28419 22.7205 4.97441 22.9655 4.78326 23.2957C4.59212 23.6259 4.53399 24.0165 4.6207 24.388C4.70741 24.7596 4.93244 25.0841 5.25 25.2956L23.25 35.7956C23.4794 35.9294 23.7401 35.9999 24.0056 35.9999C24.2711 35.9999 24.5319 35.9294 24.7612 35.7956L42.7612 25.2956C42.9341 25.1978 43.0859 25.0666 43.2076 24.9097C43.3294 24.7528 43.4188 24.5732 43.4707 24.3815C43.5225 24.1897 43.5357 23.9896 43.5096 23.7927C43.4834 23.5957 43.4184 23.406 43.3183 23.2344C43.2183 23.0628 43.0851 22.9128 42.9266 22.7931C42.7681 22.6734 42.5874 22.5864 42.395 22.537C42.2025 22.4877 42.0022 22.4771 41.8057 22.5059C41.6091 22.5346 41.4203 22.6021 41.25 22.7044ZM4.5 15C4.5006 14.7373 4.57019 14.4793 4.70181 14.2519C4.83344 14.0246 5.02247 13.8357 5.25 13.7044L23.25 3.20438C23.4794 3.07062 23.7401 3.00015 24.0056 3.00015C24.2711 3.00015 24.5319 3.07062 24.7612 3.20438L42.7612 13.7044C42.9877 13.8365 43.1755 14.0256 43.3061 14.2529C43.4367 14.4803 43.5054 14.7378 43.5054 15C43.5054 15.2622 43.4367 15.5197 43.3061 15.7471C43.1755 15.9744 42.9877 16.1635 42.7612 16.2956L24.7612 26.7956C24.5319 26.9294 24.2711 26.9999 24.0056 26.9999C23.7401 26.9999 23.4794 26.9294 23.25 26.7956L5.25 16.2956C5.02247 16.1643 4.83344 15.9754 4.70181 15.7481C4.57019 15.5207 4.5006 15.2627 4.5 15ZM8.9775 15L24 23.7638L39.0225 15L24 6.23625L8.9775 15Z" fill="url(#paint0_linear_0_4)"/>
</g>
<defs>
<linearGradient id="paint0_linear_0_4" x1="4.5" y1="24" x2="43.5226" y2="24" gradientUnits="userSpaceOnUse">
<stop stop-color="#06B6D4"/>
<stop offset="1" stop-color="#10B981"/>
</linearGradient>
</defs>
</svg>
