<svg viewBox="0 0 48 48" fill="none" xmlns="http://www.w3.org/2000/svg">
<g id="database">
<path id="Vector" d="M24 4.5C13.9069 4.5 6 9.1125 6 15V33C6 38.8875 13.9069 43.5 24 43.5C34.0931 43.5 42 38.8875 42 33V15C42 9.1125 34.0931 4.5 24 4.5ZM39 24C39 25.8037 37.5225 27.6431 34.9481 29.0475C32.0494 30.6281 28.1606 31.5 24 31.5C19.8394 31.5 15.9506 30.6281 13.0519 29.0475C10.4775 27.6431 9 25.8037 9 24V20.88C12.1987 23.6925 17.6681 25.5 24 25.5C30.3319 25.5 35.8013 23.685 39 20.88V24ZM13.0519 9.9525C15.9506 8.37188 19.8394 7.5 24 7.5C28.1606 7.5 32.0494 8.37188 34.9481 9.9525C37.5225 11.3569 39 13.1963 39 15C39 16.8037 37.5225 18.6431 34.9481 20.0475C32.0494 21.6281 28.1606 22.5 24 22.5C19.8394 22.5 15.9506 21.6281 13.0519 20.0475C10.4775 18.6431 9 16.8037 9 15C9 13.1963 10.4775 11.3569 13.0519 9.9525ZM34.9481 38.0475C32.0494 39.6281 28.1606 40.5 24 40.5C19.8394 40.5 15.9506 39.6281 13.0519 38.0475C10.4775 36.6431 9 34.8037 9 33V29.88C12.1987 32.6925 17.6681 34.5 24 34.5C30.3319 34.5 35.8013 32.685 39 29.88V33C39 34.8037 37.5225 36.6431 34.9481 38.0475Z" fill="url(#paint0_linear_0_4)"/>
</g>
<defs>
<linearGradient id="paint0_linear_0_4" x1="6" y1="24" x2="42" y2="24" gradientUnits="userSpaceOnUse">
<stop stop-color="#06B6D4"/>
<stop offset="1" stop-color="#10B981"/>
</linearGradient>
</defs>
</svg>
