<svg viewBox="0 0 48 48" fill="none" xmlns="http://www.w3.org/2000/svg">
<g id="gear">
<path id="Vector" d="M24 15C22.22 15 20.4799 15.5278 18.9999 16.5168C17.5198 17.5057 16.3663 18.9113 15.6851 20.5559C15.0039 22.2004 14.8257 24.01 15.1729 25.7558C15.5202 27.5016 16.3774 29.1053 17.636 30.364C18.8947 31.6226 20.4984 32.4798 22.2442 32.8271C23.99 33.1743 25.7996 32.9961 27.4442 32.3149C29.0887 31.6337 30.4943 30.4802 31.4832 29.0001C32.4722 27.5201 33 25.78 33 24C32.9975 21.6138 32.0485 19.3261 30.3612 17.6388C28.6739 15.9515 26.3862 15.0025 24 15ZM24 30C22.8133 30 21.6533 29.6481 20.6666 28.9888C19.6799 28.3295 18.9108 27.3925 18.4567 26.2961C18.0026 25.1997 17.8838 23.9933 18.1153 22.8295C18.3468 21.6656 18.9182 20.5965 19.7574 19.7574C20.5965 18.9182 21.6656 18.3468 22.8295 18.1153C23.9933 17.8838 25.1997 18.0026 26.2961 18.4567C27.3925 18.9108 28.3295 19.6799 28.9888 20.6666C29.6481 21.6533 30 22.8133 30 24C30 25.5913 29.3679 27.1174 28.2426 28.2426C27.1174 29.3679 25.5913 30 24 30ZM40.5 24.405C40.5075 24.135 40.5075 23.865 40.5 23.595L43.2975 20.1C43.4442 19.9165 43.5457 19.7011 43.5939 19.4712C43.6421 19.2413 43.6356 19.0032 43.575 18.7763C43.1164 17.0524 42.4304 15.3972 41.535 13.8544C41.4178 13.6525 41.255 13.4807 41.0597 13.3528C40.8644 13.2249 40.6419 13.1443 40.41 13.1175L35.9625 12.6225C35.7775 12.4275 35.59 12.24 35.4 12.06L34.875 7.60125C34.848 7.36915 34.7671 7.14656 34.6389 6.95124C34.5106 6.75592 34.3385 6.59327 34.1363 6.47625C32.5928 5.58253 30.9378 4.89719 29.2144 4.43813C28.9873 4.37774 28.7492 4.37157 28.5192 4.4201C28.2893 4.46862 28.074 4.57049 27.8906 4.7175L24.405 7.5C24.135 7.5 23.865 7.5 23.595 7.5L20.1 4.70813C19.9165 4.56144 19.7011 4.45991 19.4712 4.41171C19.2413 4.36351 19.0032 4.36999 18.7763 4.43063C17.0527 4.89005 15.3976 5.57603 13.8544 6.47063C13.6525 6.58786 13.4807 6.75061 13.3528 6.94592C13.2249 7.14122 13.1443 7.3637 13.1175 7.59563L12.6225 12.0506C12.4275 12.2369 12.24 12.4244 12.06 12.6131L7.60125 13.125C7.36915 13.152 7.14656 13.2329 6.95124 13.3611C6.75592 13.4894 6.59327 13.6615 6.47625 13.8638C5.58253 15.4072 4.89719 17.0622 4.43813 18.7856C4.37774 19.0127 4.37157 19.2509 4.4201 19.4808C4.46862 19.7107 4.57049 19.926 4.7175 20.1094L7.5 23.595C7.5 23.865 7.5 24.135 7.5 24.405L4.70813 27.9C4.56144 28.0835 4.45991 28.2989 4.41171 28.5288C4.36351 28.7588 4.36999 28.9968 4.43063 29.2238C4.88923 30.9476 5.57525 32.6028 6.47063 34.1456C6.58786 34.3475 6.75061 34.5193 6.94592 34.6472C7.14122 34.7751 7.3637 34.8557 7.59563 34.8825L12.0431 35.3775C12.2294 35.5725 12.4169 35.76 12.6056 35.94L13.125 40.3988C13.152 40.6309 13.2329 40.8534 13.3611 41.0488C13.4894 41.2441 13.6615 41.4067 13.8638 41.5238C15.4072 42.4175 17.0622 43.1028 18.7856 43.5619C19.0127 43.6223 19.2509 43.6284 19.4808 43.5799C19.7107 43.5314 19.926 43.4295 20.1094 43.2825L23.595 40.5C23.865 40.5075 24.135 40.5075 24.405 40.5L27.9 43.2975C28.0835 43.4442 28.2989 43.5457 28.5288 43.5939C28.7588 43.6421 28.9968 43.6356 29.2238 43.575C30.9476 43.1164 32.6028 42.4304 34.1456 41.535C34.3475 41.4178 34.5193 41.255 34.6472 41.0597C34.7751 40.8644 34.8557 40.6419 34.8825 40.41L35.3775 35.9625C35.5725 35.7775 35.76 35.59 35.94 35.4L40.3988 34.875C40.6309 34.848 40.8534 34.7671 41.0488 34.6389C41.2441 34.5106 41.4067 34.3385 41.5238 34.1363C42.4175 32.5928 43.1028 30.9378 43.5619 29.2144C43.6223 28.9873 43.6284 28.7492 43.5799 28.5192C43.5314 28.2893 43.4295 28.074 43.2825 27.8906L40.5 24.405ZM37.4813 23.1863C37.5131 23.7283 37.5131 24.2717 37.4813 24.8138C37.4589 25.1848 37.5752 25.551 37.8075 25.8413L40.4681 29.1656C40.1628 30.1359 39.7719 31.0771 39.3 31.9781L35.0625 32.4581C34.6935 32.4991 34.3528 32.6755 34.1063 32.9531C33.7453 33.359 33.3609 33.7435 32.955 34.1044C32.6773 34.3509 32.501 34.6916 32.46 35.0606L31.9894 39.2944C31.0884 39.7665 30.1472 40.1574 29.1769 40.4625L25.8506 37.8019C25.5845 37.5892 25.2538 37.4735 24.9131 37.4738H24.8231C24.2811 37.5056 23.7377 37.5056 23.1956 37.4738C22.8245 37.4514 22.4584 37.5677 22.1681 37.8L18.8344 40.4625C17.8641 40.1572 16.9229 39.7663 16.0219 39.2944L15.5419 35.0625C15.5009 34.6935 15.3245 34.3528 15.0469 34.1063C14.641 33.7453 14.2565 33.3609 13.8956 32.955C13.6491 32.6773 13.3084 32.501 12.9394 32.46L8.70563 31.9875C8.23349 31.0866 7.84256 30.1453 7.5375 29.175L10.1981 25.8488C10.4304 25.5585 10.5467 25.1923 10.5244 24.8213C10.4925 24.2792 10.4925 23.7358 10.5244 23.1938C10.5467 22.8227 10.4304 22.4565 10.1981 22.1663L7.5375 18.8344C7.8428 17.8641 8.23371 16.9229 8.70563 16.0219L12.9375 15.5419C13.3065 15.5009 13.6473 15.3245 13.8938 15.0469C14.2547 14.641 14.6391 14.2565 15.045 13.8956C15.3238 13.649 15.5009 13.3075 15.5419 12.9375L16.0125 8.70563C16.9134 8.23349 17.8547 7.84256 18.825 7.5375L22.1513 10.1981C22.4415 10.4304 22.8077 10.5467 23.1788 10.5244C23.7208 10.4925 24.2642 10.4925 24.8063 10.5244C25.1773 10.5467 25.5435 10.4304 25.8338 10.1981L29.1656 7.5375C30.1359 7.8428 31.0771 8.23371 31.9781 8.70563L32.4581 12.9375C32.4991 13.3065 32.6755 13.6473 32.9531 13.8938C33.359 14.2547 33.7435 14.6391 34.1044 15.045C34.3509 15.3227 34.6916 15.499 35.0606 15.54L39.2944 16.0106C39.7665 16.9116 40.1574 17.8528 40.4625 18.8231L37.8019 22.1494C37.5673 22.4421 37.4509 22.812 37.4756 23.1863H37.4813Z" fill="url(#paint0_linear_0_4)"/>
</g>
<defs>
<linearGradient id="paint0_linear_0_4" x1="4.3798" y1="24.0028" x2="43.6258" y2="24.0028" gradientUnits="userSpaceOnUse">
<stop stop-color="#06B6D4"/>
<stop offset="1" stop-color="#10B981"/>
</linearGradient>
</defs>
</svg>
